<?xml version="1.0" encoding="utf-8" standalone="no"?>
<!DOCTYPE svg PUBLIC "-//W3C//DTD SVG 1.1//EN"
  "http://www.w3.org/Graphics/SVG/1.1/DTD/svg11.dtd">
<svg xmlns:xlink="http://www.w3.org/1999/xlink" width="676.079062pt" height="284.818625pt" viewBox="0 0 676.079062 284.818625" xmlns="http://www.w3.org/2000/svg" version="1.1">
 <metadata>
  <rdf:RDF xmlns:dc="http://purl.org/dc/elements/1.1/" xmlns:cc="http://creativecommons.org/ns#" xmlns:rdf="http://www.w3.org/1999/02/22-rdf-syntax-ns#">
   <cc:Work>
    <dc:type rdf:resource="http://purl.org/dc/dcmitype/StillImage"/>
    <dc:date>2026-08-23T03:17:37.514324</dc:date>
    <dc:format>image/svg+xml</dc:format>
    <dc:creator>
     <cc:Agent>
      <dc:title>Matplotlib v3.11.1, https://matplotlib.org/</dc:title>
     </cc:Agent>
    </dc:creator>
   </cc:Work>
  </rdf:RDF>
 </metadata>
 <defs>
  <style type="text/css">*{stroke-linejoin: round; stroke-linecap: butt}</style>
 </defs>
 <g id="figure_1">
  <g id="patch_1">
   <path d="M 0 284.818625 
L 676.079062 284.818625 
L 676.079062 0 
L 0 0 
z
" style="fill: #ffffff"/>
  </g>
  <g id="axes_1">
   <g id="patch_2">
    <path d="M 42.839063 245.528 
L 329.089687 245.528 
L 329.089687 78.71425 
L 42.839063 78.71425 
z
" style="fill: #ffffff"/>
   </g>
   <g id="matplotlib.axis_1">
    <g id="xtick_1">
     <g id="line2d_1">
      <path d="M 73.508772 245.528 
L 73.508772 78.71425 
" clip-path="url(#p329a2e7b24)" style="fill: none; stroke: #b0b0b0; stroke-opacity: 0.3; stroke-width: 0.8; stroke-linecap: square"/>
     </g>
     <g id="line2d_2">
      <defs>
       <path id="m30fc7d5c6f" d="M 0 0 
L 0 3.5 
" style="stroke: #000000; stroke-width: 0.8"/>
      </defs>
      <g>
       <use xlink:href="#m30fc7d5c6f" x="73.508772" y="245.528" style="stroke: #000000; stroke-width: 0.8"/>
      </g>
     </g>
     <g id="text_1">
      <!-- 0.5 -->
      <g transform="translate(66.568929 261.328) scale(0.1 -0.1)">
       <defs>
        <path id="NotoSansCJKkr-Regular-11" d="M 1779 -83 
C 2669 -83 3238 723 3238 2362 
C 3238 3987 2669 4774 1779 4774 
C 883 4774 320 3987 320 2362 
C 320 723 883 -83 1779 -83 
z
M 1779 390 
C 1248 390 883 986 883 2362 
C 883 3731 1248 4314 1779 4314 
C 2310 4314 2675 3731 2675 2362 
C 2675 986 2310 390 1779 390 
z
" transform="scale(0.015625)"/>
        <path id="NotoSansCJKkr-Regular-f" d="M 890 -83 
C 1120 -83 1312 96 1312 358 
C 1312 627 1120 806 890 806 
C 653 806 467 627 467 358 
C 467 96 653 -83 890 -83 
z
" transform="scale(0.015625)"/>
        <path id="NotoSansCJKkr-Regular-16" d="M 1677 -83 
C 2464 -83 3213 499 3213 1523 
C 3213 2560 2573 3021 1798 3021 
C 1517 3021 1306 2950 1094 2835 
L 1216 4192 
L 2982 4192 
L 2982 4691 
L 704 4691 
L 550 2502 
L 864 2304 
C 1133 2483 1331 2579 1645 2579 
C 2234 2579 2618 2182 2618 1510 
C 2618 826 2176 403 1619 403 
C 1075 403 730 653 467 922 
L 173 538 
C 493 224 941 -83 1677 -83 
z
" transform="scale(0.015625)"/>
       </defs>
       <use xlink:href="#NotoSansCJKkr-Regular-11"/>
       <use xlink:href="#NotoSansCJKkr-Regular-f" transform="translate(55.5 0)"/>
       <use xlink:href="#NotoSansCJKkr-Regular-16" transform="translate(83.296875 0)"/>
      </g>
     </g>
    </g>
    <g id="xtick_2">
     <g id="line2d_3">
      <path d="M 124.624955 245.528 
L 124.624955 78.71425 
" clip-path="url(#p329a2e7b24)" style="fill: none; stroke: #b0b0b0; stroke-opacity: 0.3; stroke-width: 0.8; stroke-linecap: square"/>
     </g>
     <g id="line2d_4">
      <g>
       <use xlink:href="#m30fc7d5c6f" x="124.624955" y="245.528" style="stroke: #000000; stroke-width: 0.8"/>
      </g>
     </g>
     <g id="text_2">
      <!-- 1.0 -->
      <g transform="translate(117.685112 261.328) scale(0.1 -0.1)">
       <defs>
        <path id="NotoSansCJKkr-Regular-12" d="M 563 0 
L 3136 0 
L 3136 486 
L 2195 486 
L 2195 4691 
L 1747 4691 
C 1491 4544 1190 4435 774 4358 
L 774 3987 
L 1613 3987 
L 1613 486 
L 563 486 
L 563 0 
z
" transform="scale(0.015625)"/>
       </defs>
       <use xlink:href="#NotoSansCJKkr-Regular-12"/>
       <use xlink:href="#NotoSansCJKkr-Regular-f" transform="translate(55.5 0)"/>
       <use xlink:href="#NotoSansCJKkr-Regular-11" transform="translate(83.296875 0)"/>
      </g>
     </g>
    </g>
    <g id="xtick_3">
     <g id="line2d_5">
      <path d="M 175.741138 245.528 
L 175.741138 78.71425 
" clip-path="url(#p329a2e7b24)" style="fill: none; stroke: #b0b0b0; stroke-opacity: 0.3; stroke-width: 0.8; stroke-linecap: square"/>
     </g>
     <g id="line2d_6">
      <g>
       <use xlink:href="#m30fc7d5c6f" x="175.741138" y="245.528" style="stroke: #000000; stroke-width: 0.8"/>
      </g>
     </g>
     <g id="text_3">
      <!-- 1.5 -->
      <g transform="translate(168.801295 261.328) scale(0.1 -0.1)">
       <use xlink:href="#NotoSansCJKkr-Regular-12"/>
       <use xlink:href="#NotoSansCJKkr-Regular-f" transform="translate(55.5 0)"/>
       <use xlink:href="#NotoSansCJKkr-Regular-16" transform="translate(83.296875 0)"/>
      </g>
     </g>
    </g>
    <g id="xtick_4">
     <g id="line2d_7">
      <path d="M 226.857321 245.528 
L 226.857321 78.71425 
" clip-path="url(#p329a2e7b24)" style="fill: none; stroke: #b0b0b0; stroke-opacity: 0.3; stroke-width: 0.8; stroke-linecap: square"/>
     </g>
     <g id="line2d_8">
      <g>
       <use xlink:href="#m30fc7d5c6f" x="226.857321" y="245.528" style="stroke: #000000; stroke-width: 0.8"/>
      </g>
     </g>
     <g id="text_4">
      <!-- 2.0 -->
      <g transform="translate(219.917478 261.328) scale(0.1 -0.1)">
       <defs>
        <path id="NotoSansCJKkr-Regular-13" d="M 282 0 
L 3232 0 
L 3232 506 
L 1933 506 
C 1696 506 1408 480 1165 461 
C 2266 1504 3008 2458 3008 3398 
C 3008 4230 2477 4774 1638 4774 
C 1043 4774 634 4506 256 4090 
L 595 3757 
C 858 4070 1184 4301 1568 4301 
C 2150 4301 2432 3910 2432 3373 
C 2432 2566 1754 1632 282 346 
L 282 0 
z
" transform="scale(0.015625)"/>
       </defs>
       <use xlink:href="#NotoSansCJKkr-Regular-13"/>
       <use xlink:href="#NotoSansCJKkr-Regular-f" transform="translate(55.5 0)"/>
       <use xlink:href="#NotoSansCJKkr-Regular-11" transform="translate(83.296875 0)"/>
      </g>
     </g>
    </g>
    <g id="xtick_5">
     <g id="line2d_9">
      <path d="M 277.973504 245.528 
L 277.973504 78.71425 
" clip-path="url(#p329a2e7b24)" style="fill: none; stroke: #b0b0b0; stroke-opacity: 0.3; stroke-width: 0.8; stroke-linecap: square"/>
     </g>
     <g id="line2d_10">
      <g>
       <use xlink:href="#m30fc7d5c6f" x="277.973504" y="245.528" style="stroke: #000000; stroke-width: 0.8"/>
      </g>
     </g>
     <g id="text_5">
      <!-- 2.5 -->
      <g transform="translate(271.033661 261.328) scale(0.1 -0.1)">
       <use xlink:href="#NotoSansCJKkr-Regular-13"/>
       <use xlink:href="#NotoSansCJKkr-Regular-f" transform="translate(55.5 0)"/>
       <use xlink:href="#NotoSansCJKkr-Regular-16" transform="translate(83.296875 0)"/>
      </g>
     </g>
    </g>
    <g id="xtick_6">
     <g id="line2d_11">
      <path d="M 329.089687 245.528 
L 329.089687 78.71425 
" clip-path="url(#p329a2e7b24)" style="fill: none; stroke: #b0b0b0; stroke-opacity: 0.3; stroke-width: 0.8; stroke-linecap: square"/>
     </g>
     <g id="line2d_12">
      <g>
       <use xlink:href="#m30fc7d5c6f" x="329.089687" y="245.528" style="stroke: #000000; stroke-width: 0.8"/>
      </g>
     </g>
     <g id="text_6">
      <!-- 3.0 -->
      <g transform="translate(322.149844 261.328) scale(0.1 -0.1)">
       <defs>
        <path id="NotoSansCJKkr-Regular-14" d="M 1683 -83 
C 2522 -83 3194 416 3194 1254 
C 3194 1901 2752 2310 2202 2445 
L 2202 2477 
C 2701 2650 3034 3034 3034 3603 
C 3034 4346 2458 4774 1664 4774 
C 1126 4774 710 4538 358 4218 
L 672 3846 
C 941 4115 1267 4301 1645 4301 
C 2138 4301 2438 4006 2438 3558 
C 2438 3053 2112 2662 1139 2662 
L 1139 2214 
C 2227 2214 2598 1843 2598 1274 
C 2598 736 2208 403 1645 403 
C 1114 403 762 659 486 941 
L 186 563 
C 493 224 954 -83 1683 -83 
z
" transform="scale(0.015625)"/>
       </defs>
       <use xlink:href="#NotoSansCJKkr-Regular-14"/>
       <use xlink:href="#NotoSansCJKkr-Regular-f" transform="translate(55.5 0)"/>
       <use xlink:href="#NotoSansCJKkr-Regular-11" transform="translate(83.296875 0)"/>
      </g>
     </g>
    </g>
    <g id="text_7">
     <!-- temperature T -->
     <g transform="translate(152.647969 275.328) scale(0.1 -0.1)">
      <defs>
       <path id="NotoSansCJKkr-Regular-55" d="M 1677 -83 
C 1894 -83 2125 -19 2323 45 
L 2208 486 
C 2093 435 1939 390 1811 390 
C 1408 390 1274 634 1274 1056 
L 1274 3002 
L 2221 3002 
L 2221 3475 
L 1274 3475 
L 1274 4454 
L 787 4454 
L 723 3475 
L 173 3443 
L 173 3002 
L 691 3002 
L 691 1075 
C 691 378 941 -83 1677 -83 
z
" transform="scale(0.015625)"/>
       <path id="NotoSansCJKkr-Regular-46" d="M 1997 -83 
C 2464 -83 2835 70 3136 269 
L 2931 659 
C 2669 486 2400 384 2061 384 
C 1402 384 947 858 909 1600 
L 3251 1600 
C 3264 1690 3277 1805 3277 1933 
C 3277 2925 2778 3565 1888 3565 
C 1094 3565 333 2867 333 1734 
C 333 589 1069 -83 1997 -83 
z
M 902 2016 
C 973 2707 1408 3098 1901 3098 
C 2445 3098 2765 2720 2765 2016 
L 902 2016 
z
" transform="scale(0.015625)"/>
       <path id="NotoSansCJKkr-Regular-4e" d="M 589 0 
L 1178 0 
L 1178 2522 
C 1491 2880 1786 3053 2048 3053 
C 2490 3053 2694 2778 2694 2125 
L 2694 0 
L 3277 0 
L 3277 2522 
C 3603 2880 3885 3053 4154 3053 
C 4595 3053 4800 2778 4800 2125 
L 4800 0 
L 5382 0 
L 5382 2202 
C 5382 3085 5043 3565 4333 3565 
C 3904 3565 3546 3290 3181 2899 
C 3040 3309 2758 3565 2221 3565 
C 1805 3565 1446 3302 1139 2970 
L 1126 2970 
L 1069 3475 
L 589 3475 
L 589 0 
z
" transform="scale(0.015625)"/>
       <path id="NotoSansCJKkr-Regular-51" d="M 589 -1466 
L 1178 -1466 
L 1178 -288 
L 1158 320 
C 1472 58 1805 -83 2118 -83 
C 2912 -83 3629 602 3629 1792 
C 3629 2867 3142 3565 2246 3565 
C 1843 3565 1453 3334 1139 3072 
L 1126 3072 
L 1069 3475 
L 589 3475 
L 589 -1466 
z
M 2022 410 
C 1792 410 1485 499 1178 768 
L 1178 2598 
C 1510 2906 1811 3072 2099 3072 
C 2765 3072 3021 2560 3021 1786 
C 3021 928 2598 410 2022 410 
z
" transform="scale(0.015625)"/>
       <path id="NotoSansCJKkr-Regular-53" d="M 589 0 
L 1178 0 
L 1178 2234 
C 1408 2822 1760 3040 2048 3040 
C 2195 3040 2272 3021 2387 2982 
L 2496 3488 
C 2387 3546 2278 3565 2125 3565 
C 1741 3565 1382 3283 1139 2842 
L 1126 2842 
L 1069 3475 
L 589 3475 
L 589 0 
z
" transform="scale(0.015625)"/>
       <path id="NotoSansCJKkr-Regular-42" d="M 1389 -83 
C 1818 -83 2208 141 2541 416 
L 2560 416 
L 2611 0 
L 3091 0 
L 3091 2138 
C 3091 3002 2739 3565 1888 3565 
C 1325 3565 838 3315 525 3110 
L 749 2707 
C 1024 2893 1389 3078 1792 3078 
C 2362 3078 2509 2650 2509 2202 
C 1030 2035 378 1658 378 902 
C 378 275 806 -83 1389 -83 
z
M 1555 390 
C 1210 390 941 544 941 941 
C 941 1389 1338 1677 2509 1811 
L 2509 845 
C 2170 544 1888 390 1555 390 
z
" transform="scale(0.015625)"/>
       <path id="NotoSansCJKkr-Regular-56" d="M 1606 -83 
C 2080 -83 2426 166 2752 544 
L 2771 544 
L 2816 0 
L 3302 0 
L 3302 3475 
L 2720 3475 
L 2720 1011 
C 2387 602 2138 422 1779 422 
C 1318 422 1126 698 1126 1344 
L 1126 3475 
L 538 3475 
L 538 1274 
C 538 384 870 -83 1606 -83 
z
" transform="scale(0.015625)"/>
       <path id="NotoSansCJKkr-Regular-1" transform="scale(0.015625)"/>
       <path id="NotoSansCJKkr-Regular-35" d="M 1619 0 
L 2214 0 
L 2214 4192 
L 3635 4192 
L 3635 4691 
L 198 4691 
L 198 4192 
L 1619 4192 
L 1619 0 
z
" transform="scale(0.015625)"/>
      </defs>
      <use xlink:href="#NotoSansCJKkr-Regular-55"/>
      <use xlink:href="#NotoSansCJKkr-Regular-46" transform="translate(36.203125 0)"/>
      <use xlink:href="#NotoSansCJKkr-Regular-4e" transform="translate(91.609375 0)"/>
      <use xlink:href="#NotoSansCJKkr-Regular-51" transform="translate(184.203125 0)"/>
      <use xlink:href="#NotoSansCJKkr-Regular-46" transform="translate(246.203125 0)"/>
      <use xlink:href="#NotoSansCJKkr-Regular-53" transform="translate(301.609375 0)"/>
      <use xlink:href="#NotoSansCJKkr-Regular-42" transform="translate(337.703125 0)"/>
      <use xlink:href="#NotoSansCJKkr-Regular-55" transform="translate(392.5 0)"/>
      <use xlink:href="#NotoSansCJKkr-Regular-56" transform="translate(430.203125 0)"/>
      <use xlink:href="#NotoSansCJKkr-Regular-53" transform="translate(490.90625 0)"/>
      <use xlink:href="#NotoSansCJKkr-Regular-46" transform="translate(528.609375 0)"/>
      <use xlink:href="#NotoSansCJKkr-Regular-1" transform="translate(584.015625 0)"/>
      <use xlink:href="#NotoSansCJKkr-Regular-35" transform="translate(606.421875 0)"/>
     </g>
    </g>
   </g>
   <g id="matplotlib.axis_2">
    <g id="ytick_1">
     <g id="line2d_13">
      <path d="M 42.839063 245.528 
L 329.089687 245.528 
" clip-path="url(#p329a2e7b24)" style="fill: none; stroke: #b0b0b0; stroke-opacity: 0.3; stroke-width: 0.8; stroke-linecap: square"/>
     </g>
     <g id="line2d_14">
      <defs>
       <path id="m1fa7b70d25" d="M 0 0 
L -3.5 0 
" style="stroke: #000000; stroke-width: 0.8"/>
      </defs>
      <g>
       <use xlink:href="#m1fa7b70d25" x="42.839063" y="245.528" style="stroke: #000000; stroke-width: 0.8"/>
      </g>
     </g>
     <g id="text_8">
      <!-- 0.0 -->
      <g transform="translate(21.959375 249.928) scale(0.1 -0.1)">
       <use xlink:href="#NotoSansCJKkr-Regular-11"/>
       <use xlink:href="#NotoSansCJKkr-Regular-f" transform="translate(55.5 0)"/>
       <use xlink:href="#NotoSansCJKkr-Regular-11" transform="translate(83.296875 0)"/>
      </g>
     </g>
    </g>
    <g id="ytick_2">
     <g id="line2d_15">
      <path d="M 42.839063 213.753952 
L 329.089687 213.753952 
" clip-path="url(#p329a2e7b24)" style="fill: none; stroke: #b0b0b0; stroke-opacity: 0.3; stroke-width: 0.8; stroke-linecap: square"/>
     </g>
     <g id="line2d_16">
      <g>
       <use xlink:href="#m1fa7b70d25" x="42.839063" y="213.753952" style="stroke: #000000; stroke-width: 0.8"/>
      </g>
     </g>
     <g id="text_9">
      <!-- 0.2 -->
      <g transform="translate(21.959375 218.153952) scale(0.1 -0.1)">
       <use xlink:href="#NotoSansCJKkr-Regular-11"/>
       <use xlink:href="#NotoSansCJKkr-Regular-f" transform="translate(55.5 0)"/>
       <use xlink:href="#NotoSansCJKkr-Regular-13" transform="translate(83.296875 0)"/>
      </g>
     </g>
    </g>
    <g id="ytick_3">
     <g id="line2d_17">
      <path d="M 42.839063 181.979905 
L 329.089687 181.979905 
" clip-path="url(#p329a2e7b24)" style="fill: none; stroke: #b0b0b0; stroke-opacity: 0.3; stroke-width: 0.8; stroke-linecap: square"/>
     </g>
     <g id="line2d_18">
      <g>
       <use xlink:href="#m1fa7b70d25" x="42.839063" y="181.979905" style="stroke: #000000; stroke-width: 0.8"/>
      </g>
     </g>
     <g id="text_10">
      <!-- 0.4 -->
      <g transform="translate(21.959375 186.379905) scale(0.1 -0.1)">
       <defs>
        <path id="NotoSansCJKkr-Regular-15" d="M 2176 0 
L 2726 0 
L 2726 1293 
L 3354 1293 
L 3354 1760 
L 2726 1760 
L 2726 4691 
L 2080 4691 
L 128 1677 
L 128 1293 
L 2176 1293 
L 2176 0 
z
M 2176 1760 
L 736 1760 
L 1805 3360 
C 1939 3590 2067 3827 2182 4051 
L 2208 4051 
C 2195 3814 2176 3430 2176 3200 
L 2176 1760 
z
" transform="scale(0.015625)"/>
       </defs>
       <use xlink:href="#NotoSansCJKkr-Regular-11"/>
       <use xlink:href="#NotoSansCJKkr-Regular-f" transform="translate(55.5 0)"/>
       <use xlink:href="#NotoSansCJKkr-Regular-15" transform="translate(83.296875 0)"/>
      </g>
     </g>
    </g>
    <g id="ytick_4">
     <g id="line2d_19">
      <path d="M 42.839063 150.205857 
L 329.089687 150.205857 
" clip-path="url(#p329a2e7b24)" style="fill: none; stroke: #b0b0b0; stroke-opacity: 0.3; stroke-width: 0.8; stroke-linecap: square"/>
     </g>
     <g id="line2d_20">
      <g>
       <use xlink:href="#m1fa7b70d25" x="42.839063" y="150.205857" style="stroke: #000000; stroke-width: 0.8"/>
      </g>
     </g>
     <g id="text_11">
      <!-- 0.6 -->
      <g transform="translate(21.959375 154.605857) scale(0.1 -0.1)">
       <defs>
        <path id="NotoSansCJKkr-Regular-17" d="M 1926 -83 
C 2656 -83 3277 531 3277 1440 
C 3277 2426 2765 2912 1971 2912 
C 1606 2912 1197 2701 909 2349 
C 934 3802 1466 4294 2118 4294 
C 2400 4294 2682 4154 2861 3936 
L 3194 4294 
C 2931 4576 2579 4774 2093 4774 
C 1184 4774 358 4077 358 2240 
C 358 691 1030 -83 1926 -83 
z
M 922 1882 
C 1229 2317 1587 2477 1875 2477 
C 2445 2477 2720 2074 2720 1440 
C 2720 800 2374 378 1926 378 
C 1338 378 986 909 922 1882 
z
" transform="scale(0.015625)"/>
       </defs>
       <use xlink:href="#NotoSansCJKkr-Regular-11"/>
       <use xlink:href="#NotoSansCJKkr-Regular-f" transform="translate(55.5 0)"/>
       <use xlink:href="#NotoSansCJKkr-Regular-17" transform="translate(83.296875 0)"/>
      </g>
     </g>
    </g>
    <g id="ytick_5">
     <g id="line2d_21">
      <path d="M 42.839063 118.43181 
L 329.089687 118.43181 
" clip-path="url(#p329a2e7b24)" style="fill: none; stroke: #b0b0b0; stroke-opacity: 0.3; stroke-width: 0.8; stroke-linecap: square"/>
     </g>
     <g id="line2d_22">
      <g>
       <use xlink:href="#m1fa7b70d25" x="42.839063" y="118.43181" style="stroke: #000000; stroke-width: 0.8"/>
      </g>
     </g>
     <g id="text_12">
      <!-- 0.8 -->
      <g transform="translate(21.959375 122.83181) scale(0.1 -0.1)">
       <defs>
        <path id="NotoSansCJKkr-Regular-19" d="M 1792 -83 
C 2669 -83 3258 448 3258 1126 
C 3258 1773 2880 2125 2470 2362 
L 2470 2394 
C 2746 2611 3091 3034 3091 3526 
C 3091 4250 2605 4762 1805 4762 
C 1075 4762 518 4282 518 3571 
C 518 3078 813 2726 1152 2490 
L 1152 2464 
C 723 2234 294 1792 294 1165 
C 294 442 922 -83 1792 -83 
z
M 2112 2547 
C 1555 2765 1050 3014 1050 3571 
C 1050 4026 1363 4326 1798 4326 
C 2298 4326 2592 3962 2592 3494 
C 2592 3149 2426 2829 2112 2547 
z
M 1798 352 
C 1235 352 813 717 813 1216 
C 813 1664 1082 2035 1459 2278 
C 2125 2010 2701 1779 2701 1146 
C 2701 678 2342 352 1798 352 
z
" transform="scale(0.015625)"/>
       </defs>
       <use xlink:href="#NotoSansCJKkr-Regular-11"/>
       <use xlink:href="#NotoSansCJKkr-Regular-f" transform="translate(55.5 0)"/>
       <use xlink:href="#NotoSansCJKkr-Regular-19" transform="translate(83.296875 0)"/>
      </g>
     </g>
    </g>
    <g id="ytick_6">
     <g id="line2d_23">
      <path d="M 42.839063 86.657762 
L 329.089687 86.657762 
" clip-path="url(#p329a2e7b24)" style="fill: none; stroke: #b0b0b0; stroke-opacity: 0.3; stroke-width: 0.8; stroke-linecap: square"/>
     </g>
     <g id="line2d_24">
      <g>
       <use xlink:href="#m1fa7b70d25" x="42.839063" y="86.657762" style="stroke: #000000; stroke-width: 0.8"/>
      </g>
     </g>
     <g id="text_13">
      <!-- 1.0 -->
      <g transform="translate(21.959375 91.057762) scale(0.1 -0.1)">
       <use xlink:href="#NotoSansCJKkr-Regular-12"/>
       <use xlink:href="#NotoSansCJKkr-Regular-f" transform="translate(55.5 0)"/>
       <use xlink:href="#NotoSansCJKkr-Regular-11" transform="translate(83.296875 0)"/>
      </g>
     </g>
    </g>
    <g id="text_14">
     <!-- P(최상위 토큰) -->
     <g transform="translate(16 193.065656) rotate(-90) scale(0.1 -0.1)">
      <defs>
       <path id="NotoSansCJKkr-Regular-31" d="M 646 0 
L 1235 0 
L 1235 1869 
L 2010 1869 
C 3040 1869 3738 2323 3738 3315 
C 3738 4339 3034 4691 1984 4691 
L 646 4691 
L 646 0 
z
M 1235 2349 
L 1235 4211 
L 1907 4211 
C 2733 4211 3149 4000 3149 3315 
C 3149 2643 2758 2349 1933 2349 
L 1235 2349 
z
" transform="scale(0.015625)"/>
       <path id="NotoSansCJKkr-Regular-9" d="M 1530 -1254 
L 1888 -1094 
C 1338 -186 1075 902 1075 1990 
C 1075 3072 1338 4154 1888 5069 
L 1530 5235 
C 941 4275 589 3245 589 1990 
C 589 730 941 -301 1530 -1254 
z
" transform="scale(0.015625)"/>
       <path id="NotoSansCJKkr-Regular-db57" d="M 4506 5293 
L 4506 -506 
L 5037 -506 
L 5037 5293 
L 4506 5293 
z
M 422 691 
C 1459 691 2867 698 4173 941 
L 4128 1338 
C 3610 1254 3053 1210 2509 1178 
L 2509 2234 
L 1978 2234 
L 1978 1152 
C 1389 1133 826 1133 352 1133 
L 422 691 
z
M 1978 5248 
L 1978 4538 
L 666 4538 
L 666 4102 
L 1971 4102 
C 1952 3334 1370 2701 525 2451 
L 774 2042 
C 1466 2253 1997 2714 2246 3322 
C 2502 2746 3040 2304 3725 2099 
L 3968 2515 
C 3123 2752 2528 3366 2509 4102 
L 3840 4102 
L 3840 4538 
L 2509 4538 
L 2509 5248 
L 1978 5248 
z
" transform="scale(0.015625)"/>
       <path id="NotoSansCJKkr-Regular-cebc" d="M 2970 1626 
C 1786 1626 1062 1235 1062 570 
C 1062 -102 1786 -486 2970 -486 
C 4147 -486 4864 -102 4864 570 
C 4864 1235 4147 1626 2970 1626 
z
M 2970 1203 
C 3827 1203 4346 966 4346 570 
C 4346 166 3827 -64 2970 -64 
C 2112 -64 1587 166 1587 570 
C 1587 966 2112 1203 2970 1203 
z
M 1728 4992 
L 1728 4403 
C 1728 3514 1165 2733 294 2413 
L 576 1990 
C 1254 2253 1760 2778 2003 3456 
C 2253 2861 2746 2387 3379 2150 
L 3661 2566 
C 2829 2854 2253 3578 2253 4358 
L 2253 4992 
L 1728 4992 
z
M 4282 5293 
L 4282 1779 
L 4813 1779 
L 4813 3347 
L 5664 3347 
L 5664 3795 
L 4813 3795 
L 4813 5293 
L 4282 5293 
z
" transform="scale(0.015625)"/>
       <path id="NotoSansCJKkr-Regular-d4ff" d="M 2208 5018 
C 1350 5018 736 4538 736 3827 
C 736 3123 1350 2637 2208 2637 
C 3072 2637 3686 3123 3686 3827 
C 3686 4538 3072 5018 2208 5018 
z
M 2208 4582 
C 2778 4582 3181 4275 3181 3827 
C 3181 3379 2778 3078 2208 3078 
C 1651 3078 1248 3379 1248 3827 
C 1248 4275 1651 4582 2208 4582 
z
M 4538 5286 
L 4538 -499 
L 5062 -499 
L 5062 5286 
L 4538 5286 
z
M 378 1702 
C 851 1702 1402 1709 1978 1734 
L 1978 -320 
L 2509 -320 
L 2509 1766 
C 3059 1805 3616 1862 4160 1965 
L 4122 2362 
C 2854 2170 1382 2150 307 2150 
L 378 1702 
z
" transform="scale(0.015625)"/>
       <path id="NotoSansCJKkr-Regular-f684" transform="scale(0.015625)"/>
       <path id="NotoSansCJKkr-Regular-df9b" d="M 992 4819 
L 992 1856 
L 2669 1856 
L 2669 659 
L 320 659 
L 320 224 
L 5568 224 
L 5568 659 
L 3200 659 
L 3200 1856 
L 4966 1856 
L 4966 2285 
L 1530 2285 
L 1530 3149 
L 4781 3149 
L 4781 3578 
L 1530 3578 
L 1530 4384 
L 4909 4384 
L 4909 4819 
L 992 4819 
z
" transform="scale(0.015625)"/>
       <path id="NotoSansCJKkr-Regular-de6b" d="M 320 2445 
L 320 2010 
L 5562 2010 
L 5562 2445 
L 4723 2445 
C 4890 3315 4890 3936 4890 4493 
L 4890 4986 
L 986 4986 
L 986 4550 
L 4365 4550 
L 4365 4493 
C 4365 4288 4365 4064 4358 3827 
L 845 3718 
L 915 3277 
L 4333 3430 
C 4307 3136 4262 2810 4192 2445 
L 320 2445 
z
M 979 1434 
L 979 -371 
L 5005 -371 
L 5005 64 
L 1510 64 
L 1510 1434 
L 979 1434 
z
" transform="scale(0.015625)"/>
       <path id="NotoSansCJKkr-Regular-a" d="M 634 -1254 
C 1222 -301 1574 730 1574 1990 
C 1574 3245 1222 4275 634 5235 
L 269 5069 
C 819 4154 1094 3072 1094 1990 
C 1094 902 819 -186 269 -1094 
L 634 -1254 
z
" transform="scale(0.015625)"/>
      </defs>
      <use xlink:href="#NotoSansCJKkr-Regular-31"/>
      <use xlink:href="#NotoSansCJKkr-Regular-9" transform="translate(63.296875 0)"/>
      <use xlink:href="#NotoSansCJKkr-Regular-db57" transform="translate(97.09375 0)"/>
      <use xlink:href="#NotoSansCJKkr-Regular-cebc" transform="translate(189.09375 0)"/>
      <use xlink:href="#NotoSansCJKkr-Regular-d4ff" transform="translate(281.09375 0)"/>
      <use xlink:href="#NotoSansCJKkr-Regular-f684" transform="translate(373.09375 0)"/>
      <use xlink:href="#NotoSansCJKkr-Regular-df9b" transform="translate(401.09375 0)"/>
      <use xlink:href="#NotoSansCJKkr-Regular-de6b" transform="translate(493.09375 0)"/>
      <use xlink:href="#NotoSansCJKkr-Regular-a" transform="translate(585.09375 0)"/>
     </g>
    </g>
   </g>
   <g id="line2d_25">
    <path d="M 42.839063 87.827026 
L 47.950681 90.007819 
L 53.062299 93.48316 
L 58.173917 98.021293 
L 63.285536 103.261888 
L 68.397154 108.848694 
L 73.508772 114.495172 
L 78.620391 120.000495 
L 83.732009 125.239892 
L 88.843627 130.14645 
L 93.955246 134.693183 
L 99.066864 138.878654 
L 104.178482 142.716601 
L 109.2901 146.228931 
L 114.401719 149.44123 
L 119.513337 152.380006 
L 124.624955 155.07109 
L 129.736574 157.538773 
L 134.848192 159.805393 
L 139.95981 161.891209 
L 145.071429 163.814427 
L 150.183047 165.591316 
L 155.294665 167.236359 
L 160.406283 168.762433 
L 165.517902 170.180968 
L 170.62952 171.502121 
L 175.741138 172.734914 
L 180.852757 173.887376 
L 185.964375 174.966658 
L 191.075993 175.979142 
L 196.187612 176.930531 
L 201.29923 177.825931 
L 206.410848 178.669924 
L 211.522467 179.466628 
L 216.634085 180.219752 
L 221.745703 180.932642 
L 226.857321 181.608324 
L 231.96894 182.249537 
L 237.080558 182.85877 
L 242.192176 183.438282 
L 247.303795 183.990133 
L 252.415413 184.516201 
L 257.527031 185.018204 
L 262.63865 185.497714 
L 267.750268 185.956172 
L 272.861886 186.394902 
L 277.973504 186.81512 
L 283.085123 187.21795 
L 288.196741 187.604425 
L 293.308359 187.975502 
L 298.419978 188.332065 
L 303.531596 188.674932 
L 308.643214 189.004864 
L 313.754833 189.322566 
L 318.866451 189.628694 
L 323.978069 189.923859 
L 329.089687 190.20863 
" clip-path="url(#p329a2e7b24)" style="fill: none; stroke: #1f77b4; stroke-width: 2; stroke-linecap: square"/>
   </g>
   <g id="line2d_26">
    <path d="M 42.839063 86.657762 
L 329.089687 86.657762 
" clip-path="url(#p329a2e7b24)" style="fill: none; stroke-dasharray: 2.96,1.28; stroke-dashoffset: 0; stroke: #808080; stroke-opacity: 0.6; stroke-width: 0.8"/>
   </g>
   <g id="patch_3">
    <path d="M 42.839063 245.528 
L 42.839063 78.71425 
" style="fill: none; stroke: #000000; stroke-width: 0.8; stroke-linejoin: miter; stroke-linecap: square"/>
   </g>
   <g id="patch_4">
    <path d="M 329.089687 245.528 
L 329.089687 78.71425 
" style="fill: none; stroke: #000000; stroke-width: 0.8; stroke-linejoin: miter; stroke-linecap: square"/>
   </g>
   <g id="patch_5">
    <path d="M 42.839063 245.528 
L 329.089687 245.528 
" style="fill: none; stroke: #000000; stroke-width: 0.8; stroke-linejoin: miter; stroke-linecap: square"/>
   </g>
   <g id="patch_6">
    <path d="M 42.839063 78.71425 
L 329.089687 78.71425 
" style="fill: none; stroke: #000000; stroke-width: 0.8; stroke-linejoin: miter; stroke-linecap: square"/>
   </g>
   <g id="text_15">
    <!-- T가 작을수록 분포가 가팔라짐 -->
    <g transform="translate(117.329531 61.71425) scale(0.11 -0.11)">
     <defs>
      <path id="NotoSansCJKkr-Regular-b9fb" d="M 4237 5293 
L 4237 -493 
L 4768 -493 
L 4768 2502 
L 5690 2502 
L 5690 2944 
L 4768 2944 
L 4768 5293 
L 4237 5293 
z
M 621 4672 
L 621 4230 
L 2746 4230 
C 2624 2861 1824 1754 352 1011 
L 646 602 
C 2522 1536 3277 3027 3277 4672 
L 621 4672 
z
" transform="scale(0.015625)"/>
      <path id="NotoSansCJKkr-Regular-d58c" d="M 1050 1498 
L 1050 1062 
L 4282 1062 
L 4282 -499 
L 4813 -499 
L 4813 1498 
L 1050 1498 
z
M 454 4890 
L 454 4454 
L 1747 4454 
L 1747 4230 
C 1747 3405 1165 2656 294 2349 
L 576 1939 
C 1254 2182 1773 2688 2022 3341 
C 2266 2752 2758 2278 3411 2048 
L 3680 2464 
C 2829 2758 2278 3462 2278 4230 
L 2278 4454 
L 3552 4454 
L 3552 4890 
L 454 4890 
z
M 4282 5293 
L 4282 1805 
L 4813 1805 
L 4813 3322 
L 5664 3322 
L 5664 3770 
L 4813 3770 
L 4813 5293 
L 4282 5293 
z
" transform="scale(0.015625)"/>
      <path id="NotoSansCJKkr-Regular-d53f" d="M 2931 5190 
C 1651 5190 896 4838 896 4192 
C 896 3546 1651 3187 2931 3187 
C 4211 3187 4966 3546 4966 4192 
C 4966 4838 4211 5190 2931 5190 
z
M 2931 4794 
C 3878 4794 4422 4570 4422 4192 
C 4422 3802 3878 3590 2931 3590 
C 1990 3590 1446 3802 1446 4192 
C 1446 4570 1990 4794 2931 4794 
z
M 320 2797 
L 320 2368 
L 5549 2368 
L 5549 2797 
L 320 2797 
z
M 966 -19 
L 966 -435 
L 5050 -435 
L 5050 -19 
L 1485 -19 
L 1485 570 
L 4877 570 
L 4877 1875 
L 954 1875 
L 954 1472 
L 4358 1472 
L 4358 960 
L 966 960 
L 966 -19 
z
" transform="scale(0.015625)"/>
      <path id="NotoSansCJKkr-Regular-d013" d="M 2662 5088 
L 2662 4762 
C 2662 3942 1645 3245 589 3091 
L 800 2662 
C 1702 2810 2573 3309 2944 4013 
C 3315 3309 4179 2810 5082 2662 
L 5293 3091 
C 4243 3245 3213 3955 3213 4762 
L 3213 5088 
L 2662 5088 
z
M 320 2035 
L 320 1594 
L 2662 1594 
L 2662 -499 
L 3187 -499 
L 3187 1594 
L 5549 1594 
L 5549 2035 
L 320 2035 
z
" transform="scale(0.015625)"/>
      <path id="NotoSansCJKkr-Regular-c658" d="M 902 1229 
L 902 800 
L 4390 800 
L 4390 -442 
L 4922 -442 
L 4922 1229 
L 902 1229 
z
M 992 3136 
L 992 2714 
L 2675 2714 
L 2675 2106 
L 314 2106 
L 314 1670 
L 5562 1670 
L 5562 2106 
L 3200 2106 
L 3200 2714 
L 5011 2714 
L 5011 3136 
L 1517 3136 
L 1517 3738 
L 4890 3738 
L 4890 5146 
L 979 5146 
L 979 4723 
L 4365 4723 
L 4365 4134 
L 992 4134 
L 992 3136 
z
" transform="scale(0.015625)"/>
      <path id="NotoSansCJKkr-Regular-cb7f" d="M 1011 5107 
L 1011 2790 
L 4864 2790 
L 4864 5107 
L 4339 5107 
L 4339 4371 
L 1536 4371 
L 1536 5107 
L 1011 5107 
z
M 1536 3962 
L 4339 3962 
L 4339 3219 
L 1536 3219 
L 1536 3962 
z
M 314 2234 
L 314 1805 
L 2714 1805 
L 2714 685 
L 3238 685 
L 3238 1805 
L 5562 1805 
L 5562 2234 
L 314 2234 
z
M 979 1203 
L 979 -371 
L 4979 -371 
L 4979 64 
L 1504 64 
L 1504 1203 
L 979 1203 
z
" transform="scale(0.015625)"/>
      <path id="NotoSansCJKkr-Regular-e1e7" d="M 794 2406 
L 794 1984 
L 2662 1984 
L 2662 666 
L 320 666 
L 320 218 
L 5568 218 
L 5568 666 
L 3187 666 
L 3187 1984 
L 5062 1984 
L 5062 2406 
L 4173 2406 
L 4173 4301 
L 5075 4301 
L 5075 4736 
L 781 4736 
L 781 4301 
L 1677 4301 
L 1677 2406 
L 794 2406 
z
M 2208 4301 
L 3648 4301 
L 3648 2406 
L 2208 2406 
L 2208 4301 
z
" transform="scale(0.015625)"/>
      <path id="NotoSansCJKkr-Regular-e10f" d="M 397 2490 
C 1389 2490 2726 2502 3885 2682 
L 3859 3072 
C 3590 3040 3302 3014 3014 2995 
L 3014 4480 
L 3590 4480 
L 3590 4896 
L 493 4896 
L 493 4480 
L 1069 4480 
L 1069 2931 
L 333 2925 
L 397 2490 
z
M 1581 4480 
L 2502 4480 
L 2502 2963 
L 1581 2938 
L 1581 4480 
z
M 4282 5293 
L 4282 2291 
L 4813 2291 
L 4813 3584 
L 5664 3584 
L 5664 4026 
L 4813 4026 
L 4813 5293 
L 4282 5293 
z
M 1152 -6 
L 1152 -435 
L 5018 -435 
L 5018 -6 
L 1670 -6 
L 1670 621 
L 4813 621 
L 4813 2010 
L 1139 2010 
L 1139 1587 
L 4288 1587 
L 4288 1018 
L 1152 1018 
L 1152 -6 
z
" transform="scale(0.015625)"/>
      <path id="NotoSansCJKkr-Regular-c577" d="M 4243 5293 
L 4243 -506 
L 4768 -506 
L 4768 2547 
L 5715 2547 
L 5715 2995 
L 4768 2995 
L 4768 5293 
L 4243 5293 
z
M 544 4755 
L 544 4320 
L 2630 4320 
L 2630 3110 
L 557 3110 
L 557 890 
L 1018 890 
C 2118 890 2886 934 3789 1101 
L 3738 1536 
C 2874 1376 2131 1338 1082 1338 
L 1082 2675 
L 3155 2675 
L 3155 4755 
L 544 4755 
z
" transform="scale(0.015625)"/>
      <path id="NotoSansCJKkr-Regular-d7cb" d="M 4531 5286 
L 4531 1920 
L 5062 1920 
L 5062 5286 
L 4531 5286 
z
M 1325 1613 
L 1325 -422 
L 5062 -422 
L 5062 1613 
L 1325 1613 
z
M 4544 1190 
L 4544 13 
L 1843 13 
L 1843 1190 
L 4544 1190 
z
M 538 4890 
L 538 4454 
L 1862 4454 
L 1862 4282 
C 1862 3462 1267 2720 397 2419 
L 672 1997 
C 1357 2246 1888 2758 2144 3411 
C 2400 2810 2925 2336 3590 2112 
L 3859 2528 
C 3002 2816 2400 3507 2400 4282 
L 2400 4454 
L 3706 4454 
L 3706 4890 
L 538 4890 
z
" transform="scale(0.015625)"/>
     </defs>
     <use xlink:href="#NotoSansCJKkr-Regular-35"/>
     <use xlink:href="#NotoSansCJKkr-Regular-b9fb" transform="translate(59.90625 0)"/>
     <use xlink:href="#NotoSansCJKkr-Regular-f684" transform="translate(151.90625 0)"/>
     <use xlink:href="#NotoSansCJKkr-Regular-d58c" transform="translate(179.90625 0)"/>
     <use xlink:href="#NotoSansCJKkr-Regular-d53f" transform="translate(271.90625 0)"/>
     <use xlink:href="#NotoSansCJKkr-Regular-d013" transform="translate(363.90625 0)"/>
     <use xlink:href="#NotoSansCJKkr-Regular-c658" transform="translate(455.90625 0)"/>
     <use xlink:href="#NotoSansCJKkr-Regular-f684" transform="translate(547.90625 0)"/>
     <use xlink:href="#NotoSansCJKkr-Regular-cb7f" transform="translate(575.90625 0)"/>
     <use xlink:href="#NotoSansCJKkr-Regular-e1e7" transform="translate(667.90625 0)"/>
     <use xlink:href="#NotoSansCJKkr-Regular-b9fb" transform="translate(759.90625 0)"/>
     <use xlink:href="#NotoSansCJKkr-Regular-f684" transform="translate(851.90625 0)"/>
     <use xlink:href="#NotoSansCJKkr-Regular-b9fb" transform="translate(879.90625 0)"/>
     <use xlink:href="#NotoSansCJKkr-Regular-e10f" transform="translate(971.90625 0)"/>
     <use xlink:href="#NotoSansCJKkr-Regular-c577" transform="translate(1063.90625 0)"/>
     <use xlink:href="#NotoSansCJKkr-Regular-d7cb" transform="translate(1155.90625 0)"/>
    </g>
    <!-- (T→0: one-hot, T→∞: 균등) -->
    <g transform="translate(117.318359 72.71425) scale(0.11 -0.11)">
     <defs>
      <path id="NotoSansCJKkr-Regular-31c" d="M 5190 2650 
L 256 2650 
L 256 2214 
L 5190 2214 
C 4864 1965 4442 1562 4154 1165 
L 4538 941 
C 4966 1504 5606 2067 6176 2432 
C 5606 2797 4966 3360 4538 3923 
L 4154 3699 
C 4442 3302 4864 2899 5190 2650 
z
" transform="scale(0.015625)"/>
      <path id="NotoSansCJKkr-Regular-f6b1" d="M 1779 -83 
C 2688 -83 3238 768 3238 2298 
C 3238 3821 2688 4646 1779 4646 
C 864 4646 320 3827 320 2298 
C 320 768 864 -83 1779 -83 
z
M 1779 390 
C 1248 390 883 960 883 2298 
C 883 3635 1248 4179 1779 4179 
C 2310 4179 2675 3635 2675 2298 
C 2675 960 2310 390 1779 390 
z
" transform="scale(0.015625)"/>
      <path id="NotoSansCJKkr-Regular-1b" d="M 890 2496 
C 1120 2496 1312 2675 1312 2944 
C 1312 3206 1120 3392 890 3392 
C 653 3392 467 3206 467 2944 
C 467 2675 653 2496 890 2496 
z
M 890 -83 
C 1120 -83 1312 96 1312 358 
C 1312 627 1120 806 890 806 
C 653 806 467 627 467 358 
C 467 96 653 -83 890 -83 
z
" transform="scale(0.015625)"/>
      <path id="NotoSansCJKkr-Regular-50" d="M 1939 -83 
C 2790 -83 3546 582 3546 1734 
C 3546 2893 2790 3565 1939 3565 
C 1088 3565 333 2893 333 1734 
C 333 582 1088 -83 1939 -83 
z
M 1939 403 
C 1338 403 934 934 934 1734 
C 934 2534 1338 3072 1939 3072 
C 2541 3072 2950 2534 2950 1734 
C 2950 934 2541 403 1939 403 
z
" transform="scale(0.015625)"/>
      <path id="NotoSansCJKkr-Regular-4f" d="M 589 0 
L 1178 0 
L 1178 2522 
C 1523 2874 1766 3053 2125 3053 
C 2586 3053 2784 2778 2784 2125 
L 2784 0 
L 3366 0 
L 3366 2202 
C 3366 3085 3034 3565 2304 3565 
C 1830 3565 1466 3302 1139 2970 
L 1126 2970 
L 1069 3475 
L 589 3475 
L 589 0 
z
" transform="scale(0.015625)"/>
      <path id="NotoSansCJKkr-Regular-e" d="M 294 1568 
L 1933 1568 
L 1933 2016 
L 294 2016 
L 294 1568 
z
" transform="scale(0.015625)"/>
      <path id="NotoSansCJKkr-Regular-49" d="M 589 0 
L 1178 0 
L 1178 2522 
C 1523 2874 1766 3053 2125 3053 
C 2586 3053 2784 2778 2784 2125 
L 2784 0 
L 3366 0 
L 3366 2202 
C 3366 3085 3034 3565 2304 3565 
C 1830 3565 1472 3302 1152 2982 
L 1178 3699 
L 1178 5094 
L 589 5094 
L 589 0 
z
" transform="scale(0.015625)"/>
      <path id="NotoSansCJKkr-Regular-d" d="M 480 -1216 
C 1056 -973 1414 -493 1414 122 
C 1414 550 1229 806 922 806 
C 685 806 480 653 480 397 
C 480 141 678 -13 909 -13 
L 979 -6 
C 973 -390 736 -698 339 -870 
L 480 -1216 
z
" transform="scale(0.015625)"/>
      <path id="NotoSansCJKkr-Regular-343" d="M 4870 3680 
C 4134 3680 3603 3258 3200 2752 
C 2797 3258 2266 3680 1523 3680 
C 902 3680 218 3251 218 2406 
C 218 1555 902 1126 1523 1126 
C 2266 1126 2797 1549 3200 2054 
C 3603 1549 4134 1126 4870 1126 
C 5491 1126 6176 1555 6176 2406 
C 6176 3251 5491 3680 4870 3680 
z
M 1517 1568 
C 1069 1568 659 1869 659 2406 
C 659 2938 1069 3238 1517 3238 
C 2099 3238 2554 2893 2918 2406 
C 2554 1914 2099 1568 1517 1568 
z
M 4883 1568 
C 4294 1568 3846 1914 3482 2406 
C 3846 2893 4294 3238 4883 3238 
C 5325 3238 5734 2938 5734 2406 
C 5734 1869 5325 1568 4883 1568 
z
" transform="scale(0.015625)"/>
      <path id="NotoSansCJKkr-Regular-bbdb" d="M 320 2810 
L 320 2374 
L 2061 2374 
L 2061 979 
L 2579 979 
L 2579 2374 
L 3597 2374 
L 3597 979 
L 4115 979 
L 4115 2374 
L 5568 2374 
L 5568 2810 
L 4755 2810 
C 4890 3526 4890 4077 4890 4538 
L 4890 4979 
L 979 4979 
L 979 4550 
L 4365 4550 
L 4365 4538 
C 4365 4070 4365 3539 4224 2810 
L 320 2810 
z
M 954 1446 
L 954 -371 
L 5043 -371 
L 5043 64 
L 1485 64 
L 1485 1446 
L 954 1446 
z
" transform="scale(0.015625)"/>
      <path id="NotoSansCJKkr-Regular-c2ec" d="M 320 2541 
L 320 2099 
L 5555 2099 
L 5555 2541 
L 320 2541 
z
M 2931 1600 
C 1696 1600 947 1222 947 557 
C 947 -109 1696 -486 2931 -486 
C 4166 -486 4909 -109 4909 557 
C 4909 1222 4166 1600 2931 1600 
z
M 2931 1184 
C 3834 1184 4378 954 4378 557 
C 4378 154 3834 -70 2931 -70 
C 2022 -70 1485 154 1485 557 
C 1485 954 2022 1184 2931 1184 
z
M 979 5062 
L 979 3085 
L 4941 3085 
L 4941 3520 
L 1504 3520 
L 1504 4627 
L 4902 4627 
L 4902 5062 
L 979 5062 
z
" transform="scale(0.015625)"/>
     </defs>
     <use xlink:href="#NotoSansCJKkr-Regular-9"/>
     <use xlink:href="#NotoSansCJKkr-Regular-35" transform="translate(33.796875 0)"/>
     <use xlink:href="#NotoSansCJKkr-Regular-31c" transform="translate(93.703125 0)"/>
     <use xlink:href="#NotoSansCJKkr-Regular-f6b1" transform="translate(193.703125 0)"/>
     <use xlink:href="#NotoSansCJKkr-Regular-1b" transform="translate(249.203125 0)"/>
     <use xlink:href="#NotoSansCJKkr-Regular-1" transform="translate(277 0)"/>
     <use xlink:href="#NotoSansCJKkr-Regular-50" transform="translate(299.40625 0)"/>
     <use xlink:href="#NotoSansCJKkr-Regular-4f" transform="translate(360 0)"/>
     <use xlink:href="#NotoSansCJKkr-Regular-46" transform="translate(421 0)"/>
     <use xlink:href="#NotoSansCJKkr-Regular-e" transform="translate(477.5 0)"/>
     <use xlink:href="#NotoSansCJKkr-Regular-49" transform="translate(512.203125 0)"/>
     <use xlink:href="#NotoSansCJKkr-Regular-50" transform="translate(572.90625 0)"/>
     <use xlink:href="#NotoSansCJKkr-Regular-55" transform="translate(631.59375 0)"/>
     <use xlink:href="#NotoSansCJKkr-Regular-d" transform="translate(670 0)"/>
     <use xlink:href="#NotoSansCJKkr-Regular-1" transform="translate(697.796875 0)"/>
     <use xlink:href="#NotoSansCJKkr-Regular-35" transform="translate(720.203125 0)"/>
     <use xlink:href="#NotoSansCJKkr-Regular-31c" transform="translate(780.109375 0)"/>
     <use xlink:href="#NotoSansCJKkr-Regular-343" transform="translate(880.109375 0)"/>
     <use xlink:href="#NotoSansCJKkr-Regular-1b" transform="translate(980.109375 0)"/>
     <use xlink:href="#NotoSansCJKkr-Regular-1" transform="translate(1007.90625 0)"/>
     <use xlink:href="#NotoSansCJKkr-Regular-bbdb" transform="translate(1030.3125 0)"/>
     <use xlink:href="#NotoSansCJKkr-Regular-c2ec" transform="translate(1122.3125 0)"/>
     <use xlink:href="#NotoSansCJKkr-Regular-a" transform="translate(1214.3125 0)"/>
    </g>
   </g>
  </g>
  <g id="axes_2">
   <g id="patch_7">
    <path d="M 382.628437 245.528 
L 668.879062 245.528 
L 668.879062 78.71425 
L 382.628437 78.71425 
z
" style="fill: #ffffff"/>
   </g>
   <g id="patch_8">
    <path d="M 395.63983 245.528 
L 413.539099 245.528 
L 413.539099 86.657762 
L 395.63983 86.657762 
z
" clip-path="url(#ped672102d2)" style="fill: #1f77b4"/>
   </g>
   <g id="patch_9">
    <path d="M 464.483174 245.528 
L 482.382443 245.528 
L 482.382443 224.027251 
L 464.483174 224.027251 
z
" clip-path="url(#ped672102d2)" style="fill: #1f77b4"/>
   </g>
   <g id="patch_10">
    <path d="M 533.326518 245.528 
L 551.225787 245.528 
L 551.225787 237.618317 
L 533.326518 237.618317 
z
" clip-path="url(#ped672102d2)" style="fill: #1f77b4"/>
   </g>
   <g id="patch_11">
    <path d="M 602.169862 245.528 
L 620.069131 245.528 
L 620.069131 241.187074 
L 602.169862 241.187074 
z
" clip-path="url(#ped672102d2)" style="fill: #1f77b4"/>
   </g>
   <g id="patch_12">
    <path d="M 413.539099 245.528 
L 431.438369 245.528 
L 431.438369 135.853875 
L 413.539099 135.853875 
z
" clip-path="url(#ped672102d2)" style="fill: #ff7f0e"/>
   </g>
   <g id="patch_13">
    <path d="M 482.382443 245.528 
L 500.281713 245.528 
L 500.281713 205.181144 
L 482.382443 205.181144 
z
" clip-path="url(#ped672102d2)" style="fill: #ff7f0e"/>
   </g>
   <g id="patch_14">
    <path d="M 551.225787 245.528 
L 569.125057 245.528 
L 569.125057 221.056395 
L 551.225787 221.056395 
z
" clip-path="url(#ped672102d2)" style="fill: #ff7f0e"/>
   </g>
   <g id="patch_15">
    <path d="M 620.069131 245.528 
L 637.968401 245.528 
L 637.968401 227.398989 
L 620.069131 227.398989 
z
" clip-path="url(#ped672102d2)" style="fill: #ff7f0e"/>
   </g>
   <g id="patch_16">
    <path d="M 431.438369 245.528 
L 449.337638 245.528 
L 449.337638 168.028839 
L 431.438369 168.028839 
z
" clip-path="url(#ped672102d2)" style="fill: #2ca02c"/>
   </g>
   <g id="patch_17">
    <path d="M 500.281713 245.528 
L 518.180982 245.528 
L 518.180982 198.522383 
L 500.281713 198.522383 
z
" clip-path="url(#ped672102d2)" style="fill: #2ca02c"/>
   </g>
   <g id="patch_18">
    <path d="M 569.125057 245.528 
L 587.024326 245.528 
L 587.024326 208.919989 
L 569.125057 208.919989 
z
" clip-path="url(#ped672102d2)" style="fill: #2ca02c"/>
   </g>
   <g id="patch_19">
    <path d="M 637.968401 245.528 
L 655.86767 245.528 
L 655.86767 214.019193 
L 637.968401 214.019193 
z
" clip-path="url(#ped672102d2)" style="fill: #2ca02c"/>
   </g>
   <g id="matplotlib.axis_3">
    <g id="xtick_7">
     <g id="line2d_27">
      <g>
       <use xlink:href="#m30fc7d5c6f" x="440.388003" y="245.528" style="stroke: #000000; stroke-width: 0.8"/>
      </g>
     </g>
     <g id="text_16">
      <!-- t1 -->
      <g transform="translate(435.727847 261.328) scale(0.1 -0.1)">
       <defs>
        <path id="NotoSansCJKkr-Regular-f6b2" d="M 563 0 
L 3136 0 
L 3136 486 
L 2195 486 
L 2195 4563 
L 1747 4563 
C 1491 4410 1190 4301 774 4224 
L 774 3853 
L 1613 3853 
L 1613 486 
L 563 486 
L 563 0 
z
" transform="scale(0.015625)"/>
       </defs>
       <use xlink:href="#NotoSansCJKkr-Regular-55"/>
       <use xlink:href="#NotoSansCJKkr-Regular-f6b2" transform="translate(37.703125 0)"/>
      </g>
     </g>
    </g>
    <g id="xtick_8">
     <g id="line2d_28">
      <g>
       <use xlink:href="#m30fc7d5c6f" x="509.231347" y="245.528" style="stroke: #000000; stroke-width: 0.8"/>
      </g>
     </g>
     <g id="text_17">
      <!-- t2 -->
      <g transform="translate(504.571191 261.328) scale(0.1 -0.1)">
       <defs>
        <path id="NotoSansCJKkr-Regular-f6b3" d="M 282 0 
L 3232 0 
L 3232 506 
L 1907 506 
C 1670 506 1382 480 1139 461 
C 2221 1594 3008 2451 3008 3309 
C 3008 4115 2477 4646 1638 4646 
C 1043 4646 634 4378 256 3955 
L 595 3629 
C 858 3930 1184 4173 1568 4173 
C 2150 4173 2432 3802 2432 3283 
C 2432 2534 1658 1715 282 346 
L 282 0 
z
" transform="scale(0.015625)"/>
       </defs>
       <use xlink:href="#NotoSansCJKkr-Regular-55"/>
       <use xlink:href="#NotoSansCJKkr-Regular-f6b3" transform="translate(37.703125 0)"/>
      </g>
     </g>
    </g>
    <g id="xtick_9">
     <g id="line2d_29">
      <g>
       <use xlink:href="#m30fc7d5c6f" x="578.074692" y="245.528" style="stroke: #000000; stroke-width: 0.8"/>
      </g>
     </g>
     <g id="text_18">
      <!-- t3 -->
      <g transform="translate(573.414535 261.328) scale(0.1 -0.1)">
       <defs>
        <path id="NotoSansCJKkr-Regular-f6b4" d="M 1683 -83 
C 2522 -83 3194 403 3194 1216 
C 3194 1843 2752 2246 2202 2381 
L 2202 2406 
C 2694 2586 3034 2938 3034 3494 
C 3034 4224 2458 4646 1664 4646 
C 1126 4646 710 4403 358 4077 
L 672 3706 
C 941 3981 1267 4173 1645 4173 
C 2138 4173 2438 3891 2438 3450 
C 2438 2970 2112 2598 1139 2598 
L 1139 2144 
C 2227 2144 2598 1786 2598 1242 
C 2598 723 2208 403 1645 403 
C 1114 403 762 659 486 941 
L 186 563 
C 493 224 954 -83 1683 -83 
z
" transform="scale(0.015625)"/>
       </defs>
       <use xlink:href="#NotoSansCJKkr-Regular-55"/>
       <use xlink:href="#NotoSansCJKkr-Regular-f6b4" transform="translate(37.703125 0)"/>
      </g>
     </g>
    </g>
    <g id="xtick_10">
     <g id="line2d_30">
      <g>
       <use xlink:href="#m30fc7d5c6f" x="646.918036" y="245.528" style="stroke: #000000; stroke-width: 0.8"/>
      </g>
     </g>
     <g id="text_19">
      <!-- t4 -->
      <g transform="translate(642.257879 261.328) scale(0.1 -0.1)">
       <defs>
        <path id="NotoSansCJKkr-Regular-f6b5" d="M 2176 0 
L 2726 0 
L 2726 1261 
L 3354 1261 
L 3354 1728 
L 2726 1728 
L 2726 4563 
L 2080 4563 
L 128 1645 
L 128 1261 
L 2176 1261 
L 2176 0 
z
M 2176 1728 
L 736 1728 
L 1805 3290 
C 1939 3520 2067 3718 2182 3936 
L 2208 3936 
C 2195 3699 2176 3296 2176 3066 
L 2176 1728 
z
" transform="scale(0.015625)"/>
       </defs>
       <use xlink:href="#NotoSansCJKkr-Regular-55"/>
       <use xlink:href="#NotoSansCJKkr-Regular-f6b5" transform="translate(37.703125 0)"/>
      </g>
     </g>
    </g>
   </g>
   <g id="matplotlib.axis_4">
    <g id="ytick_7">
     <g id="line2d_31">
      <path d="M 382.628437 245.528 
L 668.879062 245.528 
" clip-path="url(#ped672102d2)" style="fill: none; stroke: #b0b0b0; stroke-opacity: 0.3; stroke-width: 0.8; stroke-linecap: square"/>
     </g>
     <g id="line2d_32">
      <g>
       <use xlink:href="#m1fa7b70d25" x="382.628437" y="245.528" style="stroke: #000000; stroke-width: 0.8"/>
      </g>
     </g>
     <g id="text_20">
      <!-- 0.0 -->
      <g transform="translate(361.74875 249.928) scale(0.1 -0.1)">
       <use xlink:href="#NotoSansCJKkr-Regular-11"/>
       <use xlink:href="#NotoSansCJKkr-Regular-f" transform="translate(55.5 0)"/>
       <use xlink:href="#NotoSansCJKkr-Regular-11" transform="translate(83.296875 0)"/>
      </g>
     </g>
    </g>
    <g id="ytick_8">
     <g id="line2d_33">
      <path d="M 382.628437 207.003681 
L 668.879062 207.003681 
" clip-path="url(#ped672102d2)" style="fill: none; stroke: #b0b0b0; stroke-opacity: 0.3; stroke-width: 0.8; stroke-linecap: square"/>
     </g>
     <g id="line2d_34">
      <g>
       <use xlink:href="#m1fa7b70d25" x="382.628437" y="207.003681" style="stroke: #000000; stroke-width: 0.8"/>
      </g>
     </g>
     <g id="text_21">
      <!-- 0.2 -->
      <g transform="translate(361.74875 211.403681) scale(0.1 -0.1)">
       <use xlink:href="#NotoSansCJKkr-Regular-11"/>
       <use xlink:href="#NotoSansCJKkr-Regular-f" transform="translate(55.5 0)"/>
       <use xlink:href="#NotoSansCJKkr-Regular-13" transform="translate(83.296875 0)"/>
      </g>
     </g>
    </g>
    <g id="ytick_9">
     <g id="line2d_35">
      <path d="M 382.628437 168.479361 
L 668.879062 168.479361 
" clip-path="url(#ped672102d2)" style="fill: none; stroke: #b0b0b0; stroke-opacity: 0.3; stroke-width: 0.8; stroke-linecap: square"/>
     </g>
     <g id="line2d_36">
      <g>
       <use xlink:href="#m1fa7b70d25" x="382.628437" y="168.479361" style="stroke: #000000; stroke-width: 0.8"/>
      </g>
     </g>
     <g id="text_22">
      <!-- 0.4 -->
      <g transform="translate(361.74875 172.879361) scale(0.1 -0.1)">
       <use xlink:href="#NotoSansCJKkr-Regular-11"/>
       <use xlink:href="#NotoSansCJKkr-Regular-f" transform="translate(55.5 0)"/>
       <use xlink:href="#NotoSansCJKkr-Regular-15" transform="translate(83.296875 0)"/>
      </g>
     </g>
    </g>
    <g id="ytick_10">
     <g id="line2d_37">
      <path d="M 382.628437 129.955042 
L 668.879062 129.955042 
" clip-path="url(#ped672102d2)" style="fill: none; stroke: #b0b0b0; stroke-opacity: 0.3; stroke-width: 0.8; stroke-linecap: square"/>
     </g>
     <g id="line2d_38">
      <g>
       <use xlink:href="#m1fa7b70d25" x="382.628437" y="129.955042" style="stroke: #000000; stroke-width: 0.8"/>
      </g>
     </g>
     <g id="text_23">
      <!-- 0.6 -->
      <g transform="translate(361.74875 134.355042) scale(0.1 -0.1)">
       <use xlink:href="#NotoSansCJKkr-Regular-11"/>
       <use xlink:href="#NotoSansCJKkr-Regular-f" transform="translate(55.5 0)"/>
       <use xlink:href="#NotoSansCJKkr-Regular-17" transform="translate(83.296875 0)"/>
      </g>
     </g>
    </g>
    <g id="ytick_11">
     <g id="line2d_39">
      <path d="M 382.628437 91.430723 
L 668.879062 91.430723 
" clip-path="url(#ped672102d2)" style="fill: none; stroke: #b0b0b0; stroke-opacity: 0.3; stroke-width: 0.8; stroke-linecap: square"/>
     </g>
     <g id="line2d_40">
      <g>
       <use xlink:href="#m1fa7b70d25" x="382.628437" y="91.430723" style="stroke: #000000; stroke-width: 0.8"/>
      </g>
     </g>
     <g id="text_24">
      <!-- 0.8 -->
      <g transform="translate(361.74875 95.830723) scale(0.1 -0.1)">
       <use xlink:href="#NotoSansCJKkr-Regular-11"/>
       <use xlink:href="#NotoSansCJKkr-Regular-f" transform="translate(55.5 0)"/>
       <use xlink:href="#NotoSansCJKkr-Regular-19" transform="translate(83.296875 0)"/>
      </g>
     </g>
    </g>
    <g id="text_25">
     <!-- 확률 -->
     <g transform="translate(356.54875 171.321125) rotate(-90) scale(0.1 -0.1)">
      <defs>
       <path id="NotoSansCJKkr-Regular-e450" d="M 998 1114 
L 998 691 
L 4275 691 
L 4275 -499 
L 4806 -499 
L 4806 1114 
L 998 1114 
z
M 2093 3776 
C 2611 3776 2938 3597 2938 3290 
C 2938 2995 2611 2797 2093 2797 
C 1574 2797 1248 2995 1248 3290 
C 1248 3597 1574 3776 2093 3776 
z
M 2093 4147 
C 1280 4147 742 3821 742 3290 
C 742 2816 1171 2509 1837 2445 
L 1837 2022 
C 1280 2003 749 2003 288 2003 
L 352 1574 
C 1363 1574 2733 1581 3968 1805 
L 3930 2182 
C 3430 2112 2893 2067 2362 2042 
L 2362 2445 
C 3021 2509 3443 2822 3443 3290 
C 3443 3821 2906 4147 2093 4147 
z
M 4275 5286 
L 4275 1408 
L 4806 1408 
L 4806 3098 
L 5651 3098 
L 5651 3539 
L 4806 3539 
L 4806 5286 
L 4275 5286 
z
M 1837 5338 
L 1837 4768 
L 435 4768 
L 435 4365 
L 3757 4365 
L 3757 4768 
L 2362 4768 
L 2362 5338 
L 1837 5338 
z
" transform="scale(0.015625)"/>
       <path id="NotoSansCJKkr-Regular-c75b" d="M 954 -51 
L 954 -435 
L 5094 -435 
L 5094 -51 
L 1478 -51 
L 1478 493 
L 4909 493 
L 4909 1728 
L 4154 1728 
L 4154 2246 
L 5562 2246 
L 5562 2650 
L 314 2650 
L 314 2246 
L 1728 2246 
L 1728 1728 
L 941 1728 
L 941 1344 
L 4384 1344 
L 4384 858 
L 954 858 
L 954 -51 
z
M 2253 2246 
L 3629 2246 
L 3629 1728 
L 2253 1728 
L 2253 2246 
z
M 992 3437 
L 992 3053 
L 4992 3053 
L 4992 3437 
L 1517 3437 
L 1517 3923 
L 4890 3923 
L 4890 5126 
L 979 5126 
L 979 4749 
L 4365 4749 
L 4365 4282 
L 992 4282 
L 992 3437 
z
" transform="scale(0.015625)"/>
      </defs>
      <use xlink:href="#NotoSansCJKkr-Regular-e450"/>
      <use xlink:href="#NotoSansCJKkr-Regular-c75b" transform="translate(92 0)"/>
     </g>
    </g>
   </g>
   <g id="patch_20">
    <path d="M 382.628437 245.528 
L 382.628437 78.71425 
" style="fill: none; stroke: #000000; stroke-width: 0.8; stroke-linejoin: miter; stroke-linecap: square"/>
   </g>
   <g id="patch_21">
    <path d="M 668.879062 245.528 
L 668.879062 78.71425 
" style="fill: none; stroke: #000000; stroke-width: 0.8; stroke-linejoin: miter; stroke-linecap: square"/>
   </g>
   <g id="patch_22">
    <path d="M 382.628437 245.528 
L 668.879062 245.528 
" style="fill: none; stroke: #000000; stroke-width: 0.8; stroke-linejoin: miter; stroke-linecap: square"/>
   </g>
   <g id="patch_23">
    <path d="M 382.628437 78.71425 
L 668.879062 78.71425 
" style="fill: none; stroke: #000000; stroke-width: 0.8; stroke-linejoin: miter; stroke-linecap: square"/>
   </g>
   <g id="text_26">
    <!-- 같은 logits [2.0, 1.0, 0.5, 0.2] -->
    <g transform="translate(456.535391 60.28425) scale(0.11 -0.11)">
     <defs>
      <path id="NotoSansCJKkr-Regular-ba14" d="M 4282 5293 
L 4282 2202 
L 4813 2202 
L 4813 3507 
L 5664 3507 
L 5664 3949 
L 4813 3949 
L 4813 5293 
L 4282 5293 
z
M 582 4883 
L 582 4454 
L 2675 4454 
C 2598 3558 1792 2835 339 2522 
L 557 2086 
C 2253 2477 3264 3430 3264 4883 
L 582 4883 
z
M 1165 -13 
L 1165 -422 
L 4973 -422 
L 4973 -13 
L 1696 -13 
L 1696 576 
L 4774 576 
L 4774 973 
L 1696 973 
L 1696 1536 
L 4838 1536 
L 4838 1939 
L 1165 1939 
L 1165 -13 
z
" transform="scale(0.015625)"/>
      <path id="NotoSansCJKkr-Regular-d53b" d="M 320 2246 
L 320 1818 
L 5549 1818 
L 5549 2246 
L 320 2246 
z
M 2931 5094 
C 1690 5094 896 4666 896 3942 
C 896 3219 1690 2784 2931 2784 
C 4173 2784 4966 3219 4966 3942 
C 4966 4666 4173 5094 2931 5094 
z
M 2931 4666 
C 3846 4666 4422 4390 4422 3942 
C 4422 3488 3846 3219 2931 3219 
C 2022 3219 1440 3488 1440 3942 
C 1440 4390 2022 4666 2931 4666 
z
M 992 1306 
L 992 -371 
L 4966 -371 
L 4966 64 
L 1523 64 
L 1523 1306 
L 992 1306 
z
" transform="scale(0.015625)"/>
      <path id="NotoSansCJKkr-Regular-4d" d="M 1203 -83 
C 1363 -83 1459 -58 1542 -32 
L 1459 416 
C 1395 403 1370 403 1338 403 
C 1248 403 1178 474 1178 653 
L 1178 5094 
L 589 5094 
L 589 691 
C 589 198 768 -83 1203 -83 
z
" transform="scale(0.015625)"/>
      <path id="NotoSansCJKkr-Regular-48" d="M 1760 -1600 
C 2835 -1600 3520 -1043 3520 -397 
C 3520 179 3110 429 2310 429 
L 1626 429 
C 1158 429 1018 589 1018 806 
C 1018 998 1114 1114 1242 1222 
C 1395 1146 1587 1101 1754 1101 
C 2470 1101 3027 1568 3027 2310 
C 3027 2611 2912 2867 2746 3027 
L 3456 3027 
L 3456 3475 
L 2246 3475 
C 2125 3526 1952 3565 1754 3565 
C 1056 3565 454 3085 454 2323 
C 454 1907 678 1568 909 1389 
L 909 1363 
C 723 1235 525 1005 525 717 
C 525 442 659 256 838 147 
L 838 115 
C 512 -83 326 -371 326 -672 
C 326 -1267 915 -1600 1760 -1600 
z
M 1754 1498 
C 1357 1498 1018 1818 1018 2323 
C 1018 2835 1350 3136 1754 3136 
C 2170 3136 2496 2835 2496 2323 
C 2496 1818 2157 1498 1754 1498 
z
M 1843 -1197 
C 1210 -1197 838 -960 838 -589 
C 838 -390 941 -179 1190 0 
C 1344 -38 1510 -51 1638 -51 
L 2240 -51 
C 2701 -51 2944 -166 2944 -493 
C 2944 -851 2515 -1197 1843 -1197 
z
" transform="scale(0.015625)"/>
      <path id="NotoSansCJKkr-Regular-4a" d="M 589 0 
L 1178 0 
L 1178 3475 
L 589 3475 
L 589 0 
z
M 883 4192 
C 1114 4192 1274 4346 1274 4582 
C 1274 4806 1114 4960 883 4960 
C 653 4960 499 4806 499 4582 
C 499 4346 653 4192 883 4192 
z
" transform="scale(0.015625)"/>
      <path id="NotoSansCJKkr-Regular-54" d="M 1498 -83 
C 2317 -83 2758 384 2758 947 
C 2758 1606 2208 1811 1702 2003 
C 1312 2150 954 2278 954 2605 
C 954 2880 1158 3110 1600 3110 
C 1907 3110 2150 2976 2387 2803 
L 2669 3168 
C 2406 3386 2022 3565 1594 3565 
C 832 3565 397 3130 397 2579 
C 397 1984 922 1754 1408 1574 
C 1792 1434 2202 1267 2202 915 
C 2202 614 1978 371 1517 371 
C 1101 371 794 538 486 787 
L 205 397 
C 531 122 1005 -83 1498 -83 
z
" transform="scale(0.015625)"/>
      <path id="NotoSansCJKkr-Regular-3c" d="M 678 -1088 
L 1946 -1088 
L 1946 -755 
L 1114 -755 
L 1114 4730 
L 1946 4730 
L 1946 5069 
L 678 5069 
L 678 -1088 
z
" transform="scale(0.015625)"/>
      <path id="NotoSansCJKkr-Regular-f6b6" d="M 1677 -83 
C 2464 -83 3213 474 3213 1459 
C 3213 2445 2573 2886 1798 2886 
C 1517 2886 1306 2822 1094 2701 
L 1216 4058 
L 2982 4058 
L 2982 4563 
L 704 4563 
L 550 2368 
L 864 2170 
C 1133 2349 1331 2451 1645 2451 
C 2234 2451 2618 2074 2618 1440 
C 2618 806 2176 403 1619 403 
C 1075 403 730 653 467 922 
L 173 538 
C 493 224 941 -83 1677 -83 
z
" transform="scale(0.015625)"/>
      <path id="NotoSansCJKkr-Regular-3e" d="M 218 -1088 
L 1491 -1088 
L 1491 5069 
L 218 5069 
L 218 4730 
L 1050 4730 
L 1050 -755 
L 218 -755 
L 218 -1088 
z
" transform="scale(0.015625)"/>
     </defs>
     <use xlink:href="#NotoSansCJKkr-Regular-ba14"/>
     <use xlink:href="#NotoSansCJKkr-Regular-d53b" transform="translate(92 0)"/>
     <use xlink:href="#NotoSansCJKkr-Regular-1" transform="translate(184 0)"/>
     <use xlink:href="#NotoSansCJKkr-Regular-4d" transform="translate(206.40625 0)"/>
     <use xlink:href="#NotoSansCJKkr-Regular-50" transform="translate(234.8125 0)"/>
     <use xlink:href="#NotoSansCJKkr-Regular-48" transform="translate(295.40625 0)"/>
     <use xlink:href="#NotoSansCJKkr-Regular-4a" transform="translate(351.8125 0)"/>
     <use xlink:href="#NotoSansCJKkr-Regular-55" transform="translate(379.3125 0)"/>
     <use xlink:href="#NotoSansCJKkr-Regular-54" transform="translate(415.921875 0)"/>
     <use xlink:href="#NotoSansCJKkr-Regular-1" transform="translate(462.71875 0)"/>
     <use xlink:href="#NotoSansCJKkr-Regular-3c" transform="translate(485.125 0)"/>
     <use xlink:href="#NotoSansCJKkr-Regular-f6b3" transform="translate(518.921875 0)"/>
     <use xlink:href="#NotoSansCJKkr-Regular-f" transform="translate(574.421875 0)"/>
     <use xlink:href="#NotoSansCJKkr-Regular-f6b1" transform="translate(602.21875 0)"/>
     <use xlink:href="#NotoSansCJKkr-Regular-d" transform="translate(657.71875 0)"/>
     <use xlink:href="#NotoSansCJKkr-Regular-1" transform="translate(685.515625 0)"/>
     <use xlink:href="#NotoSansCJKkr-Regular-f6b2" transform="translate(707.921875 0)"/>
     <use xlink:href="#NotoSansCJKkr-Regular-f" transform="translate(763.421875 0)"/>
     <use xlink:href="#NotoSansCJKkr-Regular-f6b1" transform="translate(791.21875 0)"/>
     <use xlink:href="#NotoSansCJKkr-Regular-d" transform="translate(846.71875 0)"/>
     <use xlink:href="#NotoSansCJKkr-Regular-1" transform="translate(874.515625 0)"/>
     <use xlink:href="#NotoSansCJKkr-Regular-f6b1" transform="translate(896.921875 0)"/>
     <use xlink:href="#NotoSansCJKkr-Regular-f" transform="translate(952.421875 0)"/>
     <use xlink:href="#NotoSansCJKkr-Regular-f6b6" transform="translate(980.21875 0)"/>
     <use xlink:href="#NotoSansCJKkr-Regular-d" transform="translate(1035.71875 0)"/>
     <use xlink:href="#NotoSansCJKkr-Regular-1" transform="translate(1063.515625 0)"/>
     <use xlink:href="#NotoSansCJKkr-Regular-f6b1" transform="translate(1085.921875 0)"/>
     <use xlink:href="#NotoSansCJKkr-Regular-f" transform="translate(1141.421875 0)"/>
     <use xlink:href="#NotoSansCJKkr-Regular-f6b3" transform="translate(1169.21875 0)"/>
     <use xlink:href="#NotoSansCJKkr-Regular-3e" transform="translate(1224.71875 0)"/>
    </g>
    <!-- T가 크면 분포가 평탄해짐 -->
    <g transform="translate(467.238906 72.71425) scale(0.11 -0.11)">
     <defs>
      <path id="NotoSansCJKkr-Regular-de67" d="M 320 749 
L 320 307 
L 5549 307 
L 5549 749 
L 320 749 
z
M 947 4704 
L 947 4269 
L 4390 4269 
L 4390 3994 
C 4390 3699 4390 3405 4378 3098 
L 787 2944 
L 864 2509 
L 4358 2694 
C 4326 2246 4262 1773 4134 1222 
L 4666 1171 
C 4909 2355 4909 3142 4909 3994 
L 4909 4704 
L 947 4704 
z
" transform="scale(0.015625)"/>
      <path id="NotoSansCJKkr-Regular-c86f" d="M 2707 4358 
L 2707 2502 
L 1107 2502 
L 1107 4358 
L 2707 4358 
z
M 3226 3834 
L 4550 3834 
L 4550 3034 
L 3226 3034 
L 3226 3834 
z
M 4550 5286 
L 4550 4275 
L 3226 4275 
L 3226 4787 
L 589 4787 
L 589 2080 
L 3226 2080 
L 3226 2598 
L 4550 2598 
L 4550 1062 
L 5082 1062 
L 5082 5286 
L 4550 5286 
z
M 1363 1440 
L 1363 -371 
L 5216 -371 
L 5216 64 
L 1894 64 
L 1894 1440 
L 1363 1440 
z
" transform="scale(0.015625)"/>
      <path id="NotoSansCJKkr-Regular-e1c4" d="M 3174 1600 
C 1971 1600 1248 1222 1248 557 
C 1248 -102 1971 -486 3174 -486 
C 4378 -486 5101 -102 5101 557 
C 5101 1222 4378 1600 3174 1600 
z
M 3174 1184 
C 4051 1184 4576 954 4576 557 
C 4576 160 4051 -70 3174 -70 
C 2298 -70 1773 160 1773 557 
C 1773 954 2298 1184 3174 1184 
z
M 4550 5293 
L 4550 4256 
L 3597 4256 
L 3597 3827 
L 4550 3827 
L 4550 3219 
L 3597 3219 
L 3597 2784 
L 4550 2784 
L 4550 1722 
L 5082 1722 
L 5082 5293 
L 4550 5293 
z
M 397 2061 
C 1331 2061 2630 2080 3744 2259 
L 3718 2656 
C 3475 2624 3226 2605 2963 2586 
L 2963 4422 
L 3539 4422 
L 3539 4858 
L 493 4858 
L 493 4422 
L 1062 4422 
L 1062 2515 
L 333 2509 
L 397 2061 
z
M 1581 4422 
L 2451 4422 
L 2451 2554 
L 1581 2522 
L 1581 4422 
z
" transform="scale(0.015625)"/>
      <path id="NotoSansCJKkr-Regular-debf" d="M 582 4826 
L 582 1882 
L 1024 1882 
C 2208 1882 2874 1907 3661 2054 
L 3603 2477 
C 2854 2349 2227 2317 1114 2317 
L 1114 3168 
L 3123 3168 
L 3123 3597 
L 1114 3597 
L 1114 4397 
L 3226 4397 
L 3226 4826 
L 582 4826 
z
M 4282 5293 
L 4282 1005 
L 4813 1005 
L 4813 3053 
L 5664 3053 
L 5664 3494 
L 4813 3494 
L 4813 5293 
L 4282 5293 
z
M 1210 1389 
L 1210 -371 
L 5069 -371 
L 5069 64 
L 1734 64 
L 1734 1389 
L 1210 1389 
z
" transform="scale(0.015625)"/>
      <path id="NotoSansCJKkr-Regular-e36f" d="M 1747 3482 
C 1030 3482 506 2938 506 2163 
C 506 1382 1030 838 1747 838 
C 2470 838 2989 1382 2989 2163 
C 2989 2938 2470 3482 1747 3482 
z
M 1747 3034 
C 2195 3034 2515 2669 2515 2163 
C 2515 1651 2195 1293 1747 1293 
C 1299 1293 979 1651 979 2163 
C 979 2669 1299 3034 1747 3034 
z
M 1485 5120 
L 1485 4301 
L 307 4301 
L 307 3866 
L 3181 3866 
L 3181 4301 
L 2010 4301 
L 2010 5120 
L 1485 5120 
z
M 3469 5158 
L 3469 -218 
L 3968 -218 
L 3968 2419 
L 4710 2419 
L 4710 -499 
L 5216 -499 
L 5216 5293 
L 4710 5293 
L 4710 2854 
L 3968 2854 
L 3968 5158 
L 3469 5158 
z
" transform="scale(0.015625)"/>
     </defs>
     <use xlink:href="#NotoSansCJKkr-Regular-35"/>
     <use xlink:href="#NotoSansCJKkr-Regular-b9fb" transform="translate(59.90625 0)"/>
     <use xlink:href="#NotoSansCJKkr-Regular-f684" transform="translate(151.90625 0)"/>
     <use xlink:href="#NotoSansCJKkr-Regular-de67" transform="translate(179.90625 0)"/>
     <use xlink:href="#NotoSansCJKkr-Regular-c86f" transform="translate(271.90625 0)"/>
     <use xlink:href="#NotoSansCJKkr-Regular-f684" transform="translate(363.90625 0)"/>
     <use xlink:href="#NotoSansCJKkr-Regular-cb7f" transform="translate(391.90625 0)"/>
     <use xlink:href="#NotoSansCJKkr-Regular-e1e7" transform="translate(483.90625 0)"/>
     <use xlink:href="#NotoSansCJKkr-Regular-b9fb" transform="translate(575.90625 0)"/>
     <use xlink:href="#NotoSansCJKkr-Regular-f684" transform="translate(667.90625 0)"/>
     <use xlink:href="#NotoSansCJKkr-Regular-e1c4" transform="translate(695.90625 0)"/>
     <use xlink:href="#NotoSansCJKkr-Regular-debf" transform="translate(787.90625 0)"/>
     <use xlink:href="#NotoSansCJKkr-Regular-e36f" transform="translate(879.90625 0)"/>
     <use xlink:href="#NotoSansCJKkr-Regular-d7cb" transform="translate(971.90625 0)"/>
    </g>
   </g>
   <g id="legend_1">
    <g id="patch_24">
     <path d="M 610.900781 126.41425 
L 662.579063 126.41425 
Q 664.379063 126.41425 664.379063 124.61425 
L 664.379063 85.01425 
Q 664.379063 83.21425 662.579063 83.21425 
L 610.900781 83.21425 
Q 609.100781 83.21425 609.100781 85.01425 
L 609.100781 124.61425 
Q 609.100781 126.41425 610.900781 126.41425 
z
" style="fill: #ffffff; opacity: 0.8; stroke: #cccccc; stroke-linejoin: miter"/>
    </g>
    <g id="patch_25">
     <path d="M 612.700781 94.73425 
L 630.700781 94.73425 
L 630.700781 88.43425 
L 612.700781 88.43425 
z
" style="fill: #1f77b4"/>
    </g>
    <g id="text_27">
     <!-- T=0.5 -->
     <g transform="translate(637.900781 94.73425) scale(0.09 -0.09)">
      <defs>
       <path id="NotoSansCJKkr-Regular-1e" d="M 243 2912 
L 3315 2912 
L 3315 3347 
L 243 3347 
L 243 2912 
z
M 243 1376 
L 3315 1376 
L 3315 1811 
L 243 1811 
L 243 1376 
z
" transform="scale(0.015625)"/>
      </defs>
      <use xlink:href="#NotoSansCJKkr-Regular-35"/>
      <use xlink:href="#NotoSansCJKkr-Regular-1e" transform="translate(59.90625 0)"/>
      <use xlink:href="#NotoSansCJKkr-Regular-f6b1" transform="translate(115.40625 0)"/>
      <use xlink:href="#NotoSansCJKkr-Regular-f" transform="translate(170.90625 0)"/>
      <use xlink:href="#NotoSansCJKkr-Regular-f6b6" transform="translate(198.703125 0)"/>
     </g>
    </g>
    <g id="patch_26">
     <path d="M 612.700781 108.23425 
L 630.700781 108.23425 
L 630.700781 101.93425 
L 612.700781 101.93425 
z
" style="fill: #ff7f0e"/>
    </g>
    <g id="text_28">
     <!-- T=1.0 -->
     <g transform="translate(637.900781 108.23425) scale(0.09 -0.09)">
      <use xlink:href="#NotoSansCJKkr-Regular-35"/>
      <use xlink:href="#NotoSansCJKkr-Regular-1e" transform="translate(59.90625 0)"/>
      <use xlink:href="#NotoSansCJKkr-Regular-f6b2" transform="translate(115.40625 0)"/>
      <use xlink:href="#NotoSansCJKkr-Regular-f" transform="translate(170.90625 0)"/>
      <use xlink:href="#NotoSansCJKkr-Regular-f6b1" transform="translate(198.703125 0)"/>
     </g>
    </g>
    <g id="patch_27">
     <path d="M 612.700781 121.73425 
L 630.700781 121.73425 
L 630.700781 115.43425 
L 612.700781 115.43425 
z
" style="fill: #2ca02c"/>
    </g>
    <g id="text_29">
     <!-- T=2.0 -->
     <g transform="translate(637.900781 121.73425) scale(0.09 -0.09)">
      <use xlink:href="#NotoSansCJKkr-Regular-35"/>
      <use xlink:href="#NotoSansCJKkr-Regular-1e" transform="translate(59.90625 0)"/>
      <use xlink:href="#NotoSansCJKkr-Regular-f6b3" transform="translate(115.40625 0)"/>
      <use xlink:href="#NotoSansCJKkr-Regular-f" transform="translate(170.90625 0)"/>
      <use xlink:href="#NotoSansCJKkr-Regular-f6b1" transform="translate(198.703125 0)"/>
     </g>
    </g>
   </g>
  </g>
  <g id="text_30">
   <!-- temperature — '선택지 폭'을 조절하는 매개변수 -->
   <g transform="translate(214.449375 17.76) scale(0.12 -0.12)">
    <defs>
     <path id="NotoSansCJKkr-Regular-2d2" d="M 294 1600 
L 5421 1600 
L 5421 1997 
L 294 1997 
L 294 1600 
z
" transform="scale(0.015625)"/>
     <path id="NotoSansCJKkr-Regular-8" d="M 704 3091 
L 1069 3091 
L 1178 4282 
L 1190 4934 
L 576 4934 
L 589 4282 
L 704 3091 
z
" transform="scale(0.015625)"/>
     <path id="NotoSansCJKkr-Regular-cf1b" d="M 4550 5286 
L 4550 3930 
L 3290 3930 
L 3290 3488 
L 4550 3488 
L 4550 960 
L 5082 960 
L 5082 5286 
L 4550 5286 
z
M 1773 4941 
L 1773 4230 
C 1773 3341 1190 2528 326 2208 
L 608 1786 
C 1286 2054 1798 2605 2042 3296 
C 2291 2669 2784 2170 3418 1920 
L 3706 2336 
C 2867 2643 2298 3405 2298 4211 
L 2298 4941 
L 1773 4941 
z
M 1363 1440 
L 1363 -371 
L 5216 -371 
L 5216 64 
L 1894 64 
L 1894 1440 
L 1363 1440 
z
" transform="scale(0.015625)"/>
     <path id="NotoSansCJKkr-Regular-ded8" d="M 1318 1478 
L 1318 1043 
L 4672 1043 
L 4672 -499 
L 5197 -499 
L 5197 1478 
L 1318 1478 
z
M 570 4870 
L 570 2080 
L 934 2080 
C 1862 2080 2413 2106 3085 2240 
L 3027 2675 
C 2426 2554 1901 2522 1082 2522 
L 1082 3302 
L 2739 3302 
L 2739 3718 
L 1082 3718 
L 1082 4435 
L 2803 4435 
L 2803 4870 
L 570 4870 
z
M 3411 5178 
L 3411 1818 
L 3910 1818 
L 3910 3347 
L 4691 3347 
L 4691 1779 
L 5197 1779 
L 5197 5286 
L 4691 5286 
L 4691 3782 
L 3910 3782 
L 3910 5178 
L 3411 5178 
z
" transform="scale(0.015625)"/>
     <path id="NotoSansCJKkr-Regular-d7bb" d="M 4525 5293 
L 4525 -499 
L 5056 -499 
L 5056 5293 
L 4525 5293 
z
M 506 4698 
L 506 4256 
L 1850 4256 
L 1850 3526 
C 1850 2528 1152 1434 320 1037 
L 627 614 
C 1286 947 1862 1677 2125 2522 
C 2394 1728 2963 1069 3635 755 
L 3930 1178 
C 3078 1549 2387 2547 2387 3526 
L 2387 4256 
L 3738 4256 
L 3738 4698 
L 506 4698 
z
" transform="scale(0.015625)"/>
     <path id="NotoSansCJKkr-Regular-e1e8" d="M 902 1261 
L 902 832 
L 4371 832 
L 4371 -499 
L 4902 -499 
L 4902 1261 
L 902 1261 
z
M 320 2266 
L 320 1837 
L 5549 1837 
L 5549 2266 
L 3200 2266 
L 3200 2970 
L 5030 2970 
L 5030 3392 
L 4179 3392 
L 4179 4646 
L 5050 4646 
L 5050 5082 
L 806 5082 
L 806 4646 
L 1677 4646 
L 1677 3392 
L 826 3392 
L 826 2970 
L 2669 2970 
L 2669 2266 
L 320 2266 
z
M 2208 4646 
L 3648 4646 
L 3648 3392 
L 2208 3392 
L 2208 4646 
z
" transform="scale(0.015625)"/>
     <path id="NotoSansCJKkr-Regular-d66b" d="M 2675 2086 
L 2675 685 
L 320 685 
L 320 243 
L 5568 243 
L 5568 685 
L 3206 685 
L 3206 2086 
L 2675 2086 
z
M 755 4768 
L 755 4326 
L 2662 4326 
L 2662 4205 
C 2662 3283 1568 2477 576 2304 
L 794 1882 
C 1670 2061 2573 2637 2944 3430 
C 3315 2643 4224 2086 5107 1907 
L 5325 2330 
C 4314 2490 3213 3283 3213 4205 
L 3213 4326 
L 5120 4326 
L 5120 4768 
L 755 4768 
z
" transform="scale(0.015625)"/>
     <path id="NotoSansCJKkr-Regular-d603" d="M 4550 5293 
L 4550 4000 
L 3411 4000 
L 3411 3571 
L 4550 3571 
L 4550 2304 
L 5075 2304 
L 5075 5293 
L 4550 5293 
z
M 499 4992 
L 499 4557 
L 1786 4557 
L 1786 4410 
C 1786 3667 1184 2944 339 2650 
L 602 2234 
C 1280 2470 1805 2970 2054 3590 
C 2304 3034 2810 2586 3462 2368 
L 3712 2790 
C 2886 3053 2317 3718 2317 4403 
L 2317 4557 
L 3590 4557 
L 3590 4992 
L 499 4992 
z
M 1363 -13 
L 1363 -435 
L 5293 -435 
L 5293 -13 
L 1888 -13 
L 1888 621 
L 5075 621 
L 5075 2016 
L 1350 2016 
L 1350 1587 
L 4550 1587 
L 4550 1024 
L 1363 1024 
L 1363 -13 
z
" transform="scale(0.015625)"/>
     <path id="NotoSansCJKkr-Regular-e353" d="M 2022 3456 
C 1203 3456 608 2906 608 2125 
C 608 1338 1203 794 2022 794 
C 2835 794 3430 1338 3430 2125 
C 3430 2906 2835 3456 2022 3456 
z
M 2022 3014 
C 2541 3014 2925 2643 2925 2125 
C 2925 1600 2541 1235 2022 1235 
C 1498 1235 1114 1600 1114 2125 
C 1114 2643 1498 3014 2022 3014 
z
M 4243 5293 
L 4243 -499 
L 4768 -499 
L 4768 2470 
L 5715 2470 
L 5715 2912 
L 4768 2912 
L 4768 5293 
L 4243 5293 
z
M 1747 5222 
L 1747 4365 
L 288 4365 
L 288 3930 
L 3699 3930 
L 3699 4365 
L 2278 4365 
L 2278 5222 
L 1747 5222 
z
" transform="scale(0.015625)"/>
     <path id="NotoSansCJKkr-Regular-c08f" d="M 314 2342 
L 314 1914 
L 5562 1914 
L 5562 2342 
L 314 2342 
z
M 1024 5082 
L 1024 3123 
L 4960 3123 
L 4960 3552 
L 1549 3552 
L 1549 5082 
L 1024 5082 
z
M 986 1331 
L 986 -358 
L 4992 -358 
L 4992 77 
L 1517 77 
L 1517 1331 
L 986 1331 
z
" transform="scale(0.015625)"/>
     <path id="NotoSansCJKkr-Regular-c7df" d="M 525 4621 
L 525 1056 
L 2733 1056 
L 2733 4621 
L 525 4621 
z
M 2234 4198 
L 2234 1478 
L 1024 1478 
L 1024 4198 
L 2234 4198 
z
M 3443 5171 
L 3443 -205 
L 3949 -205 
L 3949 2560 
L 4730 2560 
L 4730 -499 
L 5242 -499 
L 5242 5293 
L 4730 5293 
L 4730 3002 
L 3949 3002 
L 3949 5171 
L 3443 5171 
z
" transform="scale(0.015625)"/>
     <path id="NotoSansCJKkr-Regular-ba17" d="M 3430 5139 
L 3430 -211 
L 3930 -211 
L 3930 2528 
L 4710 2528 
L 4710 -499 
L 5222 -499 
L 5222 5293 
L 4710 5293 
L 4710 2963 
L 3930 2963 
L 3930 5139 
L 3430 5139 
z
M 544 4544 
L 544 4109 
L 2272 4109 
C 2189 2912 1651 1862 320 1120 
L 627 742 
C 2278 1677 2790 3059 2790 4544 
L 544 4544 
z
" transform="scale(0.015625)"/>
     <path id="NotoSansCJKkr-Regular-cabb" d="M 1133 3469 
L 2694 3469 
L 2694 2419 
L 1133 2419 
L 1133 3469 
z
M 4550 3795 
L 4550 2982 
L 3219 2982 
L 3219 3795 
L 4550 3795 
z
M 602 4902 
L 602 1990 
L 3219 1990 
L 3219 2547 
L 4550 2547 
L 4550 1005 
L 5082 1005 
L 5082 5286 
L 4550 5286 
L 4550 4230 
L 3219 4230 
L 3219 4902 
L 2694 4902 
L 2694 3885 
L 1133 3885 
L 1133 4902 
L 602 4902 
z
M 1363 1421 
L 1363 -371 
L 5216 -371 
L 5216 64 
L 1894 64 
L 1894 1421 
L 1363 1421 
z
" transform="scale(0.015625)"/>
    </defs>
    <use xlink:href="#NotoSansCJKkr-Regular-55"/>
    <use xlink:href="#NotoSansCJKkr-Regular-46" transform="translate(36.203125 0)"/>
    <use xlink:href="#NotoSansCJKkr-Regular-4e" transform="translate(91.609375 0)"/>
    <use xlink:href="#NotoSansCJKkr-Regular-51" transform="translate(184.203125 0)"/>
    <use xlink:href="#NotoSansCJKkr-Regular-46" transform="translate(246.203125 0)"/>
    <use xlink:href="#NotoSansCJKkr-Regular-53" transform="translate(301.609375 0)"/>
    <use xlink:href="#NotoSansCJKkr-Regular-42" transform="translate(337.703125 0)"/>
    <use xlink:href="#NotoSansCJKkr-Regular-55" transform="translate(392.5 0)"/>
    <use xlink:href="#NotoSansCJKkr-Regular-56" transform="translate(430.203125 0)"/>
    <use xlink:href="#NotoSansCJKkr-Regular-53" transform="translate(490.90625 0)"/>
    <use xlink:href="#NotoSansCJKkr-Regular-46" transform="translate(528.609375 0)"/>
    <use xlink:href="#NotoSansCJKkr-Regular-1" transform="translate(584.015625 0)"/>
    <use xlink:href="#NotoSansCJKkr-Regular-2d2" transform="translate(606.421875 0)"/>
    <use xlink:href="#NotoSansCJKkr-Regular-1" transform="translate(695.828125 0)"/>
    <use xlink:href="#NotoSansCJKkr-Regular-8" transform="translate(718.234375 0)"/>
    <use xlink:href="#NotoSansCJKkr-Regular-cf1b" transform="translate(746.03125 0)"/>
    <use xlink:href="#NotoSansCJKkr-Regular-ded8" transform="translate(838.03125 0)"/>
    <use xlink:href="#NotoSansCJKkr-Regular-d7bb" transform="translate(930.03125 0)"/>
    <use xlink:href="#NotoSansCJKkr-Regular-f684" transform="translate(1022.03125 0)"/>
    <use xlink:href="#NotoSansCJKkr-Regular-e1e8" transform="translate(1050.03125 0)"/>
    <use xlink:href="#NotoSansCJKkr-Regular-8" transform="translate(1142.03125 0)"/>
    <use xlink:href="#NotoSansCJKkr-Regular-d53f" transform="translate(1169.828125 0)"/>
    <use xlink:href="#NotoSansCJKkr-Regular-f684" transform="translate(1261.828125 0)"/>
    <use xlink:href="#NotoSansCJKkr-Regular-d66b" transform="translate(1289.828125 0)"/>
    <use xlink:href="#NotoSansCJKkr-Regular-d603" transform="translate(1381.828125 0)"/>
    <use xlink:href="#NotoSansCJKkr-Regular-e353" transform="translate(1473.828125 0)"/>
    <use xlink:href="#NotoSansCJKkr-Regular-c08f" transform="translate(1565.828125 0)"/>
    <use xlink:href="#NotoSansCJKkr-Regular-f684" transform="translate(1657.828125 0)"/>
    <use xlink:href="#NotoSansCJKkr-Regular-c7df" transform="translate(1685.828125 0)"/>
    <use xlink:href="#NotoSansCJKkr-Regular-ba17" transform="translate(1777.828125 0)"/>
    <use xlink:href="#NotoSansCJKkr-Regular-cabb" transform="translate(1869.828125 0)"/>
    <use xlink:href="#NotoSansCJKkr-Regular-d013" transform="translate(1961.828125 0)"/>
   </g>
  </g>
 </g>
 <defs>
  <clipPath id="p329a2e7b24">
   <rect x="42.839063" y="78.71425" width="286.250625" height="166.81375"/>
  </clipPath>
  <clipPath id="ped672102d2">
   <rect x="382.628437" y="78.71425" width="286.250625" height="166.81375"/>
  </clipPath>
 </defs>
</svg>
