<?xml version="1.0" encoding="utf-8" standalone="no"?>
<!DOCTYPE svg PUBLIC "-//W3C//DTD SVG 1.1//EN"
  "http://www.w3.org/Graphics/SVG/1.1/DTD/svg11.dtd">
<svg xmlns:xlink="http://www.w3.org/1999/xlink" width="532.8pt" height="331.2pt" viewBox="0 0 532.8 331.2" xmlns="http://www.w3.org/2000/svg" version="1.1">
 <metadata>
  <rdf:RDF xmlns:dc="http://purl.org/dc/elements/1.1/" xmlns:cc="http://creativecommons.org/ns#" xmlns:rdf="http://www.w3.org/1999/02/22-rdf-syntax-ns#">
   <cc:Work>
    <dc:type rdf:resource="http://purl.org/dc/dcmitype/StillImage"/>
    <dc:date>2026-09-21T14:59:29.852139</dc:date>
    <dc:format>image/svg+xml</dc:format>
    <dc:creator>
     <cc:Agent>
      <dc:title>Matplotlib v3.9.4, https://matplotlib.org/</dc:title>
     </cc:Agent>
    </dc:creator>
   </cc:Work>
  </rdf:RDF>
 </metadata>
 <defs>
  <style type="text/css">*{stroke-linejoin: round; stroke-linecap: butt}</style>
 </defs>
 <g id="figure_1">
  <g id="patch_1">
   <path d="M 0 331.2 
L 532.8 331.2 
L 532.8 0 
L 0 0 
z
" style="fill: #ffffff"/>
  </g>
  <g id="axes_1">
   <g id="patch_2">
    <path d="M 38.18 289.24 
L 522 289.24 
L 522 28.44375 
L 38.18 28.44375 
z
" style="fill: #ffffff"/>
   </g>
   <g id="matplotlib.axis_1">
    <g id="xtick_1">
     <g id="line2d_1">
      <path d="M 60.171818 289.24 
L 60.171818 28.44375 
" clip-path="url(#p2c165067e6)" style="fill: none; stroke: #b0b0b0; stroke-opacity: 0.25; stroke-width: 0.8; stroke-linecap: square"/>
     </g>
     <g id="line2d_2">
      <defs>
       <path id="m522858f3e7" d="M 0 0 
L 0 3.5 
" style="stroke: #000000; stroke-width: 0.8"/>
      </defs>
      <g>
       <use xlink:href="#m522858f3e7" x="60.171818" y="289.24" style="stroke: #000000; stroke-width: 0.8"/>
      </g>
     </g>
     <g id="text_1">
      <!-- 0.5 -->
      <g transform="translate(53.231974 304.199375) scale(0.1 -0.1)">
       <defs>
        <path id="NotoSansCJKkr-Regular-30" d="M 1779 -83 
C 2669 -83 3238 723 3238 2362 
C 3238 3987 2669 4774 1779 4774 
C 883 4774 320 3987 320 2362 
C 320 723 883 -83 1779 -83 
z
M 1779 390 
C 1248 390 883 986 883 2362 
C 883 3731 1248 4314 1779 4314 
C 2310 4314 2675 3731 2675 2362 
C 2675 986 2310 390 1779 390 
z
" transform="scale(0.015625)"/>
        <path id="NotoSansCJKkr-Regular-2e" d="M 890 -83 
C 1120 -83 1312 96 1312 358 
C 1312 627 1120 806 890 806 
C 653 806 467 627 467 358 
C 467 96 653 -83 890 -83 
z
" transform="scale(0.015625)"/>
        <path id="NotoSansCJKkr-Regular-35" d="M 1677 -83 
C 2464 -83 3213 499 3213 1523 
C 3213 2560 2573 3021 1798 3021 
C 1517 3021 1306 2950 1094 2835 
L 1216 4192 
L 2982 4192 
L 2982 4691 
L 704 4691 
L 550 2502 
L 864 2304 
C 1133 2483 1331 2579 1645 2579 
C 2234 2579 2618 2182 2618 1510 
C 2618 826 2176 403 1619 403 
C 1075 403 730 653 467 922 
L 173 538 
C 493 224 941 -83 1677 -83 
z
" transform="scale(0.015625)"/>
       </defs>
       <use xlink:href="#NotoSansCJKkr-Regular-30"/>
       <use xlink:href="#NotoSansCJKkr-Regular-2e" x="55.499985"/>
       <use xlink:href="#NotoSansCJKkr-Regular-35" x="83.299973"/>
      </g>
     </g>
    </g>
    <g id="xtick_2">
     <g id="line2d_3">
      <path d="M 133.477879 289.24 
L 133.477879 28.44375 
" clip-path="url(#p2c165067e6)" style="fill: none; stroke: #b0b0b0; stroke-opacity: 0.25; stroke-width: 0.8; stroke-linecap: square"/>
     </g>
     <g id="line2d_4">
      <g>
       <use xlink:href="#m522858f3e7" x="133.477879" y="289.24" style="stroke: #000000; stroke-width: 0.8"/>
      </g>
     </g>
     <g id="text_2">
      <!-- 1.0 -->
      <g transform="translate(126.538035 304.199375) scale(0.1 -0.1)">
       <defs>
        <path id="NotoSansCJKkr-Regular-31" d="M 563 0 
L 3136 0 
L 3136 486 
L 2195 486 
L 2195 4691 
L 1747 4691 
C 1491 4544 1190 4435 774 4358 
L 774 3987 
L 1613 3987 
L 1613 486 
L 563 486 
L 563 0 
z
" transform="scale(0.015625)"/>
       </defs>
       <use xlink:href="#NotoSansCJKkr-Regular-31"/>
       <use xlink:href="#NotoSansCJKkr-Regular-2e" x="55.499985"/>
       <use xlink:href="#NotoSansCJKkr-Regular-30" x="83.299973"/>
      </g>
     </g>
    </g>
    <g id="xtick_3">
     <g id="line2d_5">
      <path d="M 206.783939 289.24 
L 206.783939 28.44375 
" clip-path="url(#p2c165067e6)" style="fill: none; stroke: #b0b0b0; stroke-opacity: 0.25; stroke-width: 0.8; stroke-linecap: square"/>
     </g>
     <g id="line2d_6">
      <g>
       <use xlink:href="#m522858f3e7" x="206.783939" y="289.24" style="stroke: #000000; stroke-width: 0.8"/>
      </g>
     </g>
     <g id="text_3">
      <!-- 1.5 -->
      <g transform="translate(199.844096 304.199375) scale(0.1 -0.1)">
       <use xlink:href="#NotoSansCJKkr-Regular-31"/>
       <use xlink:href="#NotoSansCJKkr-Regular-2e" x="55.499985"/>
       <use xlink:href="#NotoSansCJKkr-Regular-35" x="83.299973"/>
      </g>
     </g>
    </g>
    <g id="xtick_4">
     <g id="line2d_7">
      <path d="M 280.09 289.24 
L 280.09 28.44375 
" clip-path="url(#p2c165067e6)" style="fill: none; stroke: #b0b0b0; stroke-opacity: 0.25; stroke-width: 0.8; stroke-linecap: square"/>
     </g>
     <g id="line2d_8">
      <g>
       <use xlink:href="#m522858f3e7" x="280.09" y="289.24" style="stroke: #000000; stroke-width: 0.8"/>
      </g>
     </g>
     <g id="text_4">
      <!-- 2.0 -->
      <g transform="translate(273.150156 304.199375) scale(0.1 -0.1)">
       <defs>
        <path id="NotoSansCJKkr-Regular-32" d="M 282 0 
L 3232 0 
L 3232 506 
L 1933 506 
C 1696 506 1408 480 1165 461 
C 2266 1504 3008 2458 3008 3398 
C 3008 4230 2477 4774 1638 4774 
C 1043 4774 634 4506 256 4090 
L 595 3757 
C 858 4070 1184 4301 1568 4301 
C 2150 4301 2432 3910 2432 3373 
C 2432 2566 1754 1632 282 346 
L 282 0 
z
" transform="scale(0.015625)"/>
       </defs>
       <use xlink:href="#NotoSansCJKkr-Regular-32"/>
       <use xlink:href="#NotoSansCJKkr-Regular-2e" x="55.499985"/>
       <use xlink:href="#NotoSansCJKkr-Regular-30" x="83.299973"/>
      </g>
     </g>
    </g>
    <g id="xtick_5">
     <g id="line2d_9">
      <path d="M 353.396061 289.24 
L 353.396061 28.44375 
" clip-path="url(#p2c165067e6)" style="fill: none; stroke: #b0b0b0; stroke-opacity: 0.25; stroke-width: 0.8; stroke-linecap: square"/>
     </g>
     <g id="line2d_10">
      <g>
       <use xlink:href="#m522858f3e7" x="353.396061" y="289.24" style="stroke: #000000; stroke-width: 0.8"/>
      </g>
     </g>
     <g id="text_5">
      <!-- 2.5 -->
      <g transform="translate(346.456217 304.199375) scale(0.1 -0.1)">
       <use xlink:href="#NotoSansCJKkr-Regular-32"/>
       <use xlink:href="#NotoSansCJKkr-Regular-2e" x="55.499985"/>
       <use xlink:href="#NotoSansCJKkr-Regular-35" x="83.299973"/>
      </g>
     </g>
    </g>
    <g id="xtick_6">
     <g id="line2d_11">
      <path d="M 426.702121 289.24 
L 426.702121 28.44375 
" clip-path="url(#p2c165067e6)" style="fill: none; stroke: #b0b0b0; stroke-opacity: 0.25; stroke-width: 0.8; stroke-linecap: square"/>
     </g>
     <g id="line2d_12">
      <g>
       <use xlink:href="#m522858f3e7" x="426.702121" y="289.24" style="stroke: #000000; stroke-width: 0.8"/>
      </g>
     </g>
     <g id="text_6">
      <!-- 3.0 -->
      <g transform="translate(419.762277 304.199375) scale(0.1 -0.1)">
       <defs>
        <path id="NotoSansCJKkr-Regular-33" d="M 1683 -83 
C 2522 -83 3194 416 3194 1254 
C 3194 1901 2752 2310 2202 2445 
L 2202 2477 
C 2701 2650 3034 3034 3034 3603 
C 3034 4346 2458 4774 1664 4774 
C 1126 4774 710 4538 358 4218 
L 672 3846 
C 941 4115 1267 4301 1645 4301 
C 2138 4301 2438 4006 2438 3558 
C 2438 3053 2112 2662 1139 2662 
L 1139 2214 
C 2227 2214 2598 1843 2598 1274 
C 2598 736 2208 403 1645 403 
C 1114 403 762 659 486 941 
L 186 563 
C 493 224 954 -83 1683 -83 
z
" transform="scale(0.015625)"/>
       </defs>
       <use xlink:href="#NotoSansCJKkr-Regular-33"/>
       <use xlink:href="#NotoSansCJKkr-Regular-2e" x="55.499985"/>
       <use xlink:href="#NotoSansCJKkr-Regular-30" x="83.299973"/>
      </g>
     </g>
    </g>
    <g id="xtick_7">
     <g id="line2d_13">
      <path d="M 500.008182 289.24 
L 500.008182 28.44375 
" clip-path="url(#p2c165067e6)" style="fill: none; stroke: #b0b0b0; stroke-opacity: 0.25; stroke-width: 0.8; stroke-linecap: square"/>
     </g>
     <g id="line2d_14">
      <g>
       <use xlink:href="#m522858f3e7" x="500.008182" y="289.24" style="stroke: #000000; stroke-width: 0.8"/>
      </g>
     </g>
     <g id="text_7">
      <!-- 3.5 -->
      <g transform="translate(493.068338 304.199375) scale(0.1 -0.1)">
       <use xlink:href="#NotoSansCJKkr-Regular-33"/>
       <use xlink:href="#NotoSansCJKkr-Regular-2e" x="55.499985"/>
       <use xlink:href="#NotoSansCJKkr-Regular-35" x="83.299973"/>
      </g>
     </g>
    </g>
    <g id="text_8">
     <!-- $x$ -->
     <g transform="translate(277.09 318.449375) scale(0.1 -0.1)">
      <defs>
       <path id="DejaVuSans-Oblique-78" d="M 3841 3500 
L 2234 1784 
L 3219 0 
L 2559 0 
L 1819 1388 
L 531 0 
L -166 0 
L 1556 1844 
L 641 3500 
L 1300 3500 
L 1972 2234 
L 3144 3500 
L 3841 3500 
z
" transform="scale(0.015625)"/>
      </defs>
      <use xlink:href="#DejaVuSans-Oblique-78" transform="translate(0 0.3125)"/>
     </g>
    </g>
   </g>
   <g id="matplotlib.axis_2">
    <g id="ytick_1">
     <g id="line2d_15">
      <path d="M 38.18 277.385625 
L 522 277.385625 
" clip-path="url(#p2c165067e6)" style="fill: none; stroke: #b0b0b0; stroke-opacity: 0.25; stroke-width: 0.8; stroke-linecap: square"/>
     </g>
     <g id="line2d_16">
      <defs>
       <path id="mde09a9174c" d="M 0 0 
L -3.5 0 
" style="stroke: #000000; stroke-width: 0.8"/>
      </defs>
      <g>
       <use xlink:href="#mde09a9174c" x="38.18" y="277.385625" style="stroke: #000000; stroke-width: 0.8"/>
      </g>
     </g>
     <g id="text_9">
      <!-- 0 -->
      <g transform="translate(25.63 281.365312) scale(0.1 -0.1)">
       <use xlink:href="#NotoSansCJKkr-Regular-30"/>
      </g>
     </g>
    </g>
    <g id="ytick_2">
     <g id="line2d_17">
      <path d="M 38.18 247.412683 
L 522 247.412683 
" clip-path="url(#p2c165067e6)" style="fill: none; stroke: #b0b0b0; stroke-opacity: 0.25; stroke-width: 0.8; stroke-linecap: square"/>
     </g>
     <g id="line2d_18">
      <g>
       <use xlink:href="#mde09a9174c" x="38.18" y="247.412683" style="stroke: #000000; stroke-width: 0.8"/>
      </g>
     </g>
     <g id="text_10">
      <!-- 1 -->
      <g transform="translate(25.63 251.39237) scale(0.1 -0.1)">
       <use xlink:href="#NotoSansCJKkr-Regular-31"/>
      </g>
     </g>
    </g>
    <g id="ytick_3">
     <g id="line2d_19">
      <path d="M 38.18 217.439741 
L 522 217.439741 
" clip-path="url(#p2c165067e6)" style="fill: none; stroke: #b0b0b0; stroke-opacity: 0.25; stroke-width: 0.8; stroke-linecap: square"/>
     </g>
     <g id="line2d_20">
      <g>
       <use xlink:href="#mde09a9174c" x="38.18" y="217.439741" style="stroke: #000000; stroke-width: 0.8"/>
      </g>
     </g>
     <g id="text_11">
      <!-- 2 -->
      <g transform="translate(25.63 221.419428) scale(0.1 -0.1)">
       <use xlink:href="#NotoSansCJKkr-Regular-32"/>
      </g>
     </g>
    </g>
    <g id="ytick_4">
     <g id="line2d_21">
      <path d="M 38.18 187.466798 
L 522 187.466798 
" clip-path="url(#p2c165067e6)" style="fill: none; stroke: #b0b0b0; stroke-opacity: 0.25; stroke-width: 0.8; stroke-linecap: square"/>
     </g>
     <g id="line2d_22">
      <g>
       <use xlink:href="#mde09a9174c" x="38.18" y="187.466798" style="stroke: #000000; stroke-width: 0.8"/>
      </g>
     </g>
     <g id="text_12">
      <!-- 3 -->
      <g transform="translate(25.63 191.446486) scale(0.1 -0.1)">
       <use xlink:href="#NotoSansCJKkr-Regular-33"/>
      </g>
     </g>
    </g>
    <g id="ytick_5">
     <g id="line2d_23">
      <path d="M 38.18 157.493856 
L 522 157.493856 
" clip-path="url(#p2c165067e6)" style="fill: none; stroke: #b0b0b0; stroke-opacity: 0.25; stroke-width: 0.8; stroke-linecap: square"/>
     </g>
     <g id="line2d_24">
      <g>
       <use xlink:href="#mde09a9174c" x="38.18" y="157.493856" style="stroke: #000000; stroke-width: 0.8"/>
      </g>
     </g>
     <g id="text_13">
      <!-- 4 -->
      <g transform="translate(25.63 161.473544) scale(0.1 -0.1)">
       <defs>
        <path id="NotoSansCJKkr-Regular-34" d="M 2176 0 
L 2726 0 
L 2726 1293 
L 3354 1293 
L 3354 1760 
L 2726 1760 
L 2726 4691 
L 2080 4691 
L 128 1677 
L 128 1293 
L 2176 1293 
L 2176 0 
z
M 2176 1760 
L 736 1760 
L 1805 3360 
C 1939 3590 2067 3827 2182 4051 
L 2208 4051 
C 2195 3814 2176 3430 2176 3200 
L 2176 1760 
z
" transform="scale(0.015625)"/>
       </defs>
       <use xlink:href="#NotoSansCJKkr-Regular-34"/>
      </g>
     </g>
    </g>
    <g id="ytick_6">
     <g id="line2d_25">
      <path d="M 38.18 127.520914 
L 522 127.520914 
" clip-path="url(#p2c165067e6)" style="fill: none; stroke: #b0b0b0; stroke-opacity: 0.25; stroke-width: 0.8; stroke-linecap: square"/>
     </g>
     <g id="line2d_26">
      <g>
       <use xlink:href="#mde09a9174c" x="38.18" y="127.520914" style="stroke: #000000; stroke-width: 0.8"/>
      </g>
     </g>
     <g id="text_14">
      <!-- 5 -->
      <g transform="translate(25.63 131.500601) scale(0.1 -0.1)">
       <use xlink:href="#NotoSansCJKkr-Regular-35"/>
      </g>
     </g>
    </g>
    <g id="ytick_7">
     <g id="line2d_27">
      <path d="M 38.18 97.547972 
L 522 97.547972 
" clip-path="url(#p2c165067e6)" style="fill: none; stroke: #b0b0b0; stroke-opacity: 0.25; stroke-width: 0.8; stroke-linecap: square"/>
     </g>
     <g id="line2d_28">
      <g>
       <use xlink:href="#mde09a9174c" x="38.18" y="97.547972" style="stroke: #000000; stroke-width: 0.8"/>
      </g>
     </g>
     <g id="text_15">
      <!-- 6 -->
      <g transform="translate(25.63 101.527659) scale(0.1 -0.1)">
       <defs>
        <path id="NotoSansCJKkr-Regular-36" d="M 1926 -83 
C 2656 -83 3277 531 3277 1440 
C 3277 2426 2765 2912 1971 2912 
C 1606 2912 1197 2701 909 2349 
C 934 3802 1466 4294 2118 4294 
C 2400 4294 2682 4154 2861 3936 
L 3194 4294 
C 2931 4576 2579 4774 2093 4774 
C 1184 4774 358 4077 358 2240 
C 358 691 1030 -83 1926 -83 
z
M 922 1882 
C 1229 2317 1587 2477 1875 2477 
C 2445 2477 2720 2074 2720 1440 
C 2720 800 2374 378 1926 378 
C 1338 378 986 909 922 1882 
z
" transform="scale(0.015625)"/>
       </defs>
       <use xlink:href="#NotoSansCJKkr-Regular-36"/>
      </g>
     </g>
    </g>
    <g id="ytick_8">
     <g id="line2d_29">
      <path d="M 38.18 67.575029 
L 522 67.575029 
" clip-path="url(#p2c165067e6)" style="fill: none; stroke: #b0b0b0; stroke-opacity: 0.25; stroke-width: 0.8; stroke-linecap: square"/>
     </g>
     <g id="line2d_30">
      <g>
       <use xlink:href="#mde09a9174c" x="38.18" y="67.575029" style="stroke: #000000; stroke-width: 0.8"/>
      </g>
     </g>
     <g id="text_16">
      <!-- 7 -->
      <g transform="translate(25.63 71.554717) scale(0.1 -0.1)">
       <defs>
        <path id="NotoSansCJKkr-Regular-37" d="M 1267 0 
L 1875 0 
C 1952 1837 2150 2931 3251 4339 
L 3251 4691 
L 314 4691 
L 314 4192 
L 2592 4192 
C 1670 2912 1350 1779 1267 0 
z
" transform="scale(0.015625)"/>
       </defs>
       <use xlink:href="#NotoSansCJKkr-Regular-37"/>
      </g>
     </g>
    </g>
    <g id="ytick_9">
     <g id="line2d_31">
      <path d="M 38.18 37.602087 
L 522 37.602087 
" clip-path="url(#p2c165067e6)" style="fill: none; stroke: #b0b0b0; stroke-opacity: 0.25; stroke-width: 0.8; stroke-linecap: square"/>
     </g>
     <g id="line2d_32">
      <g>
       <use xlink:href="#mde09a9174c" x="38.18" y="37.602087" style="stroke: #000000; stroke-width: 0.8"/>
      </g>
     </g>
     <g id="text_17">
      <!-- 8 -->
      <g transform="translate(25.63 41.581775) scale(0.1 -0.1)">
       <defs>
        <path id="NotoSansCJKkr-Regular-38" d="M 1792 -83 
C 2669 -83 3258 448 3258 1126 
C 3258 1773 2880 2125 2470 2362 
L 2470 2394 
C 2746 2611 3091 3034 3091 3526 
C 3091 4250 2605 4762 1805 4762 
C 1075 4762 518 4282 518 3571 
C 518 3078 813 2726 1152 2490 
L 1152 2464 
C 723 2234 294 1792 294 1165 
C 294 442 922 -83 1792 -83 
z
M 2112 2547 
C 1555 2765 1050 3014 1050 3571 
C 1050 4026 1363 4326 1798 4326 
C 2298 4326 2592 3962 2592 3494 
C 2592 3149 2426 2829 2112 2547 
z
M 1798 352 
C 1235 352 813 717 813 1216 
C 813 1664 1082 2035 1459 2278 
C 2125 2010 2701 1779 2701 1146 
C 2701 678 2342 352 1798 352 
z
" transform="scale(0.015625)"/>
       </defs>
       <use xlink:href="#NotoSansCJKkr-Regular-38"/>
      </g>
     </g>
    </g>
    <g id="text_18">
     <!-- $y$ -->
     <g transform="translate(19.339375 161.841875) rotate(-90) scale(0.1 -0.1)">
      <defs>
       <path id="DejaVuSans-Oblique-79" d="M 1588 -325 
Q 1188 -997 936 -1164 
Q 684 -1331 294 -1331 
L -159 -1331 
L -63 -850 
L 269 -850 
Q 509 -850 678 -719 
Q 847 -588 1056 -206 
L 1234 128 
L 459 3500 
L 1069 3500 
L 1650 819 
L 3256 3500 
L 3859 3500 
L 1588 -325 
z
" transform="scale(0.015625)"/>
      </defs>
      <use xlink:href="#DejaVuSans-Oblique-79" transform="translate(0 0.3125)"/>
     </g>
    </g>
   </g>
   <g id="line2d_33">
    <path d="M 60.171818 277.385625 
L 69.148071 277.385625 
L 78.124323 277.385625 
L 87.100575 277.385625 
L 96.076827 277.385625 
L 105.05308 277.385625 
L 114.029332 277.385625 
L 123.005584 277.385625 
L 131.981837 277.385625 
L 140.958089 277.385625 
L 149.934341 277.385625 
L 158.910594 277.385625 
L 167.886846 277.385625 
L 176.863098 277.385625 
L 185.839351 277.385625 
L 194.815603 277.385625 
L 203.791855 277.385625 
L 212.768108 277.385625 
L 221.74436 277.385625 
L 230.720612 277.385625 
L 239.696865 277.385625 
L 248.673117 277.385625 
L 257.649369 277.385625 
L 266.625622 277.385625 
L 275.601874 277.385625 
L 284.578126 277.385625 
L 293.554378 277.385625 
L 302.530631 277.385625 
L 311.506883 277.385625 
L 320.483135 277.385625 
L 329.459388 277.385625 
L 338.43564 277.385625 
L 347.411892 277.385625 
L 356.388145 277.385625 
L 365.364397 277.385625 
L 374.340649 277.385625 
L 383.316902 277.385625 
L 392.293154 277.385625 
L 401.269406 277.385625 
L 410.245659 277.385625 
L 419.221911 277.385625 
L 428.198163 277.385625 
L 437.174416 277.385625 
L 446.150668 277.385625 
L 455.12692 277.385625 
L 464.103173 277.385625 
L 473.079425 277.385625 
L 482.055677 277.385625 
L 491.031929 277.385625 
L 500.008182 277.385625 
" clip-path="url(#p2c165067e6)" style="fill: none; stroke: #ffff00; stroke-width: 1.4; stroke-linecap: square"/>
   </g>
   <g id="patch_3">
    <path d="M 38.18 289.24 
L 38.18 28.44375 
" style="fill: none; stroke: #000000; stroke-width: 0.8; stroke-linejoin: miter; stroke-linecap: square"/>
   </g>
   <g id="patch_4">
    <path d="M 522 289.24 
L 522 28.44375 
" style="fill: none; stroke: #000000; stroke-width: 0.8; stroke-linejoin: miter; stroke-linecap: square"/>
   </g>
   <g id="patch_5">
    <path d="M 38.18 289.24 
L 522 289.24 
" style="fill: none; stroke: #000000; stroke-width: 0.8; stroke-linejoin: miter; stroke-linecap: square"/>
   </g>
   <g id="patch_6">
    <path d="M 38.18 28.44375 
L 522 28.44375 
" style="fill: none; stroke: #000000; stroke-width: 0.8; stroke-linejoin: miter; stroke-linecap: square"/>
   </g>
   <g id="line2d_34">
    <path d="M 60.171818 245.414487 
L 69.148071 243.334731 
L 78.124323 241.254976 
L 87.100575 239.175221 
L 96.076827 237.095466 
L 105.05308 235.015711 
L 114.029332 232.935956 
L 123.005584 230.8562 
L 131.981837 228.776445 
L 140.958089 226.69669 
L 149.934341 224.616935 
L 158.910594 222.53718 
L 167.886846 220.457425 
L 176.863098 218.377669 
L 185.839351 216.297914 
L 194.815603 214.218159 
L 203.791855 212.138404 
L 212.768108 210.058649 
L 221.74436 207.978893 
L 230.720612 205.899138 
L 239.696865 203.819383 
L 248.673117 201.739628 
L 257.649369 199.659873 
L 266.625622 197.580118 
L 275.601874 195.500362 
L 284.578126 193.420607 
L 293.554378 191.340852 
L 302.530631 189.261097 
L 311.506883 187.181342 
L 320.483135 185.101587 
L 329.459388 183.021831 
L 338.43564 180.942076 
L 347.411892 178.862321 
L 356.388145 176.782566 
L 365.364397 174.702811 
L 374.340649 172.623056 
L 383.316902 170.5433 
L 392.293154 168.463545 
L 401.269406 166.38379 
L 410.245659 164.304035 
L 419.221911 162.22428 
L 428.198163 160.144524 
L 437.174416 158.064769 
L 446.150668 155.985014 
L 455.12692 153.905259 
L 464.103173 151.825504 
L 473.079425 149.745749 
L 482.055677 147.665993 
L 491.031929 145.586238 
L 500.008182 143.506483 
" clip-path="url(#p2c165067e6)" style="fill: none; stroke: #ffcc00; stroke-width: 1.4; stroke-linecap: square"/>
   </g>
   <g id="text_19">
    <!-- 경사하강법 5스텝: 직선이 데이터에 맞춰지는 과정 ($\alpha=0.1$) -->
    <g transform="translate(131.65 22.44375) scale(0.12 -0.12)">
     <defs>
      <path id="NotoSansCJKkr-Regular-acbd" d="M 3200 1760 
C 2029 1760 1280 1338 1280 646 
C 1280 -51 2029 -474 3200 -474 
C 4365 -474 5114 -51 5114 646 
C 5114 1338 4365 1760 3200 1760 
z
M 3200 1338 
C 4045 1338 4589 1082 4589 646 
C 4589 211 4045 -45 3200 -45 
C 2349 -45 1805 211 1805 646 
C 1805 1082 2349 1338 3200 1338 
z
M 691 4858 
L 691 4422 
L 2726 4422 
C 2624 3424 1773 2650 397 2246 
L 614 1824 
C 1850 2189 2733 2861 3104 3795 
L 4550 3795 
L 4550 3021 
L 3040 3021 
L 3040 2586 
L 4550 2586 
L 4550 1824 
L 5082 1824 
L 5082 5286 
L 4550 5286 
L 4550 4224 
L 3238 4224 
C 3277 4422 3302 4634 3302 4858 
L 691 4858 
z
" transform="scale(0.015625)"/>
      <path id="NotoSansCJKkr-Regular-c0ac" d="M 1734 4794 
L 1734 3757 
C 1734 2694 1082 1587 237 1165 
L 563 736 
C 1216 1082 1747 1805 2003 2656 
C 2259 1856 2778 1178 3405 851 
L 3731 1274 
C 2912 1683 2259 2733 2259 3757 
L 2259 4794 
L 1734 4794 
z
M 4237 5293 
L 4237 -499 
L 4768 -499 
L 4768 2496 
L 5715 2496 
L 5715 2950 
L 4768 2950 
L 4768 5293 
L 4237 5293 
z
" transform="scale(0.015625)"/>
      <path id="NotoSansCJKkr-Regular-d558" d="M 2022 3456 
C 1203 3456 608 2906 608 2125 
C 608 1338 1203 794 2022 794 
C 2835 794 3430 1338 3430 2125 
C 3430 2906 2835 3456 2022 3456 
z
M 2022 3014 
C 2541 3014 2925 2643 2925 2125 
C 2925 1600 2541 1235 2022 1235 
C 1498 1235 1114 1600 1114 2125 
C 1114 2643 1498 3014 2022 3014 
z
M 4243 5293 
L 4243 -499 
L 4768 -499 
L 4768 2470 
L 5715 2470 
L 5715 2912 
L 4768 2912 
L 4768 5293 
L 4243 5293 
z
M 1747 5222 
L 1747 4365 
L 288 4365 
L 288 3930 
L 3699 3930 
L 3699 4365 
L 2278 4365 
L 2278 5222 
L 1747 5222 
z
" transform="scale(0.015625)"/>
      <path id="NotoSansCJKkr-Regular-ac15" d="M 2995 1760 
C 1850 1760 1107 1331 1107 634 
C 1107 -64 1850 -486 2995 -486 
C 4147 -486 4877 -64 4877 634 
C 4877 1331 4147 1760 2995 1760 
z
M 2995 1338 
C 3827 1338 4358 1069 4358 634 
C 4358 205 3827 -64 2995 -64 
C 2163 -64 1632 205 1632 634 
C 1632 1069 2163 1338 2995 1338 
z
M 4282 5293 
L 4282 1830 
L 4813 1830 
L 4813 3354 
L 5664 3354 
L 5664 3795 
L 4813 3795 
L 4813 5293 
L 4282 5293 
z
M 576 4864 
L 576 4429 
L 2669 4429 
C 2573 3437 1702 2643 326 2240 
L 544 1811 
C 2221 2304 3245 3386 3245 4864 
L 576 4864 
z
" transform="scale(0.015625)"/>
      <path id="NotoSansCJKkr-Regular-bc95" d="M 1133 3686 
L 2694 3686 
L 2694 2778 
L 1133 2778 
L 1133 3686 
z
M 1376 1850 
L 1376 -416 
L 5075 -416 
L 5075 1850 
L 4550 1850 
L 4550 1152 
L 1901 1152 
L 1901 1850 
L 1376 1850 
z
M 1901 730 
L 4550 730 
L 4550 19 
L 1901 19 
L 1901 730 
z
M 4550 5293 
L 4550 3872 
L 3219 3872 
L 3219 4992 
L 2694 4992 
L 2694 4109 
L 1133 4109 
L 1133 4992 
L 602 4992 
L 602 2342 
L 3219 2342 
L 3219 3430 
L 4550 3430 
L 4550 2131 
L 5082 2131 
L 5082 5293 
L 4550 5293 
z
" transform="scale(0.015625)"/>
      <path id="NotoSansCJKkr-Regular-20" transform="scale(0.015625)"/>
      <path id="NotoSansCJKkr-Regular-c2a4" d="M 320 723 
L 320 282 
L 5568 282 
L 5568 723 
L 320 723 
z
M 2637 4890 
L 2637 4448 
C 2637 3462 1549 2586 538 2387 
L 774 1946 
C 1651 2150 2547 2771 2918 3610 
C 3296 2765 4186 2144 5062 1946 
L 5306 2387 
C 4288 2579 3194 3462 3194 4448 
L 3194 4890 
L 2637 4890 
z
" transform="scale(0.015625)"/>
      <path id="NotoSansCJKkr-Regular-d15d" d="M 4691 5293 
L 4691 2022 
L 5197 2022 
L 5197 5293 
L 4691 5293 
z
M 1402 1773 
L 1402 -422 
L 5197 -422 
L 5197 1773 
L 4678 1773 
L 4678 1133 
L 1926 1133 
L 1926 1773 
L 1402 1773 
z
M 1926 710 
L 4678 710 
L 4678 13 
L 1926 13 
L 1926 710 
z
M 3584 5178 
L 3584 3904 
L 2810 3904 
L 2810 3469 
L 3584 3469 
L 3584 2080 
L 4090 2080 
L 4090 5178 
L 3584 5178 
z
M 582 4941 
L 582 2259 
L 947 2259 
C 1875 2259 2419 2278 3085 2413 
L 3027 2842 
C 2426 2720 1907 2688 1094 2688 
L 1094 3424 
L 2541 3424 
L 2541 3846 
L 1094 3846 
L 1094 4512 
L 2771 4512 
L 2771 4941 
L 582 4941 
z
" transform="scale(0.015625)"/>
      <path id="NotoSansCJKkr-Regular-3a" d="M 890 2496 
C 1120 2496 1312 2675 1312 2944 
C 1312 3206 1120 3392 890 3392 
C 653 3392 467 3206 467 2944 
C 467 2675 653 2496 890 2496 
z
M 890 -83 
C 1120 -83 1312 96 1312 358 
C 1312 627 1120 806 890 806 
C 653 806 467 627 467 358 
C 467 96 653 -83 890 -83 
z
" transform="scale(0.015625)"/>
      <path id="NotoSansCJKkr-Regular-c9c1" d="M 4531 5293 
L 4531 1792 
L 5062 1792 
L 5062 5293 
L 4531 5293 
z
M 1197 1485 
L 1197 1050 
L 4531 1050 
L 4531 -499 
L 5062 -499 
L 5062 1485 
L 1197 1485 
z
M 538 4890 
L 538 4454 
L 1862 4454 
L 1862 4230 
C 1862 3411 1267 2656 397 2349 
L 672 1939 
C 1363 2182 1894 2701 2144 3354 
C 2400 2752 2925 2272 3590 2048 
L 3859 2464 
C 3002 2746 2400 3456 2400 4230 
L 2400 4454 
L 3706 4454 
L 3706 4890 
L 538 4890 
z
" transform="scale(0.015625)"/>
      <path id="NotoSansCJKkr-Regular-c120" d="M 4550 5286 
L 4550 3930 
L 3290 3930 
L 3290 3488 
L 4550 3488 
L 4550 960 
L 5082 960 
L 5082 5286 
L 4550 5286 
z
M 1773 4941 
L 1773 4230 
C 1773 3341 1190 2528 326 2208 
L 608 1786 
C 1286 2054 1798 2605 2042 3296 
C 2291 2669 2784 2170 3418 1920 
L 3706 2336 
C 2867 2643 2298 3405 2298 4211 
L 2298 4941 
L 1773 4941 
z
M 1363 1440 
L 1363 -371 
L 5216 -371 
L 5216 64 
L 1894 64 
L 1894 1440 
L 1363 1440 
z
" transform="scale(0.015625)"/>
      <path id="NotoSansCJKkr-Regular-c774" d="M 4525 5293 
L 4525 -506 
L 5056 -506 
L 5056 5293 
L 4525 5293 
z
M 2003 4845 
C 1146 4845 531 4058 531 2829 
C 531 1594 1146 806 2003 806 
C 2854 806 3469 1594 3469 2829 
C 3469 4058 2854 4845 2003 4845 
z
M 2003 4371 
C 2566 4371 2957 3763 2957 2829 
C 2957 1888 2566 1280 2003 1280 
C 1434 1280 1043 1888 1043 2829 
C 1043 3763 1434 4371 2003 4371 
z
" transform="scale(0.015625)"/>
      <path id="NotoSansCJKkr-Regular-b370" d="M 4723 5293 
L 4723 -499 
L 5235 -499 
L 5235 5293 
L 4723 5293 
z
M 3558 5158 
L 3558 3085 
L 2317 3085 
L 2317 2643 
L 3558 2643 
L 3558 -198 
L 4058 -198 
L 4058 5158 
L 3558 5158 
z
M 538 4582 
L 538 896 
L 909 896 
C 1824 896 2387 922 3046 1062 
L 2995 1504 
C 2387 1370 1869 1344 1056 1338 
L 1056 4147 
L 2707 4147 
L 2707 4582 
L 538 4582 
z
" transform="scale(0.015625)"/>
      <path id="NotoSansCJKkr-Regular-d130" d="M 3360 3110 
L 3360 2675 
L 4557 2675 
L 4557 -506 
L 5082 -506 
L 5082 5293 
L 4557 5293 
L 4557 3110 
L 3360 3110 
z
M 589 4762 
L 589 883 
L 1024 883 
C 2125 883 2835 922 3667 1062 
L 3610 1498 
C 2829 1357 2150 1325 1114 1325 
L 1114 2707 
L 3008 2707 
L 3008 3136 
L 1114 3136 
L 1114 4326 
L 3264 4326 
L 3264 4762 
L 589 4762 
z
" transform="scale(0.015625)"/>
      <path id="NotoSansCJKkr-Regular-c5d0" d="M 4730 5293 
L 4730 -499 
L 5242 -499 
L 5242 5293 
L 4730 5293 
z
M 1619 4314 
C 2080 4314 2368 3731 2368 2797 
C 2368 1856 2080 1274 1619 1274 
C 1171 1274 883 1856 883 2797 
C 883 3731 1171 4314 1619 4314 
z
M 1619 4806 
C 877 4806 390 4032 390 2797 
C 390 1555 877 774 1619 774 
C 2336 774 2810 1472 2854 2605 
L 3578 2605 
L 3578 -205 
L 4083 -205 
L 4083 5171 
L 3578 5171 
L 3578 3040 
L 2854 3040 
C 2797 4134 2323 4806 1619 4806 
z
" transform="scale(0.015625)"/>
      <path id="NotoSansCJKkr-Regular-b9de" d="M 557 4896 
L 557 2419 
L 3219 2419 
L 3219 4896 
L 557 4896 
z
M 2701 4467 
L 2701 2848 
L 1075 2848 
L 1075 4467 
L 2701 4467 
z
M 4282 5293 
L 4282 1990 
L 4813 1990 
L 4813 3462 
L 5664 3462 
L 5664 3904 
L 4813 3904 
L 4813 5293 
L 4282 5293 
z
M 1120 1651 
L 1120 1222 
L 2733 1222 
C 2675 602 1856 83 896 -64 
L 1094 -474 
C 1946 -333 2688 77 3014 653 
C 3341 83 4096 -339 4934 -480 
L 5133 -70 
C 4186 83 3360 614 3296 1222 
L 4909 1222 
L 4909 1651 
L 1120 1651 
z
" transform="scale(0.015625)"/>
      <path id="NotoSansCJKkr-Regular-cdb0" d="M 1914 5280 
L 1914 4653 
L 653 4653 
L 653 4230 
L 1901 4230 
L 1901 4218 
C 1901 3603 1344 3072 531 2880 
L 755 2470 
C 1434 2643 1946 3027 2189 3539 
C 2432 3072 2938 2714 3590 2554 
L 3814 2970 
C 3014 3149 2451 3642 2451 4218 
L 2451 4230 
L 3686 4230 
L 3686 4653 
L 2438 4653 
L 2438 5280 
L 1914 5280 
z
M 365 1651 
C 826 1651 1344 1658 1888 1677 
L 1888 -320 
L 2419 -320 
L 2419 1702 
C 2982 1741 3565 1798 4128 1894 
L 4096 2291 
C 2835 2112 1382 2099 294 2099 
L 365 1651 
z
M 3232 1242 
L 3232 819 
L 4538 819 
L 4538 -499 
L 5075 -499 
L 5075 5286 
L 4538 5286 
L 4538 1242 
L 3232 1242 
z
" transform="scale(0.015625)"/>
      <path id="NotoSansCJKkr-Regular-c9c0" d="M 4525 5293 
L 4525 -499 
L 5056 -499 
L 5056 5293 
L 4525 5293 
z
M 506 4698 
L 506 4256 
L 1850 4256 
L 1850 3526 
C 1850 2528 1152 1434 320 1037 
L 627 614 
C 1286 947 1862 1677 2125 2522 
C 2394 1728 2963 1069 3635 755 
L 3930 1178 
C 3078 1549 2387 2547 2387 3526 
L 2387 4256 
L 3738 4256 
L 3738 4698 
L 506 4698 
z
" transform="scale(0.015625)"/>
      <path id="NotoSansCJKkr-Regular-b294" d="M 314 2342 
L 314 1914 
L 5562 1914 
L 5562 2342 
L 314 2342 
z
M 1024 5082 
L 1024 3123 
L 4960 3123 
L 4960 3552 
L 1549 3552 
L 1549 5082 
L 1024 5082 
z
M 986 1331 
L 986 -358 
L 4992 -358 
L 4992 77 
L 1517 77 
L 1517 1331 
L 986 1331 
z
" transform="scale(0.015625)"/>
      <path id="NotoSansCJKkr-Regular-acfc" d="M 582 4659 
L 582 4224 
L 2976 4224 
C 2976 3757 2963 3059 2810 2093 
L 3334 2048 
C 3501 3117 3501 3878 3501 4346 
L 3501 4659 
L 582 4659 
z
M 326 768 
C 1350 768 2701 794 3904 986 
L 3872 1382 
C 3283 1306 2637 1267 2010 1242 
L 2010 3002 
L 1485 3002 
L 1485 1229 
L 262 1210 
L 326 768 
z
M 4224 5293 
L 4224 -499 
L 4755 -499 
L 4755 2419 
L 5677 2419 
L 5677 2874 
L 4755 2874 
L 4755 5293 
L 4224 5293 
z
" transform="scale(0.015625)"/>
      <path id="NotoSansCJKkr-Regular-c815" d="M 3174 1664 
C 1978 1664 1248 1267 1248 582 
C 1248 -96 1978 -493 3174 -493 
C 4371 -493 5101 -96 5101 582 
C 5101 1267 4371 1664 3174 1664 
z
M 3174 1248 
C 4045 1248 4576 1005 4576 582 
C 4576 166 4045 -77 3174 -77 
C 2304 -77 1773 166 1773 582 
C 1773 1005 2304 1248 3174 1248 
z
M 4550 5293 
L 4550 3789 
L 3411 3789 
L 3411 3347 
L 4550 3347 
L 4550 1843 
L 5082 1843 
L 5082 5293 
L 4550 5293 
z
M 506 4870 
L 506 4435 
L 1792 4435 
L 1792 4237 
C 1792 3411 1203 2630 339 2317 
L 614 1894 
C 1299 2157 1824 2688 2074 3360 
C 2323 2771 2816 2291 3462 2054 
L 3731 2477 
C 2893 2771 2330 3494 2330 4243 
L 2330 4435 
L 3597 4435 
L 3597 4870 
L 506 4870 
z
" transform="scale(0.015625)"/>
      <path id="NotoSansCJKkr-Regular-28" d="M 1530 -1254 
L 1888 -1094 
C 1338 -186 1075 902 1075 1990 
C 1075 3072 1338 4154 1888 5069 
L 1530 5235 
C 941 4275 589 3245 589 1990 
C 589 730 941 -301 1530 -1254 
z
" transform="scale(0.015625)"/>
      <path id="DejaVuSans-Oblique-3b1" d="M 2619 1628 
L 2622 2350 
Q 2625 3088 2069 3091 
Q 1653 3094 1394 2747 
Q 1069 2319 959 1747 
Q 825 1059 994 731 
Q 1169 397 1547 397 
Q 1966 397 2319 1063 
L 2619 1628 
z
M 2166 3578 
Q 3141 3594 3128 2584 
Q 3128 2584 3616 3500 
L 4128 3500 
L 3119 1603 
L 3109 919 
Q 3109 766 3194 638 
Q 3291 488 3391 488 
L 3669 488 
L 3575 0 
L 3228 0 
Q 2934 0 2722 263 
Q 2622 394 2619 669 
Q 2416 334 2066 50 
Q 1900 -81 1453 -78 
Q 722 -72 456 397 
Q 184 884 353 1747 
Q 534 2675 1009 3097 
Q 1544 3569 2166 3578 
z
" transform="scale(0.015625)"/>
      <path id="DejaVuSans-3d" d="M 678 2906 
L 4684 2906 
L 4684 2381 
L 678 2381 
L 678 2906 
z
M 678 1631 
L 4684 1631 
L 4684 1100 
L 678 1100 
L 678 1631 
z
" transform="scale(0.015625)"/>
      <path id="DejaVuSans-30" d="M 2034 4250 
Q 1547 4250 1301 3770 
Q 1056 3291 1056 2328 
Q 1056 1369 1301 889 
Q 1547 409 2034 409 
Q 2525 409 2770 889 
Q 3016 1369 3016 2328 
Q 3016 3291 2770 3770 
Q 2525 4250 2034 4250 
z
M 2034 4750 
Q 2819 4750 3233 4129 
Q 3647 3509 3647 2328 
Q 3647 1150 3233 529 
Q 2819 -91 2034 -91 
Q 1250 -91 836 529 
Q 422 1150 422 2328 
Q 422 3509 836 4129 
Q 1250 4750 2034 4750 
z
" transform="scale(0.015625)"/>
      <path id="DejaVuSans-2e" d="M 684 794 
L 1344 794 
L 1344 0 
L 684 0 
L 684 794 
z
" transform="scale(0.015625)"/>
      <path id="DejaVuSans-31" d="M 794 531 
L 1825 531 
L 1825 4091 
L 703 3866 
L 703 4441 
L 1819 4666 
L 2450 4666 
L 2450 531 
L 3481 531 
L 3481 0 
L 794 0 
L 794 531 
z
" transform="scale(0.015625)"/>
      <path id="NotoSansCJKkr-Regular-29" d="M 634 -1254 
C 1222 -301 1574 730 1574 1990 
C 1574 3245 1222 4275 634 5235 
L 269 5069 
C 819 4154 1094 3072 1094 1990 
C 1094 902 819 -186 269 -1094 
L 634 -1254 
z
" transform="scale(0.015625)"/>
     </defs>
     <use xlink:href="#NotoSansCJKkr-Regular-acbd" transform="translate(0 0.296875)"/>
     <use xlink:href="#NotoSansCJKkr-Regular-c0ac" transform="translate(91.999985 0.296875)"/>
     <use xlink:href="#NotoSansCJKkr-Regular-d558" transform="translate(183.999969 0.296875)"/>
     <use xlink:href="#NotoSansCJKkr-Regular-ac15" transform="translate(275.999954 0.296875)"/>
     <use xlink:href="#NotoSansCJKkr-Regular-bc95" transform="translate(367.999939 0.296875)"/>
     <use xlink:href="#NotoSansCJKkr-Regular-20" transform="translate(459.999924 0.296875)"/>
     <use xlink:href="#NotoSansCJKkr-Regular-35" transform="translate(482.399918 0.296875)"/>
     <use xlink:href="#NotoSansCJKkr-Regular-c2a4" transform="translate(537.899902 0.296875)"/>
     <use xlink:href="#NotoSansCJKkr-Regular-d15d" transform="translate(629.899887 0.296875)"/>
     <use xlink:href="#NotoSansCJKkr-Regular-3a" transform="translate(721.899872 0.296875)"/>
     <use xlink:href="#NotoSansCJKkr-Regular-20" transform="translate(749.69986 0.296875)"/>
     <use xlink:href="#NotoSansCJKkr-Regular-c9c1" transform="translate(772.099854 0.296875)"/>
     <use xlink:href="#NotoSansCJKkr-Regular-c120" transform="translate(864.099838 0.296875)"/>
     <use xlink:href="#NotoSansCJKkr-Regular-c774" transform="translate(956.099823 0.296875)"/>
     <use xlink:href="#NotoSansCJKkr-Regular-20" transform="translate(1048.099808 0.296875)"/>
     <use xlink:href="#NotoSansCJKkr-Regular-b370" transform="translate(1070.499802 0.296875)"/>
     <use xlink:href="#NotoSansCJKkr-Regular-c774" transform="translate(1162.499786 0.296875)"/>
     <use xlink:href="#NotoSansCJKkr-Regular-d130" transform="translate(1254.499771 0.296875)"/>
     <use xlink:href="#NotoSansCJKkr-Regular-c5d0" transform="translate(1346.499756 0.296875)"/>
     <use xlink:href="#NotoSansCJKkr-Regular-20" transform="translate(1438.499741 0.296875)"/>
     <use xlink:href="#NotoSansCJKkr-Regular-b9de" transform="translate(1460.899734 0.296875)"/>
     <use xlink:href="#NotoSansCJKkr-Regular-cdb0" transform="translate(1552.899719 0.296875)"/>
     <use xlink:href="#NotoSansCJKkr-Regular-c9c0" transform="translate(1644.899704 0.296875)"/>
     <use xlink:href="#NotoSansCJKkr-Regular-b294" transform="translate(1736.899689 0.296875)"/>
     <use xlink:href="#NotoSansCJKkr-Regular-20" transform="translate(1828.899673 0.296875)"/>
     <use xlink:href="#NotoSansCJKkr-Regular-acfc" transform="translate(1851.299667 0.296875)"/>
     <use xlink:href="#NotoSansCJKkr-Regular-c815" transform="translate(1943.299652 0.296875)"/>
     <use xlink:href="#NotoSansCJKkr-Regular-20" transform="translate(2035.299637 0.296875)"/>
     <use xlink:href="#NotoSansCJKkr-Regular-28" transform="translate(2057.699631 0.296875)"/>
     <use xlink:href="#DejaVuSans-Oblique-3b1" transform="translate(2091.499619 0.296875)"/>
     <use xlink:href="#DejaVuSans-3d" transform="translate(2176.900009 0.296875)"/>
     <use xlink:href="#DejaVuSans-30" transform="translate(2280.171494 0.296875)"/>
     <use xlink:href="#DejaVuSans-2e" transform="translate(2343.79454 0.296875)"/>
     <use xlink:href="#DejaVuSans-31" transform="translate(2375.58165 0.296875)"/>
     <use xlink:href="#NotoSansCJKkr-Regular-29" transform="translate(2439.204697 0.296875)"/>
    </g>
   </g>
   <g id="line2d_35">
    <path d="M 60.171818 231.160687 
L 69.148071 228.155237 
L 78.124323 225.149787 
L 87.100575 222.144337 
L 96.076827 219.138887 
L 105.05308 216.133437 
L 114.029332 213.127987 
L 123.005584 210.122537 
L 131.981837 207.117086 
L 140.958089 204.111636 
L 149.934341 201.106186 
L 158.910594 198.100736 
L 167.886846 195.095286 
L 176.863098 192.089836 
L 185.839351 189.084386 
L 194.815603 186.078936 
L 203.791855 183.073485 
L 212.768108 180.068035 
L 221.74436 177.062585 
L 230.720612 174.057135 
L 239.696865 171.051685 
L 248.673117 168.046235 
L 257.649369 165.040785 
L 266.625622 162.035335 
L 275.601874 159.029884 
L 284.578126 156.024434 
L 293.554378 153.018984 
L 302.530631 150.013534 
L 311.506883 147.008084 
L 320.483135 144.002634 
L 329.459388 140.997184 
L 338.43564 137.991734 
L 347.411892 134.986283 
L 356.388145 131.980833 
L 365.364397 128.975383 
L 374.340649 125.969933 
L 383.316902 122.964483 
L 392.293154 119.959033 
L 401.269406 116.953583 
L 410.245659 113.948133 
L 419.221911 110.942682 
L 428.198163 107.937232 
L 437.174416 104.931782 
L 446.150668 101.926332 
L 455.12692 98.920882 
L 464.103173 95.915432 
L 473.079425 92.909982 
L 482.055677 89.904532 
L 491.031929 86.899081 
L 500.008182 83.893631 
" clip-path="url(#p2c165067e6)" style="fill: none; stroke: #ff9900; stroke-width: 1.4; stroke-linecap: square"/>
   </g>
   <g id="line2d_36">
    <path d="M 60.171818 224.797543 
L 69.148071 221.380356 
L 78.124323 217.963168 
L 87.100575 214.545981 
L 96.076827 211.128794 
L 105.05308 207.711606 
L 114.029332 204.294419 
L 123.005584 200.877232 
L 131.981837 197.460045 
L 140.958089 194.042857 
L 149.934341 190.62567 
L 158.910594 187.208483 
L 167.886846 183.791295 
L 176.863098 180.374108 
L 185.839351 176.956921 
L 194.815603 173.539734 
L 203.791855 170.122546 
L 212.768108 166.705359 
L 221.74436 163.288172 
L 230.720612 159.870985 
L 239.696865 156.453797 
L 248.673117 153.03661 
L 257.649369 149.619423 
L 266.625622 146.202235 
L 275.601874 142.785048 
L 284.578126 139.367861 
L 293.554378 135.950674 
L 302.530631 132.533486 
L 311.506883 129.116299 
L 320.483135 125.699112 
L 329.459388 122.281925 
L 338.43564 118.864737 
L 347.411892 115.44755 
L 356.388145 112.030363 
L 365.364397 108.613175 
L 374.340649 105.195988 
L 383.316902 101.778801 
L 392.293154 98.361614 
L 401.269406 94.944426 
L 410.245659 91.527239 
L 419.221911 88.110052 
L 428.198163 84.692864 
L 437.174416 81.275677 
L 446.150668 77.85849 
L 455.12692 74.441303 
L 464.103173 71.024115 
L 473.079425 67.606928 
L 482.055677 64.189741 
L 491.031929 60.772554 
L 500.008182 57.355366 
" clip-path="url(#p2c165067e6)" style="fill: none; stroke: #ff6600; stroke-width: 1.4; stroke-linecap: square"/>
   </g>
   <g id="legend_1">
    <g id="patch_7">
     <path d="M 43.78 121.56375 
L 147.3 121.56375 
Q 148.9 121.56375 148.9 119.96375 
L 148.9 34.04375 
Q 148.9 32.44375 147.3 32.44375 
L 43.78 32.44375 
Q 42.18 32.44375 42.18 34.04375 
L 42.18 119.96375 
Q 42.18 121.56375 43.78 121.56375 
z
" style="fill: #ffffff; opacity: 0.8; stroke: #cccccc; stroke-linejoin: miter"/>
    </g>
    <g id="line2d_37">
     <path d="M 45.38 39.40375 
L 53.38 39.40375 
L 61.38 39.40375 
" style="fill: none; stroke: #ffff00; stroke-width: 1.4; stroke-linecap: square"/>
    </g>
    <g id="text_20">
     <!-- step 0: $w$=(0.00, 0.00) -->
     <g transform="translate(67.78 42.20375) scale(0.08 -0.08)">
      <defs>
       <path id="NotoSansCJKkr-Regular-73" d="M 1498 -83 
C 2317 -83 2758 384 2758 947 
C 2758 1606 2208 1811 1702 2003 
C 1312 2150 954 2278 954 2605 
C 954 2880 1158 3110 1600 3110 
C 1907 3110 2150 2976 2387 2803 
L 2669 3168 
C 2406 3386 2022 3565 1594 3565 
C 832 3565 397 3130 397 2579 
C 397 1984 922 1754 1408 1574 
C 1792 1434 2202 1267 2202 915 
C 2202 614 1978 371 1517 371 
C 1101 371 794 538 486 787 
L 205 397 
C 531 122 1005 -83 1498 -83 
z
" transform="scale(0.015625)"/>
       <path id="NotoSansCJKkr-Regular-74" d="M 1677 -83 
C 1894 -83 2125 -19 2323 45 
L 2208 486 
C 2093 435 1939 390 1811 390 
C 1408 390 1274 634 1274 1056 
L 1274 3002 
L 2221 3002 
L 2221 3475 
L 1274 3475 
L 1274 4454 
L 787 4454 
L 723 3475 
L 173 3443 
L 173 3002 
L 691 3002 
L 691 1075 
C 691 378 941 -83 1677 -83 
z
" transform="scale(0.015625)"/>
       <path id="NotoSansCJKkr-Regular-65" d="M 1997 -83 
C 2464 -83 2835 70 3136 269 
L 2931 659 
C 2669 486 2400 384 2061 384 
C 1402 384 947 858 909 1600 
L 3251 1600 
C 3264 1690 3277 1805 3277 1933 
C 3277 2925 2778 3565 1888 3565 
C 1094 3565 333 2867 333 1734 
C 333 589 1069 -83 1997 -83 
z
M 902 2016 
C 973 2707 1408 3098 1901 3098 
C 2445 3098 2765 2720 2765 2016 
L 902 2016 
z
" transform="scale(0.015625)"/>
       <path id="NotoSansCJKkr-Regular-70" d="M 589 -1466 
L 1178 -1466 
L 1178 -288 
L 1158 320 
C 1472 58 1805 -83 2118 -83 
C 2912 -83 3629 602 3629 1792 
C 3629 2867 3142 3565 2246 3565 
C 1843 3565 1453 3334 1139 3072 
L 1126 3072 
L 1069 3475 
L 589 3475 
L 589 -1466 
z
M 2022 410 
C 1792 410 1485 499 1178 768 
L 1178 2598 
C 1510 2906 1811 3072 2099 3072 
C 2765 3072 3021 2560 3021 1786 
C 3021 928 2598 410 2022 410 
z
" transform="scale(0.015625)"/>
       <path id="DejaVuSans-Oblique-77" d="M 544 3500 
L 1113 3500 
L 1259 684 
L 2566 3500 
L 3231 3500 
L 3425 684 
L 4666 3500 
L 5241 3500 
L 3641 0 
L 2969 0 
L 2797 2900 
L 1459 0 
L 781 0 
L 544 3500 
z
" transform="scale(0.015625)"/>
       <path id="NotoSansCJKkr-Regular-3d" d="M 243 2912 
L 3315 2912 
L 3315 3347 
L 243 3347 
L 243 2912 
z
M 243 1376 
L 3315 1376 
L 3315 1811 
L 243 1811 
L 243 1376 
z
" transform="scale(0.015625)"/>
       <path id="NotoSansCJKkr-Regular-2c" d="M 480 -1216 
C 1056 -973 1414 -493 1414 122 
C 1414 550 1229 806 922 806 
C 685 806 480 653 480 397 
C 480 141 678 -13 909 -13 
L 979 -6 
C 973 -390 736 -698 339 -870 
L 480 -1216 
z
" transform="scale(0.015625)"/>
      </defs>
      <use xlink:href="#NotoSansCJKkr-Regular-73" transform="translate(0 0.203125)"/>
      <use xlink:href="#NotoSansCJKkr-Regular-74" transform="translate(46.799988 0.203125)"/>
      <use xlink:href="#NotoSansCJKkr-Regular-65" transform="translate(84.499985 0.203125)"/>
      <use xlink:href="#NotoSansCJKkr-Regular-70" transform="translate(139.899979 0.203125)"/>
      <use xlink:href="#NotoSansCJKkr-Regular-20" transform="translate(201.899963 0.203125)"/>
      <use xlink:href="#NotoSansCJKkr-Regular-30" transform="translate(224.299957 0.203125)"/>
      <use xlink:href="#NotoSansCJKkr-Regular-3a" transform="translate(279.799942 0.203125)"/>
      <use xlink:href="#NotoSansCJKkr-Regular-20" transform="translate(307.59993 0.203125)"/>
      <use xlink:href="#DejaVuSans-Oblique-77" transform="translate(329.999924 0.203125)"/>
      <use xlink:href="#NotoSansCJKkr-Regular-3d" transform="translate(411.787033 0.203125)"/>
      <use xlink:href="#NotoSansCJKkr-Regular-28" transform="translate(467.287018 0.203125)"/>
      <use xlink:href="#NotoSansCJKkr-Regular-30" transform="translate(501.087006 0.203125)"/>
      <use xlink:href="#NotoSansCJKkr-Regular-2e" transform="translate(556.58699 0.203125)"/>
      <use xlink:href="#NotoSansCJKkr-Regular-30" transform="translate(584.386978 0.203125)"/>
      <use xlink:href="#NotoSansCJKkr-Regular-30" transform="translate(639.886963 0.203125)"/>
      <use xlink:href="#NotoSansCJKkr-Regular-2c" transform="translate(695.386948 0.203125)"/>
      <use xlink:href="#NotoSansCJKkr-Regular-20" transform="translate(723.186935 0.203125)"/>
      <use xlink:href="#NotoSansCJKkr-Regular-30" transform="translate(745.586929 0.203125)"/>
      <use xlink:href="#NotoSansCJKkr-Regular-2e" transform="translate(801.086914 0.203125)"/>
      <use xlink:href="#NotoSansCJKkr-Regular-30" transform="translate(828.886902 0.203125)"/>
      <use xlink:href="#NotoSansCJKkr-Regular-30" transform="translate(884.386887 0.203125)"/>
      <use xlink:href="#NotoSansCJKkr-Regular-29" transform="translate(939.886871 0.203125)"/>
     </g>
    </g>
    <g id="line2d_38">
     <path d="M 45.38 51.80375 
L 53.38 51.80375 
L 61.38 51.80375 
" style="fill: none; stroke: #ffcc00; stroke-width: 1.4; stroke-linecap: square"/>
    </g>
    <g id="text_21">
     <!-- step 1: $w$=(0.50, 1.13) -->
     <g transform="translate(67.78 54.60375) scale(0.08 -0.08)">
      <use xlink:href="#NotoSansCJKkr-Regular-73" transform="translate(0 0.203125)"/>
      <use xlink:href="#NotoSansCJKkr-Regular-74" transform="translate(46.799988 0.203125)"/>
      <use xlink:href="#NotoSansCJKkr-Regular-65" transform="translate(84.499985 0.203125)"/>
      <use xlink:href="#NotoSansCJKkr-Regular-70" transform="translate(139.899979 0.203125)"/>
      <use xlink:href="#NotoSansCJKkr-Regular-20" transform="translate(201.899963 0.203125)"/>
      <use xlink:href="#NotoSansCJKkr-Regular-31" transform="translate(224.299957 0.203125)"/>
      <use xlink:href="#NotoSansCJKkr-Regular-3a" transform="translate(279.799942 0.203125)"/>
      <use xlink:href="#NotoSansCJKkr-Regular-20" transform="translate(307.59993 0.203125)"/>
      <use xlink:href="#DejaVuSans-Oblique-77" transform="translate(329.999924 0.203125)"/>
      <use xlink:href="#NotoSansCJKkr-Regular-3d" transform="translate(411.787033 0.203125)"/>
      <use xlink:href="#NotoSansCJKkr-Regular-28" transform="translate(467.287018 0.203125)"/>
      <use xlink:href="#NotoSansCJKkr-Regular-30" transform="translate(501.087006 0.203125)"/>
      <use xlink:href="#NotoSansCJKkr-Regular-2e" transform="translate(556.58699 0.203125)"/>
      <use xlink:href="#NotoSansCJKkr-Regular-35" transform="translate(584.386978 0.203125)"/>
      <use xlink:href="#NotoSansCJKkr-Regular-30" transform="translate(639.886963 0.203125)"/>
      <use xlink:href="#NotoSansCJKkr-Regular-2c" transform="translate(695.386948 0.203125)"/>
      <use xlink:href="#NotoSansCJKkr-Regular-20" transform="translate(723.186935 0.203125)"/>
      <use xlink:href="#NotoSansCJKkr-Regular-31" transform="translate(745.586929 0.203125)"/>
      <use xlink:href="#NotoSansCJKkr-Regular-2e" transform="translate(801.086914 0.203125)"/>
      <use xlink:href="#NotoSansCJKkr-Regular-31" transform="translate(828.886902 0.203125)"/>
      <use xlink:href="#NotoSansCJKkr-Regular-33" transform="translate(884.386887 0.203125)"/>
      <use xlink:href="#NotoSansCJKkr-Regular-29" transform="translate(939.886871 0.203125)"/>
     </g>
    </g>
    <g id="line2d_39">
     <path d="M 45.38 64.20375 
L 53.38 64.20375 
L 61.38 64.20375 
" style="fill: none; stroke: #ff9900; stroke-width: 1.4; stroke-linecap: square"/>
    </g>
    <g id="text_22">
     <!-- step 2: $w$=(0.72, 1.64) -->
     <g transform="translate(67.78 67.00375) scale(0.08 -0.08)">
      <use xlink:href="#NotoSansCJKkr-Regular-73" transform="translate(0 0.203125)"/>
      <use xlink:href="#NotoSansCJKkr-Regular-74" transform="translate(46.799988 0.203125)"/>
      <use xlink:href="#NotoSansCJKkr-Regular-65" transform="translate(84.499985 0.203125)"/>
      <use xlink:href="#NotoSansCJKkr-Regular-70" transform="translate(139.899979 0.203125)"/>
      <use xlink:href="#NotoSansCJKkr-Regular-20" transform="translate(201.899963 0.203125)"/>
      <use xlink:href="#NotoSansCJKkr-Regular-32" transform="translate(224.299957 0.203125)"/>
      <use xlink:href="#NotoSansCJKkr-Regular-3a" transform="translate(279.799942 0.203125)"/>
      <use xlink:href="#NotoSansCJKkr-Regular-20" transform="translate(307.59993 0.203125)"/>
      <use xlink:href="#DejaVuSans-Oblique-77" transform="translate(329.999924 0.203125)"/>
      <use xlink:href="#NotoSansCJKkr-Regular-3d" transform="translate(411.787033 0.203125)"/>
      <use xlink:href="#NotoSansCJKkr-Regular-28" transform="translate(467.287018 0.203125)"/>
      <use xlink:href="#NotoSansCJKkr-Regular-30" transform="translate(501.087006 0.203125)"/>
      <use xlink:href="#NotoSansCJKkr-Regular-2e" transform="translate(556.58699 0.203125)"/>
      <use xlink:href="#NotoSansCJKkr-Regular-37" transform="translate(584.386978 0.203125)"/>
      <use xlink:href="#NotoSansCJKkr-Regular-32" transform="translate(639.886963 0.203125)"/>
      <use xlink:href="#NotoSansCJKkr-Regular-2c" transform="translate(695.386948 0.203125)"/>
      <use xlink:href="#NotoSansCJKkr-Regular-20" transform="translate(723.186935 0.203125)"/>
      <use xlink:href="#NotoSansCJKkr-Regular-31" transform="translate(745.586929 0.203125)"/>
      <use xlink:href="#NotoSansCJKkr-Regular-2e" transform="translate(801.086914 0.203125)"/>
      <use xlink:href="#NotoSansCJKkr-Regular-36" transform="translate(828.886902 0.203125)"/>
      <use xlink:href="#NotoSansCJKkr-Regular-34" transform="translate(884.386887 0.203125)"/>
      <use xlink:href="#NotoSansCJKkr-Regular-29" transform="translate(939.886871 0.203125)"/>
     </g>
    </g>
    <g id="line2d_40">
     <path d="M 45.38 76.60375 
L 53.38 76.60375 
L 61.38 76.60375 
" style="fill: none; stroke: #ff6600; stroke-width: 1.4; stroke-linecap: square"/>
    </g>
    <g id="text_23">
     <!-- step 3: $w$=(0.82, 1.86) -->
     <g transform="translate(67.78 79.40375) scale(0.08 -0.08)">
      <use xlink:href="#NotoSansCJKkr-Regular-73" transform="translate(0 0.203125)"/>
      <use xlink:href="#NotoSansCJKkr-Regular-74" transform="translate(46.799988 0.203125)"/>
      <use xlink:href="#NotoSansCJKkr-Regular-65" transform="translate(84.499985 0.203125)"/>
      <use xlink:href="#NotoSansCJKkr-Regular-70" transform="translate(139.899979 0.203125)"/>
      <use xlink:href="#NotoSansCJKkr-Regular-20" transform="translate(201.899963 0.203125)"/>
      <use xlink:href="#NotoSansCJKkr-Regular-33" transform="translate(224.299957 0.203125)"/>
      <use xlink:href="#NotoSansCJKkr-Regular-3a" transform="translate(279.799942 0.203125)"/>
      <use xlink:href="#NotoSansCJKkr-Regular-20" transform="translate(307.59993 0.203125)"/>
      <use xlink:href="#DejaVuSans-Oblique-77" transform="translate(329.999924 0.203125)"/>
      <use xlink:href="#NotoSansCJKkr-Regular-3d" transform="translate(411.787033 0.203125)"/>
      <use xlink:href="#NotoSansCJKkr-Regular-28" transform="translate(467.287018 0.203125)"/>
      <use xlink:href="#NotoSansCJKkr-Regular-30" transform="translate(501.087006 0.203125)"/>
      <use xlink:href="#NotoSansCJKkr-Regular-2e" transform="translate(556.58699 0.203125)"/>
      <use xlink:href="#NotoSansCJKkr-Regular-38" transform="translate(584.386978 0.203125)"/>
      <use xlink:href="#NotoSansCJKkr-Regular-32" transform="translate(639.886963 0.203125)"/>
      <use xlink:href="#NotoSansCJKkr-Regular-2c" transform="translate(695.386948 0.203125)"/>
      <use xlink:href="#NotoSansCJKkr-Regular-20" transform="translate(723.186935 0.203125)"/>
      <use xlink:href="#NotoSansCJKkr-Regular-31" transform="translate(745.586929 0.203125)"/>
      <use xlink:href="#NotoSansCJKkr-Regular-2e" transform="translate(801.086914 0.203125)"/>
      <use xlink:href="#NotoSansCJKkr-Regular-38" transform="translate(828.886902 0.203125)"/>
      <use xlink:href="#NotoSansCJKkr-Regular-36" transform="translate(884.386887 0.203125)"/>
      <use xlink:href="#NotoSansCJKkr-Regular-29" transform="translate(939.886871 0.203125)"/>
     </g>
    </g>
    <g id="line2d_41">
     <path d="M 45.38 89.00375 
L 53.38 89.00375 
L 61.38 89.00375 
" style="fill: none; stroke: #ff3300; stroke-width: 1.4; stroke-linecap: square"/>
    </g>
    <g id="text_24">
     <!-- step 4: $w$=(0.87, 1.96) -->
     <g transform="translate(67.78 91.80375) scale(0.08 -0.08)">
      <defs>
       <path id="NotoSansCJKkr-Regular-39" d="M 1504 -83 
C 2381 -83 3206 646 3206 2547 
C 3206 4038 2528 4774 1626 4774 
C 896 4774 282 4166 282 3251 
C 282 2285 794 1779 1574 1779 
C 1965 1779 2368 2003 2656 2349 
C 2611 896 2086 403 1485 403 
C 1178 403 896 538 691 762 
L 371 397 
C 634 122 992 -83 1504 -83 
z
M 2650 2842 
C 2336 2394 1984 2214 1670 2214 
C 1114 2214 832 2624 832 3251 
C 832 3898 1178 4320 1632 4320 
C 2227 4320 2586 3808 2650 2842 
z
" transform="scale(0.015625)"/>
      </defs>
      <use xlink:href="#NotoSansCJKkr-Regular-73" transform="translate(0 0.203125)"/>
      <use xlink:href="#NotoSansCJKkr-Regular-74" transform="translate(46.799988 0.203125)"/>
      <use xlink:href="#NotoSansCJKkr-Regular-65" transform="translate(84.499985 0.203125)"/>
      <use xlink:href="#NotoSansCJKkr-Regular-70" transform="translate(139.899979 0.203125)"/>
      <use xlink:href="#NotoSansCJKkr-Regular-20" transform="translate(201.899963 0.203125)"/>
      <use xlink:href="#NotoSansCJKkr-Regular-34" transform="translate(224.299957 0.203125)"/>
      <use xlink:href="#NotoSansCJKkr-Regular-3a" transform="translate(279.799942 0.203125)"/>
      <use xlink:href="#NotoSansCJKkr-Regular-20" transform="translate(307.59993 0.203125)"/>
      <use xlink:href="#DejaVuSans-Oblique-77" transform="translate(329.999924 0.203125)"/>
      <use xlink:href="#NotoSansCJKkr-Regular-3d" transform="translate(411.787033 0.203125)"/>
      <use xlink:href="#NotoSansCJKkr-Regular-28" transform="translate(467.287018 0.203125)"/>
      <use xlink:href="#NotoSansCJKkr-Regular-30" transform="translate(501.087006 0.203125)"/>
      <use xlink:href="#NotoSansCJKkr-Regular-2e" transform="translate(556.58699 0.203125)"/>
      <use xlink:href="#NotoSansCJKkr-Regular-38" transform="translate(584.386978 0.203125)"/>
      <use xlink:href="#NotoSansCJKkr-Regular-37" transform="translate(639.886963 0.203125)"/>
      <use xlink:href="#NotoSansCJKkr-Regular-2c" transform="translate(695.386948 0.203125)"/>
      <use xlink:href="#NotoSansCJKkr-Regular-20" transform="translate(723.186935 0.203125)"/>
      <use xlink:href="#NotoSansCJKkr-Regular-31" transform="translate(745.586929 0.203125)"/>
      <use xlink:href="#NotoSansCJKkr-Regular-2e" transform="translate(801.086914 0.203125)"/>
      <use xlink:href="#NotoSansCJKkr-Regular-39" transform="translate(828.886902 0.203125)"/>
      <use xlink:href="#NotoSansCJKkr-Regular-36" transform="translate(884.386887 0.203125)"/>
      <use xlink:href="#NotoSansCJKkr-Regular-29" transform="translate(939.886871 0.203125)"/>
     </g>
    </g>
    <g id="line2d_42">
     <path d="M 45.38 101.40375 
L 53.38 101.40375 
L 61.38 101.40375 
" style="fill: none; stroke: #ff0000; stroke-width: 3.2; stroke-linecap: square"/>
    </g>
    <g id="text_25">
     <!-- step 5: $w$=(0.89, 2.01) -->
     <g transform="translate(67.78 104.20375) scale(0.08 -0.08)">
      <use xlink:href="#NotoSansCJKkr-Regular-73" transform="translate(0 0.203125)"/>
      <use xlink:href="#NotoSansCJKkr-Regular-74" transform="translate(46.799988 0.203125)"/>
      <use xlink:href="#NotoSansCJKkr-Regular-65" transform="translate(84.499985 0.203125)"/>
      <use xlink:href="#NotoSansCJKkr-Regular-70" transform="translate(139.899979 0.203125)"/>
      <use xlink:href="#NotoSansCJKkr-Regular-20" transform="translate(201.899963 0.203125)"/>
      <use xlink:href="#NotoSansCJKkr-Regular-35" transform="translate(224.299957 0.203125)"/>
      <use xlink:href="#NotoSansCJKkr-Regular-3a" transform="translate(279.799942 0.203125)"/>
      <use xlink:href="#NotoSansCJKkr-Regular-20" transform="translate(307.59993 0.203125)"/>
      <use xlink:href="#DejaVuSans-Oblique-77" transform="translate(329.999924 0.203125)"/>
      <use xlink:href="#NotoSansCJKkr-Regular-3d" transform="translate(411.787033 0.203125)"/>
      <use xlink:href="#NotoSansCJKkr-Regular-28" transform="translate(467.287018 0.203125)"/>
      <use xlink:href="#NotoSansCJKkr-Regular-30" transform="translate(501.087006 0.203125)"/>
      <use xlink:href="#NotoSansCJKkr-Regular-2e" transform="translate(556.58699 0.203125)"/>
      <use xlink:href="#NotoSansCJKkr-Regular-38" transform="translate(584.386978 0.203125)"/>
      <use xlink:href="#NotoSansCJKkr-Regular-39" transform="translate(639.886963 0.203125)"/>
      <use xlink:href="#NotoSansCJKkr-Regular-2c" transform="translate(695.386948 0.203125)"/>
      <use xlink:href="#NotoSansCJKkr-Regular-20" transform="translate(723.186935 0.203125)"/>
      <use xlink:href="#NotoSansCJKkr-Regular-32" transform="translate(745.586929 0.203125)"/>
      <use xlink:href="#NotoSansCJKkr-Regular-2e" transform="translate(801.086914 0.203125)"/>
      <use xlink:href="#NotoSansCJKkr-Regular-30" transform="translate(828.886902 0.203125)"/>
      <use xlink:href="#NotoSansCJKkr-Regular-31" transform="translate(884.386887 0.203125)"/>
      <use xlink:href="#NotoSansCJKkr-Regular-29" transform="translate(939.886871 0.203125)"/>
     </g>
    </g>
    <g id="PathCollection_1">
     <defs>
      <path id="m750f1fec1b" d="M 0 5.244044 
C 1.390737 5.244044 2.7247 4.691499 3.708099 3.708099 
C 4.691499 2.7247 5.244044 1.390737 5.244044 0 
C 5.244044 -1.390737 4.691499 -2.7247 3.708099 -3.708099 
C 2.7247 -4.691499 1.390737 -5.244044 0 -5.244044 
C -1.390737 -5.244044 -2.7247 -4.691499 -3.708099 -3.708099 
C -4.691499 -2.7247 -5.244044 -1.390737 -5.244044 0 
C -5.244044 1.390737 -4.691499 2.7247 -3.708099 3.708099 
C -2.7247 4.691499 -1.390737 5.244044 0 5.244044 
z
" style="stroke: #1f77b4"/>
     </defs>
     <g>
      <use xlink:href="#m750f1fec1b" x="53.38" y="114.43125" style="fill: #1f77b4; stroke: #1f77b4"/>
     </g>
    </g>
    <g id="text_26">
     <!-- 데이터 $(x,y)$ -->
     <g transform="translate(67.78 116.53125) scale(0.08 -0.08)">
      <defs>
       <path id="DejaVuSans-28" d="M 1984 4856 
Q 1566 4138 1362 3434 
Q 1159 2731 1159 2009 
Q 1159 1288 1364 580 
Q 1569 -128 1984 -844 
L 1484 -844 
Q 1016 -109 783 600 
Q 550 1309 550 2009 
Q 550 2706 781 3412 
Q 1013 4119 1484 4856 
L 1984 4856 
z
" transform="scale(0.015625)"/>
       <path id="DejaVuSans-2c" d="M 750 794 
L 1409 794 
L 1409 256 
L 897 -744 
L 494 -744 
L 750 256 
L 750 794 
z
" transform="scale(0.015625)"/>
       <path id="DejaVuSans-29" d="M 513 4856 
L 1013 4856 
Q 1481 4119 1714 3412 
Q 1947 2706 1947 2009 
Q 1947 1309 1714 600 
Q 1481 -109 1013 -844 
L 513 -844 
Q 928 -128 1133 580 
Q 1338 1288 1338 2009 
Q 1338 2731 1133 3434 
Q 928 4138 513 4856 
z
" transform="scale(0.015625)"/>
      </defs>
      <use xlink:href="#NotoSansCJKkr-Regular-b370" transform="translate(0 0.296875)"/>
      <use xlink:href="#NotoSansCJKkr-Regular-c774" transform="translate(91.999985 0.296875)"/>
      <use xlink:href="#NotoSansCJKkr-Regular-d130" transform="translate(183.999969 0.296875)"/>
      <use xlink:href="#NotoSansCJKkr-Regular-20" transform="translate(275.999954 0.296875)"/>
      <use xlink:href="#DejaVuSans-28" transform="translate(298.399948 0.296875)"/>
      <use xlink:href="#DejaVuSans-Oblique-78" transform="translate(337.41362 0.296875)"/>
      <use xlink:href="#DejaVuSans-2c" transform="translate(396.593307 0.296875)"/>
      <use xlink:href="#DejaVuSans-Oblique-79" transform="translate(447.862839 0.296875)"/>
      <use xlink:href="#DejaVuSans-29" transform="translate(507.042526 0.296875)"/>
     </g>
    </g>
   </g>
   <g id="line2d_43">
    <path d="M 60.171818 221.948707 
L 69.148071 218.348669 
L 78.124323 214.748631 
L 87.100575 211.148593 
L 96.076827 207.548555 
L 105.05308 203.948517 
L 114.029332 200.348479 
L 123.005584 196.748441 
L 131.981837 193.148403 
L 140.958089 189.548364 
L 149.934341 185.948326 
L 158.910594 182.348288 
L 167.886846 178.74825 
L 176.863098 175.148212 
L 185.839351 171.548174 
L 194.815603 167.948136 
L 203.791855 164.348098 
L 212.768108 160.74806 
L 221.74436 157.148022 
L 230.720612 153.547984 
L 239.696865 149.947946 
L 248.673117 146.347907 
L 257.649369 142.747869 
L 266.625622 139.147831 
L 275.601874 135.547793 
L 284.578126 131.947755 
L 293.554378 128.347717 
L 302.530631 124.747679 
L 311.506883 121.147641 
L 320.483135 117.547603 
L 329.459388 113.947565 
L 338.43564 110.347527 
L 347.411892 106.747489 
L 356.388145 103.14745 
L 365.364397 99.547412 
L 374.340649 95.947374 
L 383.316902 92.347336 
L 392.293154 88.747298 
L 401.269406 85.14726 
L 410.245659 81.547222 
L 419.221911 77.947184 
L 428.198163 74.347146 
L 437.174416 70.747108 
L 446.150668 67.14707 
L 455.12692 63.547032 
L 464.103173 59.946993 
L 473.079425 56.346955 
L 482.055677 52.746917 
L 491.031929 49.146879 
L 500.008182 45.546841 
" clip-path="url(#p2c165067e6)" style="fill: none; stroke: #ff3300; stroke-width: 1.4; stroke-linecap: square"/>
   </g>
   <g id="line2d_44">
    <path d="M 60.171818 220.66516 
L 69.148071 216.9842 
L 78.124323 213.30324 
L 87.100575 209.62228 
L 96.076827 205.94132 
L 105.05308 202.26036 
L 114.029332 198.5794 
L 123.005584 194.89844 
L 131.981837 191.217481 
L 140.958089 187.536521 
L 149.934341 183.855561 
L 158.910594 180.174601 
L 167.886846 176.493641 
L 176.863098 172.812681 
L 185.839351 169.131721 
L 194.815603 165.450761 
L 203.791855 161.769801 
L 212.768108 158.088842 
L 221.74436 154.407882 
L 230.720612 150.726922 
L 239.696865 147.045962 
L 248.673117 143.365002 
L 257.649369 139.684042 
L 266.625622 136.003082 
L 275.601874 132.322122 
L 284.578126 128.641162 
L 293.554378 124.960203 
L 302.530631 121.279243 
L 311.506883 117.598283 
L 320.483135 113.917323 
L 329.459388 110.236363 
L 338.43564 106.555403 
L 347.411892 102.874443 
L 356.388145 99.193483 
L 365.364397 95.512523 
L 374.340649 91.831563 
L 383.316902 88.150604 
L 392.293154 84.469644 
L 401.269406 80.788684 
L 410.245659 77.107724 
L 419.221911 73.426764 
L 428.198163 69.745804 
L 437.174416 66.064844 
L 446.150668 62.383884 
L 455.12692 58.702924 
L 464.103173 55.021965 
L 473.079425 51.341005 
L 482.055677 47.660045 
L 491.031929 43.979085 
L 500.008182 40.298125 
" clip-path="url(#p2c165067e6)" style="fill: none; stroke: #ff0000; stroke-width: 3.2; stroke-linecap: square"/>
   </g>
   <g id="PathCollection_2">
    <g clip-path="url(#p2c165067e6)">
     <use xlink:href="#m750f1fec1b" x="133.477879" y="187.466798" style="fill: #1f77b4; stroke: #1f77b4"/>
     <use xlink:href="#m750f1fec1b" x="280.09" y="127.520914" style="fill: #1f77b4; stroke: #1f77b4"/>
     <use xlink:href="#m750f1fec1b" x="426.702121" y="67.575029" style="fill: #1f77b4; stroke: #1f77b4"/>
    </g>
   </g>
  </g>
 </g>
 <defs>
  <clipPath id="p2c165067e6">
   <rect x="38.18" y="28.44375" width="483.82" height="260.79625"/>
  </clipPath>
 </defs>
</svg>
