<?xml version="1.0" encoding="utf-8" standalone="no"?>
<!DOCTYPE svg PUBLIC "-//W3C//DTD SVG 1.1//EN"
  "http://www.w3.org/Graphics/SVG/1.1/DTD/svg11.dtd">
<svg xmlns:xlink="http://www.w3.org/1999/xlink" width="576pt" height="360pt" viewBox="0 0 576 360" xmlns="http://www.w3.org/2000/svg" version="1.1">
 <metadata>
  <rdf:RDF xmlns:dc="http://purl.org/dc/elements/1.1/" xmlns:cc="http://creativecommons.org/ns#" xmlns:rdf="http://www.w3.org/1999/02/22-rdf-syntax-ns#">
   <cc:Work>
    <dc:type rdf:resource="http://purl.org/dc/dcmitype/StillImage"/>
    <dc:date>2026-08-23T02:22:42.338031</dc:date>
    <dc:format>image/svg+xml</dc:format>
    <dc:creator>
     <cc:Agent>
      <dc:title>Matplotlib v3.11.1, https://matplotlib.org/</dc:title>
     </cc:Agent>
    </dc:creator>
   </cc:Work>
  </rdf:RDF>
 </metadata>
 <defs>
  <style type="text/css">*{stroke-linejoin: round; stroke-linecap: butt}</style>
 </defs>
 <g id="figure_1">
  <g id="patch_1">
   <path d="M 0 360 
L 576 360 
L 576 0 
L 0 0 
z
" style="fill: #ffffff"/>
  </g>
  <g id="axes_1">
   <g id="patch_2">
    <path d="M 44.28 317.24 
L 565.2 317.24 
L 565.2 27.54375 
L 44.28 27.54375 
z
" style="fill: #ffffff"/>
   </g>
   <g id="matplotlib.axis_1">
    <g id="xtick_1">
     <g id="line2d_1">
      <defs>
       <path id="m6e754cb04d" d="M 0 0 
L 0 3.5 
" style="stroke: #000000; stroke-width: 0.8"/>
      </defs>
      <g>
       <use xlink:href="#m6e754cb04d" x="99.529091" y="317.24" style="stroke: #000000; stroke-width: 0.8"/>
      </g>
     </g>
     <g id="text_1">
      <!-- 2 -->
      <g transform="translate(96.754091 333.04) scale(0.1 -0.1)">
       <defs>
        <path id="NotoSansCJKkr-Regular-13" d="M 282 0 
L 3232 0 
L 3232 506 
L 1933 506 
C 1696 506 1408 480 1165 461 
C 2266 1504 3008 2458 3008 3398 
C 3008 4230 2477 4774 1638 4774 
C 1043 4774 634 4506 256 4090 
L 595 3757 
C 858 4070 1184 4301 1568 4301 
C 2150 4301 2432 3910 2432 3373 
C 2432 2566 1754 1632 282 346 
L 282 0 
z
" transform="scale(0.015625)"/>
       </defs>
       <use xlink:href="#NotoSansCJKkr-Regular-13"/>
      </g>
     </g>
    </g>
    <g id="xtick_2">
     <g id="line2d_2">
      <g>
       <use xlink:href="#m6e754cb04d" x="162.670909" y="317.24" style="stroke: #000000; stroke-width: 0.8"/>
      </g>
     </g>
     <g id="text_2">
      <!-- 4 -->
      <g transform="translate(159.895909 333.04) scale(0.1 -0.1)">
       <defs>
        <path id="NotoSansCJKkr-Regular-15" d="M 2176 0 
L 2726 0 
L 2726 1293 
L 3354 1293 
L 3354 1760 
L 2726 1760 
L 2726 4691 
L 2080 4691 
L 128 1677 
L 128 1293 
L 2176 1293 
L 2176 0 
z
M 2176 1760 
L 736 1760 
L 1805 3360 
C 1939 3590 2067 3827 2182 4051 
L 2208 4051 
C 2195 3814 2176 3430 2176 3200 
L 2176 1760 
z
" transform="scale(0.015625)"/>
       </defs>
       <use xlink:href="#NotoSansCJKkr-Regular-15"/>
      </g>
     </g>
    </g>
    <g id="xtick_3">
     <g id="line2d_3">
      <g>
       <use xlink:href="#m6e754cb04d" x="225.812727" y="317.24" style="stroke: #000000; stroke-width: 0.8"/>
      </g>
     </g>
     <g id="text_3">
      <!-- 6 -->
      <g transform="translate(223.037727 333.04) scale(0.1 -0.1)">
       <defs>
        <path id="NotoSansCJKkr-Regular-17" d="M 1926 -83 
C 2656 -83 3277 531 3277 1440 
C 3277 2426 2765 2912 1971 2912 
C 1606 2912 1197 2701 909 2349 
C 934 3802 1466 4294 2118 4294 
C 2400 4294 2682 4154 2861 3936 
L 3194 4294 
C 2931 4576 2579 4774 2093 4774 
C 1184 4774 358 4077 358 2240 
C 358 691 1030 -83 1926 -83 
z
M 922 1882 
C 1229 2317 1587 2477 1875 2477 
C 2445 2477 2720 2074 2720 1440 
C 2720 800 2374 378 1926 378 
C 1338 378 986 909 922 1882 
z
" transform="scale(0.015625)"/>
       </defs>
       <use xlink:href="#NotoSansCJKkr-Regular-17"/>
      </g>
     </g>
    </g>
    <g id="xtick_4">
     <g id="line2d_4">
      <g>
       <use xlink:href="#m6e754cb04d" x="288.954545" y="317.24" style="stroke: #000000; stroke-width: 0.8"/>
      </g>
     </g>
     <g id="text_4">
      <!-- 8 -->
      <g transform="translate(286.179545 333.04) scale(0.1 -0.1)">
       <defs>
        <path id="NotoSansCJKkr-Regular-19" d="M 1792 -83 
C 2669 -83 3258 448 3258 1126 
C 3258 1773 2880 2125 2470 2362 
L 2470 2394 
C 2746 2611 3091 3034 3091 3526 
C 3091 4250 2605 4762 1805 4762 
C 1075 4762 518 4282 518 3571 
C 518 3078 813 2726 1152 2490 
L 1152 2464 
C 723 2234 294 1792 294 1165 
C 294 442 922 -83 1792 -83 
z
M 2112 2547 
C 1555 2765 1050 3014 1050 3571 
C 1050 4026 1363 4326 1798 4326 
C 2298 4326 2592 3962 2592 3494 
C 2592 3149 2426 2829 2112 2547 
z
M 1798 352 
C 1235 352 813 717 813 1216 
C 813 1664 1082 2035 1459 2278 
C 2125 2010 2701 1779 2701 1146 
C 2701 678 2342 352 1798 352 
z
" transform="scale(0.015625)"/>
       </defs>
       <use xlink:href="#NotoSansCJKkr-Regular-19"/>
      </g>
     </g>
    </g>
    <g id="xtick_5">
     <g id="line2d_5">
      <g>
       <use xlink:href="#m6e754cb04d" x="352.096364" y="317.24" style="stroke: #000000; stroke-width: 0.8"/>
      </g>
     </g>
     <g id="text_5">
      <!-- 10 -->
      <g transform="translate(346.546364 333.04) scale(0.1 -0.1)">
       <defs>
        <path id="NotoSansCJKkr-Regular-12" d="M 563 0 
L 3136 0 
L 3136 486 
L 2195 486 
L 2195 4691 
L 1747 4691 
C 1491 4544 1190 4435 774 4358 
L 774 3987 
L 1613 3987 
L 1613 486 
L 563 486 
L 563 0 
z
" transform="scale(0.015625)"/>
        <path id="NotoSansCJKkr-Regular-11" d="M 1779 -83 
C 2669 -83 3238 723 3238 2362 
C 3238 3987 2669 4774 1779 4774 
C 883 4774 320 3987 320 2362 
C 320 723 883 -83 1779 -83 
z
M 1779 390 
C 1248 390 883 986 883 2362 
C 883 3731 1248 4314 1779 4314 
C 2310 4314 2675 3731 2675 2362 
C 2675 986 2310 390 1779 390 
z
" transform="scale(0.015625)"/>
       </defs>
       <use xlink:href="#NotoSansCJKkr-Regular-12"/>
       <use xlink:href="#NotoSansCJKkr-Regular-11" transform="translate(55.5 0)"/>
      </g>
     </g>
    </g>
    <g id="xtick_6">
     <g id="line2d_6">
      <g>
       <use xlink:href="#m6e754cb04d" x="415.238182" y="317.24" style="stroke: #000000; stroke-width: 0.8"/>
      </g>
     </g>
     <g id="text_6">
      <!-- 12 -->
      <g transform="translate(409.688182 333.04) scale(0.1 -0.1)">
       <use xlink:href="#NotoSansCJKkr-Regular-12"/>
       <use xlink:href="#NotoSansCJKkr-Regular-13" transform="translate(55.5 0)"/>
      </g>
     </g>
    </g>
    <g id="xtick_7">
     <g id="line2d_7">
      <g>
       <use xlink:href="#m6e754cb04d" x="478.38" y="317.24" style="stroke: #000000; stroke-width: 0.8"/>
      </g>
     </g>
     <g id="text_7">
      <!-- 14 -->
      <g transform="translate(472.83 333.04) scale(0.1 -0.1)">
       <use xlink:href="#NotoSansCJKkr-Regular-12"/>
       <use xlink:href="#NotoSansCJKkr-Regular-15" transform="translate(55.5 0)"/>
      </g>
     </g>
    </g>
    <g id="xtick_8">
     <g id="line2d_8">
      <g>
       <use xlink:href="#m6e754cb04d" x="541.521818" y="317.24" style="stroke: #000000; stroke-width: 0.8"/>
      </g>
     </g>
     <g id="text_8">
      <!-- 16 -->
      <g transform="translate(535.971818 333.04) scale(0.1 -0.1)">
       <use xlink:href="#NotoSansCJKkr-Regular-12"/>
       <use xlink:href="#NotoSansCJKkr-Regular-17" transform="translate(55.5 0)"/>
      </g>
     </g>
    </g>
    <g id="text_9">
     <!-- 층 수 (합성곱+풀링 누적) -->
     <g transform="translate(253.265 347.04) scale(0.1 -0.1)">
      <defs>
       <path id="NotoSansCJKkr-Regular-dc30" d="M 320 2355 
L 320 1920 
L 5549 1920 
L 5549 2355 
L 320 2355 
z
M 2931 1434 
C 1683 1434 947 1094 947 474 
C 947 -147 1683 -486 2931 -486 
C 4179 -486 4909 -147 4909 474 
C 4909 1094 4179 1434 2931 1434 
z
M 2931 1030 
C 3840 1030 4378 832 4378 474 
C 4378 115 3840 -83 2931 -83 
C 2016 -83 1485 115 1485 474 
C 1485 832 2016 1030 2931 1030 
z
M 858 4730 
L 858 4301 
L 2643 4301 
C 2592 3674 1709 3238 621 3136 
L 787 2726 
C 1741 2822 2579 3168 2931 3738 
C 3283 3168 4122 2822 5082 2726 
L 5242 3136 
C 4154 3238 3270 3674 3219 4301 
L 5018 4301 
L 5018 4730 
L 3194 4730 
L 3194 5306 
L 2669 5306 
L 2669 4730 
L 858 4730 
z
" transform="scale(0.015625)"/>
       <path id="NotoSansCJKkr-Regular-f684" transform="scale(0.015625)"/>
       <path id="NotoSansCJKkr-Regular-d013" d="M 2662 5088 
L 2662 4762 
C 2662 3942 1645 3245 589 3091 
L 800 2662 
C 1702 2810 2573 3309 2944 4013 
C 3315 3309 4179 2810 5082 2662 
L 5293 3091 
C 4243 3245 3213 3955 3213 4762 
L 3213 5088 
L 2662 5088 
z
M 320 2035 
L 320 1594 
L 2662 1594 
L 2662 -499 
L 3187 -499 
L 3187 1594 
L 5549 1594 
L 5549 2035 
L 320 2035 
z
" transform="scale(0.015625)"/>
       <path id="NotoSansCJKkr-Regular-1" transform="scale(0.015625)"/>
       <path id="NotoSansCJKkr-Regular-9" d="M 1530 -1254 
L 1888 -1094 
C 1338 -186 1075 902 1075 1990 
C 1075 3072 1338 4154 1888 5069 
L 1530 5235 
C 941 4275 589 3245 589 1990 
C 589 730 941 -301 1530 -1254 
z
" transform="scale(0.015625)"/>
       <path id="NotoSansCJKkr-Regular-e364" d="M 1171 1670 
L 1171 -422 
L 4813 -422 
L 4813 1670 
L 4282 1670 
L 4282 1062 
L 1696 1062 
L 1696 1670 
L 1171 1670 
z
M 1696 646 
L 4282 646 
L 4282 6 
L 1696 6 
L 1696 646 
z
M 2042 4000 
C 1210 4000 653 3603 653 2989 
C 653 2368 1210 1971 2042 1971 
C 2867 1971 3424 2368 3424 2989 
C 3424 3603 2867 4000 2042 4000 
z
M 2042 3597 
C 2566 3597 2918 3354 2918 2989 
C 2918 2611 2566 2374 2042 2374 
C 1517 2374 1165 2611 1165 2989 
C 1165 3354 1517 3597 2042 3597 
z
M 4282 5293 
L 4282 1926 
L 4813 1926 
L 4813 3366 
L 5664 3366 
L 5664 3814 
L 4813 3814 
L 4813 5293 
L 4282 5293 
z
M 1779 5344 
L 1779 4698 
L 333 4698 
L 333 4269 
L 3750 4269 
L 3750 4698 
L 2310 4698 
L 2310 5344 
L 1779 5344 
z
" transform="scale(0.015625)"/>
       <path id="NotoSansCJKkr-Regular-cf2c" d="M 3174 1696 
C 1978 1696 1248 1293 1248 602 
C 1248 -90 1978 -486 3174 -486 
C 4371 -486 5101 -90 5101 602 
C 5101 1293 4371 1696 3174 1696 
z
M 3174 1274 
C 4045 1274 4576 1024 4576 602 
C 4576 186 4045 -64 3174 -64 
C 2304 -64 1773 186 1773 602 
C 1773 1024 2304 1274 3174 1274 
z
M 1779 4966 
L 1779 4371 
C 1779 3482 1203 2707 314 2394 
L 595 1965 
C 1293 2227 1811 2758 2054 3443 
C 2304 2842 2790 2374 3430 2138 
L 3718 2554 
C 2874 2842 2304 3571 2304 4390 
L 2304 4966 
L 1779 4966 
z
M 3290 4070 
L 3290 3629 
L 4550 3629 
L 4550 1869 
L 5082 1869 
L 5082 5293 
L 4550 5293 
L 4550 4070 
L 3290 4070 
z
" transform="scale(0.015625)"/>
       <path id="NotoSansCJKkr-Regular-baec" d="M 998 1888 
L 998 -422 
L 4864 -422 
L 4864 1888 
L 4339 1888 
L 4339 1190 
L 1530 1190 
L 1530 1888 
L 998 1888 
z
M 1530 774 
L 4339 774 
L 4339 13 
L 1530 13 
L 1530 774 
z
M 941 5056 
L 941 4627 
L 4358 4627 
C 4358 4230 4358 3782 4205 3174 
L 4730 3117 
C 4883 3744 4883 4224 4883 4640 
L 4883 5056 
L 941 5056 
z
M 2470 3827 
L 2470 2810 
L 326 2810 
L 326 2374 
L 5549 2374 
L 5549 2810 
L 2995 2810 
L 2995 3827 
L 2470 3827 
z
" transform="scale(0.015625)"/>
       <path id="NotoSansCJKkr-Regular-c" d="M 1542 742 
L 2010 742 
L 2010 2144 
L 3315 2144 
L 3315 2579 
L 2010 2579 
L 2010 3981 
L 1542 3981 
L 1542 2579 
L 243 2579 
L 243 2144 
L 1542 2144 
L 1542 742 
z
" transform="scale(0.015625)"/>
       <path id="NotoSansCJKkr-Regular-e27b" d="M 826 3648 
L 826 3232 
L 5030 3232 
L 5030 3648 
L 4179 3648 
L 4179 4730 
L 5050 4730 
L 5050 5139 
L 806 5139 
L 806 4730 
L 1677 4730 
L 1677 3648 
L 826 3648 
z
M 2208 4730 
L 3648 4730 
L 3648 3648 
L 2208 3648 
L 2208 4730 
z
M 966 -26 
L 966 -435 
L 5050 -435 
L 5050 -26 
L 1485 -26 
L 1485 506 
L 4877 506 
L 4877 1779 
L 3194 1779 
L 3194 2336 
L 5549 2336 
L 5549 2765 
L 320 2765 
L 320 2336 
L 2662 2336 
L 2662 1779 
L 954 1779 
L 954 1382 
L 4358 1382 
L 4358 890 
L 966 890 
L 966 -26 
z
" transform="scale(0.015625)"/>
       <path id="NotoSansCJKkr-Regular-c7bc" d="M 4531 5286 
L 4531 1728 
L 5062 1728 
L 5062 5286 
L 4531 5286 
z
M 3155 1606 
C 1946 1606 1216 1229 1216 563 
C 1216 -102 1946 -486 3155 -486 
C 4365 -486 5101 -102 5101 563 
C 5101 1229 4365 1606 3155 1606 
z
M 3155 1184 
C 4038 1184 4570 954 4570 563 
C 4570 166 4038 -64 3155 -64 
C 2272 -64 1741 166 1741 563 
C 1741 954 2272 1184 3155 1184 
z
M 608 4922 
L 608 4486 
L 2714 4486 
L 2714 3738 
L 621 3738 
L 621 2080 
L 1088 2080 
C 2157 2080 2944 2112 3898 2266 
L 3834 2701 
C 2918 2554 2163 2522 1139 2522 
L 1139 3328 
L 3232 3328 
L 3232 4922 
L 608 4922 
z
" transform="scale(0.015625)"/>
       <path id="NotoSansCJKkr-Regular-bfff" d="M 992 4998 
L 992 2912 
L 4960 2912 
L 4960 3347 
L 1523 3347 
L 1523 4998 
L 992 4998 
z
M 320 2048 
L 320 1606 
L 2656 1606 
L 2656 -499 
L 3187 -499 
L 3187 1606 
L 5568 1606 
L 5568 2048 
L 320 2048 
z
" transform="scale(0.015625)"/>
       <path id="NotoSansCJKkr-Regular-d5fc" d="M 1216 1517 
L 1216 1082 
L 4550 1082 
L 4550 -499 
L 5082 -499 
L 5082 1517 
L 1216 1517 
z
M 506 4896 
L 506 4461 
L 1792 4461 
L 1792 4230 
C 1792 3418 1197 2643 339 2342 
L 614 1920 
C 1299 2170 1824 2701 2074 3360 
C 2317 2765 2816 2285 3462 2054 
L 3731 2470 
C 2893 2765 2330 3488 2330 4237 
L 2330 4461 
L 3597 4461 
L 3597 4896 
L 506 4896 
z
M 4550 5293 
L 4550 3782 
L 3418 3782 
L 3418 3341 
L 4550 3341 
L 4550 1830 
L 5082 1830 
L 5082 5293 
L 4550 5293 
z
" transform="scale(0.015625)"/>
       <path id="NotoSansCJKkr-Regular-a" d="M 634 -1254 
C 1222 -301 1574 730 1574 1990 
C 1574 3245 1222 4275 634 5235 
L 269 5069 
C 819 4154 1094 3072 1094 1990 
C 1094 902 819 -186 269 -1094 
L 634 -1254 
z
" transform="scale(0.015625)"/>
      </defs>
      <use xlink:href="#NotoSansCJKkr-Regular-dc30"/>
      <use xlink:href="#NotoSansCJKkr-Regular-f684" transform="translate(92 0)"/>
      <use xlink:href="#NotoSansCJKkr-Regular-d013" transform="translate(120 0)"/>
      <use xlink:href="#NotoSansCJKkr-Regular-1" transform="translate(212 0)"/>
      <use xlink:href="#NotoSansCJKkr-Regular-9" transform="translate(234.40625 0)"/>
      <use xlink:href="#NotoSansCJKkr-Regular-e364" transform="translate(268.203125 0)"/>
      <use xlink:href="#NotoSansCJKkr-Regular-cf2c" transform="translate(360.203125 0)"/>
      <use xlink:href="#NotoSansCJKkr-Regular-baec" transform="translate(452.203125 0)"/>
      <use xlink:href="#NotoSansCJKkr-Regular-c" transform="translate(544.203125 0)"/>
      <use xlink:href="#NotoSansCJKkr-Regular-e27b" transform="translate(599.703125 0)"/>
      <use xlink:href="#NotoSansCJKkr-Regular-c7bc" transform="translate(691.703125 0)"/>
      <use xlink:href="#NotoSansCJKkr-Regular-f684" transform="translate(783.703125 0)"/>
      <use xlink:href="#NotoSansCJKkr-Regular-bfff" transform="translate(811.703125 0)"/>
      <use xlink:href="#NotoSansCJKkr-Regular-d5fc" transform="translate(903.703125 0)"/>
      <use xlink:href="#NotoSansCJKkr-Regular-a" transform="translate(995.703125 0)"/>
     </g>
    </g>
   </g>
   <g id="matplotlib.axis_2">
    <g id="ytick_1">
     <g id="line2d_9">
      <defs>
       <path id="mf69ef4a447" d="M 0 0 
L -3.5 0 
" style="stroke: #000000; stroke-width: 0.8"/>
      </defs>
      <g>
       <use xlink:href="#mf69ef4a447" x="44.28" y="317.24" style="stroke: #000000; stroke-width: 0.8"/>
      </g>
     </g>
     <g id="text_10">
      <!-- 0 -->
      <g transform="translate(31.73 321.64) scale(0.1 -0.1)">
       <use xlink:href="#NotoSansCJKkr-Regular-11"/>
      </g>
     </g>
    </g>
    <g id="ytick_2">
     <g id="line2d_10">
      <g>
       <use xlink:href="#mf69ef4a447" x="44.28" y="281.027969" style="stroke: #000000; stroke-width: 0.8"/>
      </g>
     </g>
     <g id="text_11">
      <!-- 10 -->
      <g transform="translate(26.18 285.427969) scale(0.1 -0.1)">
       <use xlink:href="#NotoSansCJKkr-Regular-12"/>
       <use xlink:href="#NotoSansCJKkr-Regular-11" transform="translate(55.5 0)"/>
      </g>
     </g>
    </g>
    <g id="ytick_3">
     <g id="line2d_11">
      <g>
       <use xlink:href="#mf69ef4a447" x="44.28" y="244.815938" style="stroke: #000000; stroke-width: 0.8"/>
      </g>
     </g>
     <g id="text_12">
      <!-- 20 -->
      <g transform="translate(26.18 249.215937) scale(0.1 -0.1)">
       <use xlink:href="#NotoSansCJKkr-Regular-13"/>
       <use xlink:href="#NotoSansCJKkr-Regular-11" transform="translate(55.5 0)"/>
      </g>
     </g>
    </g>
    <g id="ytick_4">
     <g id="line2d_12">
      <g>
       <use xlink:href="#mf69ef4a447" x="44.28" y="208.603906" style="stroke: #000000; stroke-width: 0.8"/>
      </g>
     </g>
     <g id="text_13">
      <!-- 30 -->
      <g transform="translate(26.18 213.003906) scale(0.1 -0.1)">
       <defs>
        <path id="NotoSansCJKkr-Regular-14" d="M 1683 -83 
C 2522 -83 3194 416 3194 1254 
C 3194 1901 2752 2310 2202 2445 
L 2202 2477 
C 2701 2650 3034 3034 3034 3603 
C 3034 4346 2458 4774 1664 4774 
C 1126 4774 710 4538 358 4218 
L 672 3846 
C 941 4115 1267 4301 1645 4301 
C 2138 4301 2438 4006 2438 3558 
C 2438 3053 2112 2662 1139 2662 
L 1139 2214 
C 2227 2214 2598 1843 2598 1274 
C 2598 736 2208 403 1645 403 
C 1114 403 762 659 486 941 
L 186 563 
C 493 224 954 -83 1683 -83 
z
" transform="scale(0.015625)"/>
       </defs>
       <use xlink:href="#NotoSansCJKkr-Regular-14"/>
       <use xlink:href="#NotoSansCJKkr-Regular-11" transform="translate(55.5 0)"/>
      </g>
     </g>
    </g>
    <g id="ytick_5">
     <g id="line2d_13">
      <g>
       <use xlink:href="#mf69ef4a447" x="44.28" y="172.391875" style="stroke: #000000; stroke-width: 0.8"/>
      </g>
     </g>
     <g id="text_14">
      <!-- 40 -->
      <g transform="translate(26.18 176.791875) scale(0.1 -0.1)">
       <use xlink:href="#NotoSansCJKkr-Regular-15"/>
       <use xlink:href="#NotoSansCJKkr-Regular-11" transform="translate(55.5 0)"/>
      </g>
     </g>
    </g>
    <g id="ytick_6">
     <g id="line2d_14">
      <g>
       <use xlink:href="#mf69ef4a447" x="44.28" y="136.179844" style="stroke: #000000; stroke-width: 0.8"/>
      </g>
     </g>
     <g id="text_15">
      <!-- 50 -->
      <g transform="translate(26.18 140.579844) scale(0.1 -0.1)">
       <defs>
        <path id="NotoSansCJKkr-Regular-16" d="M 1677 -83 
C 2464 -83 3213 499 3213 1523 
C 3213 2560 2573 3021 1798 3021 
C 1517 3021 1306 2950 1094 2835 
L 1216 4192 
L 2982 4192 
L 2982 4691 
L 704 4691 
L 550 2502 
L 864 2304 
C 1133 2483 1331 2579 1645 2579 
C 2234 2579 2618 2182 2618 1510 
C 2618 826 2176 403 1619 403 
C 1075 403 730 653 467 922 
L 173 538 
C 493 224 941 -83 1677 -83 
z
" transform="scale(0.015625)"/>
       </defs>
       <use xlink:href="#NotoSansCJKkr-Regular-16"/>
       <use xlink:href="#NotoSansCJKkr-Regular-11" transform="translate(55.5 0)"/>
      </g>
     </g>
    </g>
    <g id="ytick_7">
     <g id="line2d_15">
      <g>
       <use xlink:href="#mf69ef4a447" x="44.28" y="99.967812" style="stroke: #000000; stroke-width: 0.8"/>
      </g>
     </g>
     <g id="text_16">
      <!-- 60 -->
      <g transform="translate(26.18 104.367812) scale(0.1 -0.1)">
       <use xlink:href="#NotoSansCJKkr-Regular-17"/>
       <use xlink:href="#NotoSansCJKkr-Regular-11" transform="translate(55.5 0)"/>
      </g>
     </g>
    </g>
    <g id="ytick_8">
     <g id="line2d_16">
      <g>
       <use xlink:href="#mf69ef4a447" x="44.28" y="63.755781" style="stroke: #000000; stroke-width: 0.8"/>
      </g>
     </g>
     <g id="text_17">
      <!-- 70 -->
      <g transform="translate(26.18 68.155781) scale(0.1 -0.1)">
       <defs>
        <path id="NotoSansCJKkr-Regular-18" d="M 1267 0 
L 1875 0 
C 1952 1837 2150 2931 3251 4339 
L 3251 4691 
L 314 4691 
L 314 4192 
L 2592 4192 
C 1670 2912 1350 1779 1267 0 
z
" transform="scale(0.015625)"/>
       </defs>
       <use xlink:href="#NotoSansCJKkr-Regular-18"/>
       <use xlink:href="#NotoSansCJKkr-Regular-11" transform="translate(55.5 0)"/>
      </g>
     </g>
    </g>
    <g id="ytick_9">
     <g id="line2d_17">
      <g>
       <use xlink:href="#mf69ef4a447" x="44.28" y="27.54375" style="stroke: #000000; stroke-width: 0.8"/>
      </g>
     </g>
     <g id="text_18">
      <!-- 80 -->
      <g transform="translate(26.18 31.94375) scale(0.1 -0.1)">
       <use xlink:href="#NotoSansCJKkr-Regular-19"/>
       <use xlink:href="#NotoSansCJKkr-Regular-11" transform="translate(55.5 0)"/>
      </g>
     </g>
    </g>
    <g id="text_19">
     <!-- 수용장 크기 (원본 이미지 픽셀) -->
     <g transform="translate(20.220625 236.291875) rotate(-90) scale(0.1 -0.1)">
      <defs>
       <path id="NotoSansCJKkr-Regular-d4a4" d="M 2931 1562 
C 1690 1562 947 1197 947 544 
C 947 -122 1690 -486 2931 -486 
C 4166 -486 4909 -122 4909 544 
C 4909 1197 4166 1562 2931 1562 
z
M 2931 1152 
C 3834 1152 4378 928 4378 544 
C 4378 147 3834 -77 2931 -77 
C 2022 -77 1485 147 1485 544 
C 1485 928 2022 1152 2931 1152 
z
M 2931 4768 
C 3853 4768 4422 4525 4422 4109 
C 4422 3693 3853 3450 2931 3450 
C 2010 3450 1440 3693 1440 4109 
C 1440 4525 2010 4768 2931 4768 
z
M 2931 5184 
C 1677 5184 896 4787 896 4109 
C 896 3718 1152 3424 1606 3245 
L 1606 2432 
L 320 2432 
L 320 2003 
L 5549 2003 
L 5549 2432 
L 4256 2432 
L 4256 3245 
C 4710 3424 4966 3718 4966 4109 
C 4966 4787 4186 5184 2931 5184 
z
M 2138 2432 
L 2138 3104 
C 2374 3059 2637 3040 2931 3040 
C 3226 3040 3494 3059 3731 3104 
L 3731 2432 
L 2138 2432 
z
" transform="scale(0.015625)"/>
       <path id="NotoSansCJKkr-Regular-d5a0" d="M 2970 1645 
C 1786 1645 1062 1254 1062 582 
C 1062 -90 1786 -486 2970 -486 
C 4147 -486 4864 -90 4864 582 
C 4864 1254 4147 1645 2970 1645 
z
M 2970 1222 
C 3827 1222 4346 986 4346 582 
C 4346 173 3827 -64 2970 -64 
C 2112 -64 1587 173 1587 582 
C 1587 986 2112 1222 2970 1222 
z
M 454 4864 
L 454 4429 
L 1747 4429 
L 1747 4198 
C 1747 3373 1165 2624 294 2323 
L 563 1901 
C 1254 2150 1779 2662 2022 3322 
C 2272 2746 2765 2298 3424 2074 
L 3674 2490 
C 2829 2771 2278 3450 2278 4205 
L 2278 4429 
L 3552 4429 
L 3552 4864 
L 454 4864 
z
M 4282 5293 
L 4282 1805 
L 4813 1805 
L 4813 3379 
L 5664 3379 
L 5664 3821 
L 4813 3821 
L 4813 5293 
L 4282 5293 
z
" transform="scale(0.015625)"/>
       <path id="NotoSansCJKkr-Regular-de67" d="M 320 749 
L 320 307 
L 5549 307 
L 5549 749 
L 320 749 
z
M 947 4704 
L 947 4269 
L 4390 4269 
L 4390 3994 
C 4390 3699 4390 3405 4378 3098 
L 787 2944 
L 864 2509 
L 4358 2694 
C 4326 2246 4262 1773 4134 1222 
L 4666 1171 
C 4909 2355 4909 3142 4909 3994 
L 4909 4704 
L 947 4704 
z
" transform="scale(0.015625)"/>
       <path id="NotoSansCJKkr-Regular-bc2b" d="M 4538 5293 
L 4538 -499 
L 5069 -499 
L 5069 5293 
L 4538 5293 
z
M 659 4666 
L 659 4237 
L 2829 4237 
C 2720 2854 1939 1754 390 1011 
L 672 582 
C 2611 1523 3366 2995 3366 4666 
L 659 4666 
z
" transform="scale(0.015625)"/>
       <path id="NotoSansCJKkr-Regular-d4cb" d="M 2170 5056 
C 1325 5056 749 4653 749 4045 
C 749 3430 1325 3040 2170 3040 
C 3014 3040 3590 3430 3590 4045 
C 3590 4653 3014 5056 2170 5056 
z
M 2170 4659 
C 2707 4659 3085 4416 3085 4045 
C 3085 3674 2707 3437 2170 3437 
C 1626 3437 1248 3674 1248 4045 
C 1248 4416 1626 4659 2170 4659 
z
M 358 2176 
C 832 2176 1382 2182 1958 2202 
L 1958 1088 
L 2490 1088 
L 2490 2234 
C 3014 2266 3552 2317 4058 2400 
L 4019 2784 
C 2790 2630 1357 2618 288 2611 
L 358 2176 
z
M 3347 1869 
L 3347 1485 
L 4525 1485 
L 4525 890 
L 5056 890 
L 5056 5286 
L 4525 5286 
L 4525 1869 
L 3347 1869 
z
M 1107 1318 
L 1107 -371 
L 5197 -371 
L 5197 64 
L 1638 64 
L 1638 1318 
L 1107 1318 
z
" transform="scale(0.015625)"/>
       <path id="NotoSansCJKkr-Regular-caf3" d="M 1536 3917 
L 4339 3917 
L 4339 3174 
L 1536 3174 
L 1536 3917 
z
M 320 2131 
L 320 1696 
L 5549 1696 
L 5549 2131 
L 3200 2131 
L 3200 2746 
L 4864 2746 
L 4864 5062 
L 4339 5062 
L 4339 4339 
L 1536 4339 
L 1536 5062 
L 1011 5062 
L 1011 2746 
L 2669 2746 
L 2669 2131 
L 320 2131 
z
M 992 1235 
L 992 -371 
L 4966 -371 
L 4966 64 
L 1523 64 
L 1523 1235 
L 992 1235 
z
" transform="scale(0.015625)"/>
       <path id="NotoSansCJKkr-Regular-d56f" d="M 4525 5293 
L 4525 -506 
L 5056 -506 
L 5056 5293 
L 4525 5293 
z
M 2003 4845 
C 1146 4845 531 4058 531 2829 
C 531 1594 1146 806 2003 806 
C 2854 806 3469 1594 3469 2829 
C 3469 4058 2854 4845 2003 4845 
z
M 2003 4371 
C 2566 4371 2957 3763 2957 2829 
C 2957 1888 2566 1280 2003 1280 
C 1434 1280 1043 1888 1043 2829 
C 1043 3763 1434 4371 2003 4371 
z
" transform="scale(0.015625)"/>
       <path id="NotoSansCJKkr-Regular-c9f3" d="M 646 4723 
L 646 954 
L 3309 954 
L 3309 4723 
L 646 4723 
z
M 2797 4301 
L 2797 1382 
L 1171 1382 
L 1171 4301 
L 2797 4301 
z
M 4525 5293 
L 4525 -506 
L 5056 -506 
L 5056 5293 
L 4525 5293 
z
" transform="scale(0.015625)"/>
       <path id="NotoSansCJKkr-Regular-d7bb" d="M 4525 5293 
L 4525 -499 
L 5056 -499 
L 5056 5293 
L 4525 5293 
z
M 506 4698 
L 506 4256 
L 1850 4256 
L 1850 3526 
C 1850 2528 1152 1434 320 1037 
L 627 614 
C 1286 947 1862 1677 2125 2522 
C 2394 1728 2963 1069 3635 755 
L 3930 1178 
C 3078 1549 2387 2547 2387 3526 
L 2387 4256 
L 3738 4256 
L 3738 4698 
L 506 4698 
z
" transform="scale(0.015625)"/>
       <path id="NotoSansCJKkr-Regular-e338" d="M 1197 1491 
L 1197 1056 
L 4531 1056 
L 4531 -499 
L 5062 -499 
L 5062 1491 
L 1197 1491 
z
M 4531 5293 
L 4531 1779 
L 5062 1779 
L 5062 5293 
L 4531 5293 
z
M 480 2131 
C 1478 2131 2822 2150 4000 2330 
L 3962 2726 
C 3686 2694 3405 2669 3110 2650 
L 3110 4384 
L 3686 4384 
L 3686 4826 
L 576 4826 
L 576 4384 
L 1146 4384 
L 1146 2579 
L 416 2579 
L 480 2131 
z
M 1658 4384 
L 2598 4384 
L 2598 2618 
L 1658 2592 
L 1658 4384 
z
" transform="scale(0.015625)"/>
       <path id="NotoSansCJKkr-Regular-cf3b" d="M 4691 5286 
L 4691 2208 
L 5197 2208 
L 5197 5286 
L 4691 5286 
z
M 3558 5178 
L 3558 4205 
L 2675 4205 
L 2675 3770 
L 3558 3770 
L 3558 2253 
L 4064 2253 
L 4064 5178 
L 3558 5178 
z
M 1517 5050 
L 1517 4461 
C 1517 3770 1075 3002 320 2656 
L 614 2253 
C 1171 2515 1574 3014 1779 3584 
C 1971 3078 2342 2650 2880 2426 
L 3162 2829 
C 2445 3117 2029 3782 2029 4435 
L 2029 5050 
L 1517 5050 
z
M 1389 -6 
L 1389 -435 
L 5421 -435 
L 5421 -6 
L 1914 -6 
L 1914 589 
L 5197 589 
L 5197 1946 
L 1376 1946 
L 1376 1523 
L 4678 1523 
L 4678 992 
L 1389 992 
L 1389 -6 
z
" transform="scale(0.015625)"/>
      </defs>
      <use xlink:href="#NotoSansCJKkr-Regular-d013"/>
      <use xlink:href="#NotoSansCJKkr-Regular-d4a4" transform="translate(92 0)"/>
      <use xlink:href="#NotoSansCJKkr-Regular-d5a0" transform="translate(184 0)"/>
      <use xlink:href="#NotoSansCJKkr-Regular-f684" transform="translate(276 0)"/>
      <use xlink:href="#NotoSansCJKkr-Regular-de67" transform="translate(304 0)"/>
      <use xlink:href="#NotoSansCJKkr-Regular-bc2b" transform="translate(396 0)"/>
      <use xlink:href="#NotoSansCJKkr-Regular-1" transform="translate(488 0)"/>
      <use xlink:href="#NotoSansCJKkr-Regular-9" transform="translate(510.40625 0)"/>
      <use xlink:href="#NotoSansCJKkr-Regular-d4cb" transform="translate(544.203125 0)"/>
      <use xlink:href="#NotoSansCJKkr-Regular-caf3" transform="translate(636.203125 0)"/>
      <use xlink:href="#NotoSansCJKkr-Regular-f684" transform="translate(728.203125 0)"/>
      <use xlink:href="#NotoSansCJKkr-Regular-d56f" transform="translate(756.203125 0)"/>
      <use xlink:href="#NotoSansCJKkr-Regular-c9f3" transform="translate(848.203125 0)"/>
      <use xlink:href="#NotoSansCJKkr-Regular-d7bb" transform="translate(940.203125 0)"/>
      <use xlink:href="#NotoSansCJKkr-Regular-f684" transform="translate(1032.203125 0)"/>
      <use xlink:href="#NotoSansCJKkr-Regular-e338" transform="translate(1060.203125 0)"/>
      <use xlink:href="#NotoSansCJKkr-Regular-cf3b" transform="translate(1152.203125 0)"/>
      <use xlink:href="#NotoSansCJKkr-Regular-a" transform="translate(1244.203125 0)"/>
     </g>
    </g>
   </g>
   <g id="line2d_18">
    <path d="M 67.958182 306.376391 
L 99.529091 299.133984 
L 131.1 291.891578 
L 162.670909 284.649172 
L 194.241818 277.406766 
L 225.812727 270.164359 
L 257.383636 262.921953 
L 288.954545 255.679547 
L 320.525455 248.437141 
L 352.096364 241.194734 
L 383.667273 233.952328 
L 415.238182 226.709922 
L 446.809091 219.467516 
L 478.38 212.225109 
L 509.950909 204.982703 
L 541.521818 197.740297 
" clip-path="url(#pf1773bc9c6)" style="fill: none; stroke: #1f77b4; stroke-width: 1.5; stroke-linecap: square"/>
    <defs>
     <path id="mf00040a9dc" d="M 0 2 
C 0.530406 2 1.03916 1.789267 1.414214 1.414214 
C 1.789267 1.03916 2 0.530406 2 0 
C 2 -0.530406 1.789267 -1.03916 1.414214 -1.414214 
C 1.03916 -1.789267 0.530406 -2 0 -2 
C -0.530406 -2 -1.03916 -1.789267 -1.414214 -1.414214 
C -1.789267 -1.03916 -2 -0.530406 -2 0 
C -2 0.530406 -1.789267 1.03916 -1.414214 1.414214 
C -1.03916 1.789267 -0.530406 2 0 2 
z
" style="stroke: #1f77b4"/>
    </defs>
    <g clip-path="url(#pf1773bc9c6)">
     <use xlink:href="#mf00040a9dc" x="67.958182" y="306.376391" style="fill: #1f77b4; stroke: #1f77b4"/>
     <use xlink:href="#mf00040a9dc" x="99.529091" y="299.133984" style="fill: #1f77b4; stroke: #1f77b4"/>
     <use xlink:href="#mf00040a9dc" x="131.1" y="291.891578" style="fill: #1f77b4; stroke: #1f77b4"/>
     <use xlink:href="#mf00040a9dc" x="162.670909" y="284.649172" style="fill: #1f77b4; stroke: #1f77b4"/>
     <use xlink:href="#mf00040a9dc" x="194.241818" y="277.406766" style="fill: #1f77b4; stroke: #1f77b4"/>
     <use xlink:href="#mf00040a9dc" x="225.812727" y="270.164359" style="fill: #1f77b4; stroke: #1f77b4"/>
     <use xlink:href="#mf00040a9dc" x="257.383636" y="262.921953" style="fill: #1f77b4; stroke: #1f77b4"/>
     <use xlink:href="#mf00040a9dc" x="288.954545" y="255.679547" style="fill: #1f77b4; stroke: #1f77b4"/>
     <use xlink:href="#mf00040a9dc" x="320.525455" y="248.437141" style="fill: #1f77b4; stroke: #1f77b4"/>
     <use xlink:href="#mf00040a9dc" x="352.096364" y="241.194734" style="fill: #1f77b4; stroke: #1f77b4"/>
     <use xlink:href="#mf00040a9dc" x="383.667273" y="233.952328" style="fill: #1f77b4; stroke: #1f77b4"/>
     <use xlink:href="#mf00040a9dc" x="415.238182" y="226.709922" style="fill: #1f77b4; stroke: #1f77b4"/>
     <use xlink:href="#mf00040a9dc" x="446.809091" y="219.467516" style="fill: #1f77b4; stroke: #1f77b4"/>
     <use xlink:href="#mf00040a9dc" x="478.38" y="212.225109" style="fill: #1f77b4; stroke: #1f77b4"/>
     <use xlink:href="#mf00040a9dc" x="509.950909" y="204.982703" style="fill: #1f77b4; stroke: #1f77b4"/>
     <use xlink:href="#mf00040a9dc" x="541.521818" y="197.740297" style="fill: #1f77b4; stroke: #1f77b4"/>
    </g>
   </g>
   <g id="line2d_19">
    <path d="M 67.958182 306.376391 
L 99.529091 299.133984 
L 131.1 295.512781 
L 162.670909 281.027969 
L 194.241818 266.543156 
L 225.812727 259.30075 
L 257.383636 230.331125 
L 288.954545 201.3615 
L 320.525455 186.876688 
L 352.096364 128.937437 
L 383.667273 70.998187 
L 415.238182 42.028562 
" clip-path="url(#pf1773bc9c6)" style="fill: none; stroke: #ff7f0e; stroke-width: 1.5; stroke-linecap: square"/>
    <defs>
     <path id="m645790ed90" d="M -2 2 
L 2 2 
L 2 -2 
L -2 -2 
z
" style="stroke: #ff7f0e; stroke-linejoin: miter"/>
    </defs>
    <g clip-path="url(#pf1773bc9c6)">
     <use xlink:href="#m645790ed90" x="67.958182" y="306.376391" style="fill: #ff7f0e; stroke: #ff7f0e; stroke-linejoin: miter"/>
     <use xlink:href="#m645790ed90" x="99.529091" y="299.133984" style="fill: #ff7f0e; stroke: #ff7f0e; stroke-linejoin: miter"/>
     <use xlink:href="#m645790ed90" x="131.1" y="295.512781" style="fill: #ff7f0e; stroke: #ff7f0e; stroke-linejoin: miter"/>
     <use xlink:href="#m645790ed90" x="162.670909" y="281.027969" style="fill: #ff7f0e; stroke: #ff7f0e; stroke-linejoin: miter"/>
     <use xlink:href="#m645790ed90" x="194.241818" y="266.543156" style="fill: #ff7f0e; stroke: #ff7f0e; stroke-linejoin: miter"/>
     <use xlink:href="#m645790ed90" x="225.812727" y="259.30075" style="fill: #ff7f0e; stroke: #ff7f0e; stroke-linejoin: miter"/>
     <use xlink:href="#m645790ed90" x="257.383636" y="230.331125" style="fill: #ff7f0e; stroke: #ff7f0e; stroke-linejoin: miter"/>
     <use xlink:href="#m645790ed90" x="288.954545" y="201.3615" style="fill: #ff7f0e; stroke: #ff7f0e; stroke-linejoin: miter"/>
     <use xlink:href="#m645790ed90" x="320.525455" y="186.876688" style="fill: #ff7f0e; stroke: #ff7f0e; stroke-linejoin: miter"/>
     <use xlink:href="#m645790ed90" x="352.096364" y="128.937437" style="fill: #ff7f0e; stroke: #ff7f0e; stroke-linejoin: miter"/>
     <use xlink:href="#m645790ed90" x="383.667273" y="70.998187" style="fill: #ff7f0e; stroke: #ff7f0e; stroke-linejoin: miter"/>
     <use xlink:href="#m645790ed90" x="415.238182" y="42.028562" style="fill: #ff7f0e; stroke: #ff7f0e; stroke-linejoin: miter"/>
    </g>
   </g>
   <g id="line2d_20">
    <path d="M 44.28 201.3615 
L 565.2 201.3615 
" clip-path="url(#pf1773bc9c6)" style="fill: none; stroke-dasharray: 1.5,2.475; stroke-dashoffset: 0; stroke: #808080; stroke-width: 1.5"/>
   </g>
   <g id="patch_3">
    <path d="M 44.28 317.24 
L 44.28 27.54375 
" style="fill: none; stroke: #000000; stroke-width: 0.8; stroke-linejoin: miter; stroke-linecap: square"/>
   </g>
   <g id="patch_4">
    <path d="M 565.2 317.24 
L 565.2 27.54375 
" style="fill: none; stroke: #000000; stroke-width: 0.8; stroke-linejoin: miter; stroke-linecap: square"/>
   </g>
   <g id="patch_5">
    <path d="M 44.28 317.24 
L 565.2 317.24 
" style="fill: none; stroke: #000000; stroke-width: 0.8; stroke-linejoin: miter; stroke-linecap: square"/>
   </g>
   <g id="patch_6">
    <path d="M 44.28 27.54375 
L 565.2 27.54375 
" style="fill: none; stroke: #000000; stroke-width: 0.8; stroke-linejoin: miter; stroke-linecap: square"/>
   </g>
   <g id="text_20">
    <!-- 수용장 누적: 풀링(스트라이드 2)이 이후 확장을 2배 스케일업 -->
    <g transform="translate(154.643438 21.54375) scale(0.12 -0.12)">
     <defs>
      <path id="NotoSansCJKkr-Regular-1b" d="M 890 2496 
C 1120 2496 1312 2675 1312 2944 
C 1312 3206 1120 3392 890 3392 
C 653 3392 467 3206 467 2944 
C 467 2675 653 2496 890 2496 
z
M 890 -83 
C 1120 -83 1312 96 1312 358 
C 1312 627 1120 806 890 806 
C 653 806 467 627 467 358 
C 467 96 653 -83 890 -83 
z
" transform="scale(0.015625)"/>
      <path id="NotoSansCJKkr-Regular-d09f" d="M 320 723 
L 320 282 
L 5568 282 
L 5568 723 
L 320 723 
z
M 2637 4890 
L 2637 4448 
C 2637 3462 1549 2586 538 2387 
L 774 1946 
C 1651 2150 2547 2771 2918 3610 
C 3296 2765 4186 2144 5062 1946 
L 5306 2387 
C 4288 2579 3194 3462 3194 4448 
L 3194 4890 
L 2637 4890 
z
" transform="scale(0.015625)"/>
      <path id="NotoSansCJKkr-Regular-e0b3" d="M 320 691 
L 320 250 
L 5568 250 
L 5568 691 
L 320 691 
z
M 992 4794 
L 992 1741 
L 4966 1741 
L 4966 2170 
L 1530 2170 
L 1530 3078 
L 4781 3078 
L 4781 3507 
L 1530 3507 
L 1530 4358 
L 4909 4358 
L 4909 4794 
L 992 4794 
z
" transform="scale(0.015625)"/>
      <path id="NotoSansCJKkr-Regular-c577" d="M 4243 5293 
L 4243 -506 
L 4768 -506 
L 4768 2547 
L 5715 2547 
L 5715 2995 
L 4768 2995 
L 4768 5293 
L 4243 5293 
z
M 544 4755 
L 544 4320 
L 2630 4320 
L 2630 3110 
L 557 3110 
L 557 890 
L 1018 890 
C 2118 890 2886 934 3789 1101 
L 3738 1536 
C 2874 1376 2131 1338 1082 1338 
L 1082 2675 
L 3155 2675 
L 3155 4755 
L 544 4755 
z
" transform="scale(0.015625)"/>
      <path id="NotoSansCJKkr-Regular-c2d7" d="M 320 730 
L 320 288 
L 5568 288 
L 5568 730 
L 320 730 
z
M 986 4755 
L 986 2080 
L 4960 2080 
L 4960 2515 
L 1510 2515 
L 1510 4320 
L 4902 4320 
L 4902 4755 
L 986 4755 
z
" transform="scale(0.015625)"/>
      <path id="NotoSansCJKkr-Regular-e4bf" d="M 2931 3866 
C 1754 3866 1050 3520 1050 2899 
C 1050 2285 1754 1939 2931 1939 
C 4109 1939 4813 2285 4813 2899 
C 4813 3520 4109 3866 2931 3866 
z
M 2931 3462 
C 3776 3462 4262 3258 4262 2899 
C 4262 2547 3776 2342 2931 2342 
C 2086 2342 1600 2547 1600 2899 
C 1600 3258 2086 3462 2931 3462 
z
M 2669 5325 
L 2669 4634 
L 595 4634 
L 595 4198 
L 5248 4198 
L 5248 4634 
L 3194 4634 
L 3194 5325 
L 2669 5325 
z
M 320 1536 
L 320 1101 
L 2669 1101 
L 2669 -506 
L 3194 -506 
L 3194 1101 
L 5568 1101 
L 5568 1536 
L 320 1536 
z
" transform="scale(0.015625)"/>
      <path id="NotoSansCJKkr-Regular-e450" d="M 998 1114 
L 998 691 
L 4275 691 
L 4275 -499 
L 4806 -499 
L 4806 1114 
L 998 1114 
z
M 2093 3776 
C 2611 3776 2938 3597 2938 3290 
C 2938 2995 2611 2797 2093 2797 
C 1574 2797 1248 2995 1248 3290 
C 1248 3597 1574 3776 2093 3776 
z
M 2093 4147 
C 1280 4147 742 3821 742 3290 
C 742 2816 1171 2509 1837 2445 
L 1837 2022 
C 1280 2003 749 2003 288 2003 
L 352 1574 
C 1363 1574 2733 1581 3968 1805 
L 3930 2182 
C 3430 2112 2893 2067 2362 2042 
L 2362 2445 
C 3021 2509 3443 2822 3443 3290 
C 3443 3821 2906 4147 2093 4147 
z
M 4275 5286 
L 4275 1408 
L 4806 1408 
L 4806 3098 
L 5651 3098 
L 5651 3539 
L 4806 3539 
L 4806 5286 
L 4275 5286 
z
M 1837 5338 
L 1837 4768 
L 435 4768 
L 435 4365 
L 3757 4365 
L 3757 4768 
L 2362 4768 
L 2362 5338 
L 1837 5338 
z
" transform="scale(0.015625)"/>
      <path id="NotoSansCJKkr-Regular-d53f" d="M 2931 5190 
C 1651 5190 896 4838 896 4192 
C 896 3546 1651 3187 2931 3187 
C 4211 3187 4966 3546 4966 4192 
C 4966 4838 4211 5190 2931 5190 
z
M 2931 4794 
C 3878 4794 4422 4570 4422 4192 
C 4422 3802 3878 3590 2931 3590 
C 1990 3590 1446 3802 1446 4192 
C 1446 4570 1990 4794 2931 4794 
z
M 320 2797 
L 320 2368 
L 5549 2368 
L 5549 2797 
L 320 2797 
z
M 966 -19 
L 966 -435 
L 5050 -435 
L 5050 -19 
L 1485 -19 
L 1485 570 
L 4877 570 
L 4877 1875 
L 954 1875 
L 954 1472 
L 4358 1472 
L 4358 960 
L 966 960 
L 966 -19 
z
" transform="scale(0.015625)"/>
      <path id="NotoSansCJKkr-Regular-ca2b" d="M 525 4742 
L 525 947 
L 2739 947 
L 2739 4742 
L 2246 4742 
L 2246 3334 
L 1030 3334 
L 1030 4742 
L 525 4742 
z
M 1030 2906 
L 2246 2906 
L 2246 1382 
L 1030 1382 
L 1030 2906 
z
M 3443 5171 
L 3443 -205 
L 3949 -205 
L 3949 2560 
L 4730 2560 
L 4730 -499 
L 5242 -499 
L 5242 5293 
L 4730 5293 
L 4730 3002 
L 3949 3002 
L 3949 5171 
L 3443 5171 
z
" transform="scale(0.015625)"/>
      <path id="NotoSansCJKkr-Regular-dcfb" d="M 4730 5293 
L 4730 -499 
L 5235 -499 
L 5235 5293 
L 4730 5293 
z
M 3526 5139 
L 3526 3008 
L 2624 3008 
C 2790 3520 2848 4058 2848 4608 
L 627 4608 
L 627 4173 
L 2330 4173 
C 2310 3859 2266 3558 2182 3264 
L 346 3142 
L 422 2682 
L 2035 2842 
C 1754 2163 1229 1562 352 1082 
L 653 704 
C 1574 1216 2138 1862 2458 2573 
L 3526 2573 
L 3526 -205 
L 4026 -205 
L 4026 5139 
L 3526 5139 
z
" transform="scale(0.015625)"/>
      <path id="NotoSansCJKkr-Regular-d577" d="M 1946 5082 
C 1082 5082 448 4550 448 3795 
C 448 3040 1082 2515 1946 2515 
C 2810 2515 3437 3040 3437 3795 
C 3437 4550 2810 5082 1946 5082 
z
M 1946 4640 
C 2509 4640 2925 4294 2925 3795 
C 2925 3296 2509 2950 1946 2950 
C 1382 2950 966 3296 966 3795 
C 966 4294 1382 4640 1946 4640 
z
M 4531 5293 
L 4531 2330 
L 5062 2330 
L 5062 5293 
L 4531 5293 
z
M 1338 6 
L 1338 -422 
L 5261 -422 
L 5261 6 
L 1850 6 
L 1850 640 
L 5062 640 
L 5062 2042 
L 1318 2042 
L 1318 1619 
L 4538 1619 
L 4538 1037 
L 1338 1037 
L 1338 6 
z
" transform="scale(0.015625)"/>
      <path id="NotoSansCJKkr-Regular-d3c0" d="M 1901 4576 
C 2470 4576 2880 4211 2880 3686 
C 2880 3162 2470 2790 1901 2790 
C 1325 2790 915 3162 915 3686 
C 915 4211 1325 4576 1901 4576 
z
M 1376 1894 
L 1376 -422 
L 5082 -422 
L 5082 1894 
L 4550 1894 
L 4550 1171 
L 1901 1171 
L 1901 1894 
L 1376 1894 
z
M 1901 749 
L 4550 749 
L 4550 13 
L 1901 13 
L 1901 749 
z
M 4550 5293 
L 4550 3910 
L 3366 3910 
C 3258 4576 2675 5024 1901 5024 
C 1030 5024 410 4474 410 3686 
C 410 2893 1030 2342 1901 2342 
C 2682 2342 3270 2797 3373 3475 
L 4550 3475 
L 4550 2182 
L 5082 2182 
L 5082 5293 
L 4550 5293 
z
" transform="scale(0.015625)"/>
     </defs>
     <use xlink:href="#NotoSansCJKkr-Regular-d013"/>
     <use xlink:href="#NotoSansCJKkr-Regular-d4a4" transform="translate(92 0)"/>
     <use xlink:href="#NotoSansCJKkr-Regular-d5a0" transform="translate(184 0)"/>
     <use xlink:href="#NotoSansCJKkr-Regular-f684" transform="translate(276 0)"/>
     <use xlink:href="#NotoSansCJKkr-Regular-bfff" transform="translate(304 0)"/>
     <use xlink:href="#NotoSansCJKkr-Regular-d5fc" transform="translate(396 0)"/>
     <use xlink:href="#NotoSansCJKkr-Regular-1b" transform="translate(488 0)"/>
     <use xlink:href="#NotoSansCJKkr-Regular-1" transform="translate(515.796875 0)"/>
     <use xlink:href="#NotoSansCJKkr-Regular-e27b" transform="translate(538.203125 0)"/>
     <use xlink:href="#NotoSansCJKkr-Regular-c7bc" transform="translate(630.203125 0)"/>
     <use xlink:href="#NotoSansCJKkr-Regular-9" transform="translate(722.203125 0)"/>
     <use xlink:href="#NotoSansCJKkr-Regular-d09f" transform="translate(756 0)"/>
     <use xlink:href="#NotoSansCJKkr-Regular-e0b3" transform="translate(848 0)"/>
     <use xlink:href="#NotoSansCJKkr-Regular-c577" transform="translate(940 0)"/>
     <use xlink:href="#NotoSansCJKkr-Regular-d56f" transform="translate(1032 0)"/>
     <use xlink:href="#NotoSansCJKkr-Regular-c2d7" transform="translate(1124 0)"/>
     <use xlink:href="#NotoSansCJKkr-Regular-1" transform="translate(1216 0)"/>
     <use xlink:href="#NotoSansCJKkr-Regular-13" transform="translate(1238.40625 0)"/>
     <use xlink:href="#NotoSansCJKkr-Regular-a" transform="translate(1293.90625 0)"/>
     <use xlink:href="#NotoSansCJKkr-Regular-d56f" transform="translate(1327.703125 0)"/>
     <use xlink:href="#NotoSansCJKkr-Regular-f684" transform="translate(1419.703125 0)"/>
     <use xlink:href="#NotoSansCJKkr-Regular-d56f" transform="translate(1447.703125 0)"/>
     <use xlink:href="#NotoSansCJKkr-Regular-e4bf" transform="translate(1539.703125 0)"/>
     <use xlink:href="#NotoSansCJKkr-Regular-f684" transform="translate(1631.703125 0)"/>
     <use xlink:href="#NotoSansCJKkr-Regular-e450" transform="translate(1659.703125 0)"/>
     <use xlink:href="#NotoSansCJKkr-Regular-d5a0" transform="translate(1751.703125 0)"/>
     <use xlink:href="#NotoSansCJKkr-Regular-d53f" transform="translate(1843.703125 0)"/>
     <use xlink:href="#NotoSansCJKkr-Regular-1" transform="translate(1935.703125 0)"/>
     <use xlink:href="#NotoSansCJKkr-Regular-13" transform="translate(1958.109375 0)"/>
     <use xlink:href="#NotoSansCJKkr-Regular-ca2b" transform="translate(2013.609375 0)"/>
     <use xlink:href="#NotoSansCJKkr-Regular-f684" transform="translate(2105.609375 0)"/>
     <use xlink:href="#NotoSansCJKkr-Regular-d09f" transform="translate(2133.609375 0)"/>
     <use xlink:href="#NotoSansCJKkr-Regular-dcfb" transform="translate(2225.609375 0)"/>
     <use xlink:href="#NotoSansCJKkr-Regular-d577" transform="translate(2317.609375 0)"/>
     <use xlink:href="#NotoSansCJKkr-Regular-d3c0" transform="translate(2409.609375 0)"/>
    </g>
   </g>
   <g id="legend_1">
    <g id="patch_7">
     <path d="M 51.28 83.09375 
L 200.256563 83.09375 
Q 202.256563 83.09375 202.256563 81.09375 
L 202.256563 34.54375 
Q 202.256563 32.54375 200.256563 32.54375 
L 51.28 32.54375 
Q 49.28 32.54375 49.28 34.54375 
L 49.28 81.09375 
Q 49.28 83.09375 51.28 83.09375 
z
" style="fill: #ffffff; opacity: 0.8; stroke: #cccccc; stroke-linejoin: miter"/>
    </g>
    <g id="line2d_21">
     <path d="M 53.28 41.84375 
L 63.28 41.84375 
L 73.28 41.84375 
" style="fill: none; stroke: #1f77b4; stroke-width: 1.5; stroke-linecap: square"/>
     <g>
      <use xlink:href="#mf00040a9dc" x="63.28" y="41.84375" style="fill: #1f77b4; stroke: #1f77b4"/>
     </g>
    </g>
    <g id="text_21">
     <!-- 3x3 s=1만 16층 (풀링 없음) -->
     <g transform="translate(81.28 45.34375) scale(0.1 -0.1)">
      <defs>
       <path id="NotoSansCJKkr-Regular-f6b4" d="M 1683 -83 
C 2522 -83 3194 403 3194 1216 
C 3194 1843 2752 2246 2202 2381 
L 2202 2406 
C 2694 2586 3034 2938 3034 3494 
C 3034 4224 2458 4646 1664 4646 
C 1126 4646 710 4403 358 4077 
L 672 3706 
C 941 3981 1267 4173 1645 4173 
C 2138 4173 2438 3891 2438 3450 
C 2438 2970 2112 2598 1139 2598 
L 1139 2144 
C 2227 2144 2598 1786 2598 1242 
C 2598 723 2208 403 1645 403 
C 1114 403 762 659 486 941 
L 186 563 
C 493 224 954 -83 1683 -83 
z
" transform="scale(0.015625)"/>
       <path id="NotoSansCJKkr-Regular-59" d="M 96 0 
L 710 0 
L 1178 813 
C 1299 1024 1408 1235 1530 1434 
L 1562 1434 
C 1696 1235 1824 1024 1939 813 
L 2451 0 
L 3091 0 
L 1946 1754 
L 3002 3475 
L 2394 3475 
L 1965 2714 
C 1856 2515 1760 2330 1658 2131 
L 1626 2131 
C 1510 2330 1389 2515 1286 2714 
L 819 3475 
L 186 3475 
L 1242 1811 
L 96 0 
z
" transform="scale(0.015625)"/>
       <path id="NotoSansCJKkr-Regular-54" d="M 1498 -83 
C 2317 -83 2758 384 2758 947 
C 2758 1606 2208 1811 1702 2003 
C 1312 2150 954 2278 954 2605 
C 954 2880 1158 3110 1600 3110 
C 1907 3110 2150 2976 2387 2803 
L 2669 3168 
C 2406 3386 2022 3565 1594 3565 
C 832 3565 397 3130 397 2579 
C 397 1984 922 1754 1408 1574 
C 1792 1434 2202 1267 2202 915 
C 2202 614 1978 371 1517 371 
C 1101 371 794 538 486 787 
L 205 397 
C 531 122 1005 -83 1498 -83 
z
" transform="scale(0.015625)"/>
       <path id="NotoSansCJKkr-Regular-1e" d="M 243 2912 
L 3315 2912 
L 3315 3347 
L 243 3347 
L 243 2912 
z
M 243 1376 
L 3315 1376 
L 3315 1811 
L 243 1811 
L 243 1376 
z
" transform="scale(0.015625)"/>
       <path id="NotoSansCJKkr-Regular-f6b2" d="M 563 0 
L 3136 0 
L 3136 486 
L 2195 486 
L 2195 4563 
L 1747 4563 
C 1491 4410 1190 4301 774 4224 
L 774 3853 
L 1613 3853 
L 1613 486 
L 563 486 
L 563 0 
z
" transform="scale(0.015625)"/>
       <path id="NotoSansCJKkr-Regular-c7c7" d="M 557 4768 
L 557 2093 
L 3219 2093 
L 3219 4768 
L 557 4768 
z
M 2701 4339 
L 2701 2522 
L 1075 2522 
L 1075 4339 
L 2701 4339 
z
M 4282 5293 
L 4282 1050 
L 4813 1050 
L 4813 3091 
L 5664 3091 
L 5664 3533 
L 4813 3533 
L 4813 5293 
L 4282 5293 
z
M 1210 1453 
L 1210 -371 
L 5069 -371 
L 5069 64 
L 1734 64 
L 1734 1453 
L 1210 1453 
z
" transform="scale(0.015625)"/>
       <path id="NotoSansCJKkr-Regular-d3c1" d="M 979 1894 
L 979 -422 
L 2982 -422 
L 2982 1894 
L 2490 1894 
L 2490 1178 
L 1478 1178 
L 1478 1894 
L 979 1894 
z
M 1478 774 
L 2490 774 
L 2490 -6 
L 1478 -6 
L 1478 774 
z
M 1901 4595 
C 2470 4595 2880 4230 2880 3706 
C 2880 3181 2470 2810 1901 2810 
C 1325 2810 915 3181 915 3706 
C 915 4230 1325 4595 1901 4595 
z
M 4102 1933 
L 4102 1446 
C 4102 858 3744 224 3053 -64 
L 3322 -467 
C 3827 -250 4179 154 4365 621 
C 4538 147 4883 -256 5408 -467 
L 5683 -64 
C 4986 198 4627 832 4627 1446 
L 4627 1933 
L 4102 1933 
z
M 4550 5293 
L 4550 3936 
L 3366 3936 
C 3258 4595 2669 5037 1901 5037 
C 1030 5037 410 4493 410 3706 
C 410 2912 1030 2368 1901 2368 
C 2682 2368 3270 2816 3373 3494 
L 4550 3494 
L 4550 2227 
L 5082 2227 
L 5082 5293 
L 4550 5293 
z
" transform="scale(0.015625)"/>
       <path id="NotoSansCJKkr-Regular-d547" d="M 2931 5165 
C 1683 5165 896 4755 896 4064 
C 896 3379 1683 2976 2931 2976 
C 4186 2976 4966 3379 4966 4064 
C 4966 4755 4186 5165 2931 5165 
z
M 2931 4742 
C 3846 4742 4422 4493 4422 4064 
C 4422 3648 3846 3398 2931 3398 
C 2016 3398 1440 3648 1440 4064 
C 1440 4493 2016 4742 2931 4742 
z
M 960 1485 
L 960 -422 
L 4909 -422 
L 4909 1485 
L 960 1485 
z
M 4390 1056 
L 4390 13 
L 1478 13 
L 1478 1056 
L 4390 1056 
z
M 320 2483 
L 320 2048 
L 5549 2048 
L 5549 2483 
L 320 2483 
z
" transform="scale(0.015625)"/>
      </defs>
      <use xlink:href="#NotoSansCJKkr-Regular-f6b4"/>
      <use xlink:href="#NotoSansCJKkr-Regular-59" transform="translate(55.5 0)"/>
      <use xlink:href="#NotoSansCJKkr-Regular-f6b4" transform="translate(105.296875 0)"/>
      <use xlink:href="#NotoSansCJKkr-Regular-1" transform="translate(160.796875 0)"/>
      <use xlink:href="#NotoSansCJKkr-Regular-54" transform="translate(183.203125 0)"/>
      <use xlink:href="#NotoSansCJKkr-Regular-1e" transform="translate(230 0)"/>
      <use xlink:href="#NotoSansCJKkr-Regular-f6b2" transform="translate(285.5 0)"/>
      <use xlink:href="#NotoSansCJKkr-Regular-c7c7" transform="translate(341 0)"/>
      <use xlink:href="#NotoSansCJKkr-Regular-1" transform="translate(433 0)"/>
      <use xlink:href="#NotoSansCJKkr-Regular-12" transform="translate(455.40625 0)"/>
      <use xlink:href="#NotoSansCJKkr-Regular-17" transform="translate(510.90625 0)"/>
      <use xlink:href="#NotoSansCJKkr-Regular-dc30" transform="translate(566.40625 0)"/>
      <use xlink:href="#NotoSansCJKkr-Regular-1" transform="translate(658.40625 0)"/>
      <use xlink:href="#NotoSansCJKkr-Regular-9" transform="translate(680.8125 0)"/>
      <use xlink:href="#NotoSansCJKkr-Regular-e27b" transform="translate(714.609375 0)"/>
      <use xlink:href="#NotoSansCJKkr-Regular-c7bc" transform="translate(806.609375 0)"/>
      <use xlink:href="#NotoSansCJKkr-Regular-f684" transform="translate(898.609375 0)"/>
      <use xlink:href="#NotoSansCJKkr-Regular-d3c1" transform="translate(926.609375 0)"/>
      <use xlink:href="#NotoSansCJKkr-Regular-d547" transform="translate(1018.609375 0)"/>
      <use xlink:href="#NotoSansCJKkr-Regular-a" transform="translate(1110.609375 0)"/>
     </g>
    </g>
    <g id="line2d_22">
     <path d="M 53.28 57.603125 
L 63.28 57.603125 
L 73.28 57.603125 
" style="fill: none; stroke: #ff7f0e; stroke-width: 1.5; stroke-linecap: square"/>
     <g>
      <use xlink:href="#m645790ed90" x="63.28" y="57.603125" style="fill: #ff7f0e; stroke: #ff7f0e; stroke-linejoin: miter"/>
     </g>
    </g>
    <g id="text_22">
     <!-- [Conv3, Conv3, Pool2] x 4 -->
     <g transform="translate(81.28 61.103125) scale(0.1 -0.1)">
      <defs>
       <path id="NotoSansCJKkr-Regular-3c" d="M 678 -1088 
L 1946 -1088 
L 1946 -755 
L 1114 -755 
L 1114 4730 
L 1946 4730 
L 1946 5069 
L 678 5069 
L 678 -1088 
z
" transform="scale(0.015625)"/>
       <path id="NotoSansCJKkr-Regular-24" d="M 2413 -83 
C 3021 -83 3482 160 3853 589 
L 3526 966 
C 3226 634 2886 435 2438 435 
C 1542 435 979 1178 979 2362 
C 979 3533 1574 4256 2458 4256 
C 2861 4256 3168 4077 3418 3814 
L 3738 4198 
C 3469 4499 3021 4774 2451 4774 
C 1261 4774 371 3859 371 2342 
C 371 819 1242 -83 2413 -83 
z
" transform="scale(0.015625)"/>
       <path id="NotoSansCJKkr-Regular-50" d="M 1939 -83 
C 2790 -83 3546 582 3546 1734 
C 3546 2893 2790 3565 1939 3565 
C 1088 3565 333 2893 333 1734 
C 333 582 1088 -83 1939 -83 
z
M 1939 403 
C 1338 403 934 934 934 1734 
C 934 2534 1338 3072 1939 3072 
C 2541 3072 2950 2534 2950 1734 
C 2950 934 2541 403 1939 403 
z
" transform="scale(0.015625)"/>
       <path id="NotoSansCJKkr-Regular-4f" d="M 589 0 
L 1178 0 
L 1178 2522 
C 1523 2874 1766 3053 2125 3053 
C 2586 3053 2784 2778 2784 2125 
L 2784 0 
L 3366 0 
L 3366 2202 
C 3366 3085 3034 3565 2304 3565 
C 1830 3565 1466 3302 1139 2970 
L 1126 2970 
L 1069 3475 
L 589 3475 
L 589 0 
z
" transform="scale(0.015625)"/>
       <path id="NotoSansCJKkr-Regular-57" d="M 1338 0 
L 2022 0 
L 3251 3475 
L 2675 3475 
L 2016 1498 
C 1914 1158 1798 806 1696 474 
L 1664 474 
C 1562 806 1453 1158 1344 1498 
L 691 3475 
L 83 3475 
L 1338 0 
z
" transform="scale(0.015625)"/>
       <path id="NotoSansCJKkr-Regular-d" d="M 480 -1216 
C 1056 -973 1414 -493 1414 122 
C 1414 550 1229 806 922 806 
C 685 806 480 653 480 397 
C 480 141 678 -13 909 -13 
L 979 -6 
C 973 -390 736 -698 339 -870 
L 480 -1216 
z
" transform="scale(0.015625)"/>
       <path id="NotoSansCJKkr-Regular-31" d="M 646 0 
L 1235 0 
L 1235 1869 
L 2010 1869 
C 3040 1869 3738 2323 3738 3315 
C 3738 4339 3034 4691 1984 4691 
L 646 4691 
L 646 0 
z
M 1235 2349 
L 1235 4211 
L 1907 4211 
C 2733 4211 3149 4000 3149 3315 
C 3149 2643 2758 2349 1933 2349 
L 1235 2349 
z
" transform="scale(0.015625)"/>
       <path id="NotoSansCJKkr-Regular-4d" d="M 1203 -83 
C 1363 -83 1459 -58 1542 -32 
L 1459 416 
C 1395 403 1370 403 1338 403 
C 1248 403 1178 474 1178 653 
L 1178 5094 
L 589 5094 
L 589 691 
C 589 198 768 -83 1203 -83 
z
" transform="scale(0.015625)"/>
       <path id="NotoSansCJKkr-Regular-f6b3" d="M 282 0 
L 3232 0 
L 3232 506 
L 1907 506 
C 1670 506 1382 480 1139 461 
C 2221 1594 3008 2451 3008 3309 
C 3008 4115 2477 4646 1638 4646 
C 1043 4646 634 4378 256 3955 
L 595 3629 
C 858 3930 1184 4173 1568 4173 
C 2150 4173 2432 3802 2432 3283 
C 2432 2534 1658 1715 282 346 
L 282 0 
z
" transform="scale(0.015625)"/>
       <path id="NotoSansCJKkr-Regular-3e" d="M 218 -1088 
L 1491 -1088 
L 1491 5069 
L 218 5069 
L 218 4730 
L 1050 4730 
L 1050 -755 
L 218 -755 
L 218 -1088 
z
" transform="scale(0.015625)"/>
       <path id="NotoSansCJKkr-Regular-f6b5" d="M 2176 0 
L 2726 0 
L 2726 1261 
L 3354 1261 
L 3354 1728 
L 2726 1728 
L 2726 4563 
L 2080 4563 
L 128 1645 
L 128 1261 
L 2176 1261 
L 2176 0 
z
M 2176 1728 
L 736 1728 
L 1805 3290 
C 1939 3520 2067 3718 2182 3936 
L 2208 3936 
C 2195 3699 2176 3296 2176 3066 
L 2176 1728 
z
" transform="scale(0.015625)"/>
      </defs>
      <use xlink:href="#NotoSansCJKkr-Regular-3c"/>
      <use xlink:href="#NotoSansCJKkr-Regular-24" transform="translate(33.796875 0)"/>
      <use xlink:href="#NotoSansCJKkr-Regular-50" transform="translate(97.59375 0)"/>
      <use xlink:href="#NotoSansCJKkr-Regular-4f" transform="translate(158.1875 0)"/>
      <use xlink:href="#NotoSansCJKkr-Regular-57" transform="translate(219.1875 0)"/>
      <use xlink:href="#NotoSansCJKkr-Regular-f6b4" transform="translate(271.28125 0)"/>
      <use xlink:href="#NotoSansCJKkr-Regular-d" transform="translate(326.78125 0)"/>
      <use xlink:href="#NotoSansCJKkr-Regular-1" transform="translate(354.578125 0)"/>
      <use xlink:href="#NotoSansCJKkr-Regular-24" transform="translate(376.984375 0)"/>
      <use xlink:href="#NotoSansCJKkr-Regular-50" transform="translate(440.78125 0)"/>
      <use xlink:href="#NotoSansCJKkr-Regular-4f" transform="translate(501.375 0)"/>
      <use xlink:href="#NotoSansCJKkr-Regular-57" transform="translate(562.375 0)"/>
      <use xlink:href="#NotoSansCJKkr-Regular-f6b4" transform="translate(614.46875 0)"/>
      <use xlink:href="#NotoSansCJKkr-Regular-d" transform="translate(669.96875 0)"/>
      <use xlink:href="#NotoSansCJKkr-Regular-1" transform="translate(697.765625 0)"/>
      <use xlink:href="#NotoSansCJKkr-Regular-31" transform="translate(720.171875 0)"/>
      <use xlink:href="#NotoSansCJKkr-Regular-50" transform="translate(780.765625 0)"/>
      <use xlink:href="#NotoSansCJKkr-Regular-50" transform="translate(841.359375 0)"/>
      <use xlink:href="#NotoSansCJKkr-Regular-4d" transform="translate(901.953125 0)"/>
      <use xlink:href="#NotoSansCJKkr-Regular-f6b3" transform="translate(930.359375 0)"/>
      <use xlink:href="#NotoSansCJKkr-Regular-3e" transform="translate(985.859375 0)"/>
      <use xlink:href="#NotoSansCJKkr-Regular-1" transform="translate(1019.65625 0)"/>
      <use xlink:href="#NotoSansCJKkr-Regular-59" transform="translate(1042.0625 0)"/>
      <use xlink:href="#NotoSansCJKkr-Regular-1" transform="translate(1091.859375 0)"/>
      <use xlink:href="#NotoSansCJKkr-Regular-f6b5" transform="translate(1114.265625 0)"/>
     </g>
    </g>
    <g id="line2d_23">
     <path d="M 53.28 73.303125 
L 63.28 73.303125 
L 73.28 73.303125 
" style="fill: none; stroke-dasharray: 1.5,2.475; stroke-dashoffset: 0; stroke: #808080; stroke-width: 1.5"/>
    </g>
    <g id="text_23">
     <!-- 입력 이미지 크기 (32px) -->
     <g transform="translate(81.28 76.803125) scale(0.1 -0.1)">
      <defs>
       <path id="NotoSansCJKkr-Regular-d580" d="M 4531 5293 
L 4531 2182 
L 5062 2182 
L 5062 5293 
L 4531 5293 
z
M 1338 1894 
L 1338 -422 
L 5062 -422 
L 5062 1894 
L 4538 1894 
L 4538 1197 
L 1856 1197 
L 1856 1894 
L 1338 1894 
z
M 1856 774 
L 4538 774 
L 4538 13 
L 1856 13 
L 1856 774 
z
M 1958 5018 
C 1088 5018 448 4474 448 3680 
C 448 2893 1088 2349 1958 2349 
C 2835 2349 3469 2893 3469 3680 
C 3469 4474 2835 5018 1958 5018 
z
M 1958 4570 
C 2534 4570 2950 4205 2950 3680 
C 2950 3155 2534 2790 1958 2790 
C 1382 2790 966 3155 966 3680 
C 966 4205 1382 4570 1958 4570 
z
" transform="scale(0.015625)"/>
       <path id="NotoSansCJKkr-Regular-c620" d="M 1210 1421 
L 1210 986 
L 4550 986 
L 4550 -506 
L 5082 -506 
L 5082 1421 
L 1210 1421 
z
M 550 4941 
L 550 4512 
L 2515 4512 
L 2515 3712 
L 563 3712 
L 563 1990 
L 973 1990 
C 2131 1990 2714 2010 3424 2131 
L 3373 2566 
C 2707 2445 2150 2419 1088 2419 
L 1088 3302 
L 3040 3302 
L 3040 4941 
L 550 4941 
z
M 3424 3232 
L 3424 2797 
L 4550 2797 
L 4550 1728 
L 5082 1728 
L 5082 5286 
L 4550 5286 
L 4550 4429 
L 3424 4429 
L 3424 4000 
L 4550 4000 
L 4550 3232 
L 3424 3232 
z
" transform="scale(0.015625)"/>
       <path id="NotoSansCJKkr-Regular-51" d="M 589 -1466 
L 1178 -1466 
L 1178 -288 
L 1158 320 
C 1472 58 1805 -83 2118 -83 
C 2912 -83 3629 602 3629 1792 
C 3629 2867 3142 3565 2246 3565 
C 1843 3565 1453 3334 1139 3072 
L 1126 3072 
L 1069 3475 
L 589 3475 
L 589 -1466 
z
M 2022 410 
C 1792 410 1485 499 1178 768 
L 1178 2598 
C 1510 2906 1811 3072 2099 3072 
C 2765 3072 3021 2560 3021 1786 
C 3021 928 2598 410 2022 410 
z
" transform="scale(0.015625)"/>
      </defs>
      <use xlink:href="#NotoSansCJKkr-Regular-d580"/>
      <use xlink:href="#NotoSansCJKkr-Regular-c620" transform="translate(92 0)"/>
      <use xlink:href="#NotoSansCJKkr-Regular-f684" transform="translate(184 0)"/>
      <use xlink:href="#NotoSansCJKkr-Regular-d56f" transform="translate(212 0)"/>
      <use xlink:href="#NotoSansCJKkr-Regular-c9f3" transform="translate(304 0)"/>
      <use xlink:href="#NotoSansCJKkr-Regular-d7bb" transform="translate(396 0)"/>
      <use xlink:href="#NotoSansCJKkr-Regular-f684" transform="translate(488 0)"/>
      <use xlink:href="#NotoSansCJKkr-Regular-de67" transform="translate(516 0)"/>
      <use xlink:href="#NotoSansCJKkr-Regular-bc2b" transform="translate(608 0)"/>
      <use xlink:href="#NotoSansCJKkr-Regular-1" transform="translate(700 0)"/>
      <use xlink:href="#NotoSansCJKkr-Regular-9" transform="translate(722.40625 0)"/>
      <use xlink:href="#NotoSansCJKkr-Regular-14" transform="translate(756.203125 0)"/>
      <use xlink:href="#NotoSansCJKkr-Regular-13" transform="translate(811.703125 0)"/>
      <use xlink:href="#NotoSansCJKkr-Regular-51" transform="translate(867.203125 0)"/>
      <use xlink:href="#NotoSansCJKkr-Regular-59" transform="translate(927.296875 0)"/>
      <use xlink:href="#NotoSansCJKkr-Regular-a" transform="translate(977.09375 0)"/>
     </g>
    </g>
   </g>
  </g>
 </g>
 <defs>
  <clipPath id="pf1773bc9c6">
   <rect x="44.28" y="27.54375" width="520.92" height="289.69625"/>
  </clipPath>
 </defs>
</svg>
