<?xml version="1.0" encoding="utf-8" standalone="no"?>
<!DOCTYPE svg PUBLIC "-//W3C//DTD SVG 1.1//EN"
  "http://www.w3.org/Graphics/SVG/1.1/DTD/svg11.dtd">
<svg xmlns:xlink="http://www.w3.org/1999/xlink" width="496.079062pt" height="280.59375pt" viewBox="0 0 496.079062 280.59375" xmlns="http://www.w3.org/2000/svg" version="1.1">
 <metadata>
  <rdf:RDF xmlns:dc="http://purl.org/dc/elements/1.1/" xmlns:cc="http://creativecommons.org/ns#" xmlns:rdf="http://www.w3.org/1999/02/22-rdf-syntax-ns#">
   <cc:Work>
    <dc:type rdf:resource="http://purl.org/dc/dcmitype/StillImage"/>
    <dc:date>2026-08-23T08:21:41.337527</dc:date>
    <dc:format>image/svg+xml</dc:format>
    <dc:creator>
     <cc:Agent>
      <dc:title>Matplotlib v3.11.1, https://matplotlib.org/</dc:title>
     </cc:Agent>
    </dc:creator>
   </cc:Work>
  </rdf:RDF>
 </metadata>
 <defs>
  <style type="text/css">*{stroke-linejoin: round; stroke-linecap: butt}</style>
 </defs>
 <g id="figure_1">
  <g id="patch_1">
   <path d="M 0 280.59375 
L 496.079062 280.59375 
L 496.079062 0 
L 0 0 
z
" style="fill: #ffffff"/>
  </g>
  <g id="axes_1">
   <g id="patch_2">
    <path d="M 42.839063 242.39375 
L 488.879062 242.39375 
L 488.879062 23.76 
L 42.839063 23.76 
z
" style="fill: #ffffff"/>
   </g>
   <g id="matplotlib.axis_1">
    <g id="xtick_1">
     <g id="line2d_1">
      <path d="M 63.113608 242.39375 
L 63.113608 23.76 
" clip-path="url(#p022726fc05)" style="fill: none; stroke: #b0b0b0; stroke-opacity: 0.3; stroke-width: 0.8; stroke-linecap: square"/>
     </g>
     <g id="line2d_2">
      <defs>
       <path id="m41640acd68" d="M 0 0 
L 0 3.5 
" style="stroke: #000000; stroke-width: 0.8"/>
      </defs>
      <g>
       <use xlink:href="#m41640acd68" x="63.113608" y="242.39375" style="stroke: #000000; stroke-width: 0.8"/>
      </g>
     </g>
     <g id="text_1">
      <!-- 0 -->
      <g transform="translate(60.338608 258.19375) scale(0.1 -0.1)">
       <defs>
        <path id="NotoSansCJKkr-Regular-11" d="M 1779 -83 
C 2669 -83 3238 723 3238 2362 
C 3238 3987 2669 4774 1779 4774 
C 883 4774 320 3987 320 2362 
C 320 723 883 -83 1779 -83 
z
M 1779 390 
C 1248 390 883 986 883 2362 
C 883 3731 1248 4314 1779 4314 
C 2310 4314 2675 3731 2675 2362 
C 2675 986 2310 390 1779 390 
z
" transform="scale(0.015625)"/>
       </defs>
       <use xlink:href="#NotoSansCJKkr-Regular-11"/>
      </g>
     </g>
    </g>
    <g id="xtick_2">
     <g id="line2d_3">
      <path d="M 114.054677 242.39375 
L 114.054677 23.76 
" clip-path="url(#p022726fc05)" style="fill: none; stroke: #b0b0b0; stroke-opacity: 0.3; stroke-width: 0.8; stroke-linecap: square"/>
     </g>
     <g id="line2d_4">
      <g>
       <use xlink:href="#m41640acd68" x="114.054677" y="242.39375" style="stroke: #000000; stroke-width: 0.8"/>
      </g>
     </g>
     <g id="text_2">
      <!-- 25 -->
      <g transform="translate(108.504677 258.19375) scale(0.1 -0.1)">
       <defs>
        <path id="NotoSansCJKkr-Regular-13" d="M 282 0 
L 3232 0 
L 3232 506 
L 1933 506 
C 1696 506 1408 480 1165 461 
C 2266 1504 3008 2458 3008 3398 
C 3008 4230 2477 4774 1638 4774 
C 1043 4774 634 4506 256 4090 
L 595 3757 
C 858 4070 1184 4301 1568 4301 
C 2150 4301 2432 3910 2432 3373 
C 2432 2566 1754 1632 282 346 
L 282 0 
z
" transform="scale(0.015625)"/>
        <path id="NotoSansCJKkr-Regular-16" d="M 1677 -83 
C 2464 -83 3213 499 3213 1523 
C 3213 2560 2573 3021 1798 3021 
C 1517 3021 1306 2950 1094 2835 
L 1216 4192 
L 2982 4192 
L 2982 4691 
L 704 4691 
L 550 2502 
L 864 2304 
C 1133 2483 1331 2579 1645 2579 
C 2234 2579 2618 2182 2618 1510 
C 2618 826 2176 403 1619 403 
C 1075 403 730 653 467 922 
L 173 538 
C 493 224 941 -83 1677 -83 
z
" transform="scale(0.015625)"/>
       </defs>
       <use xlink:href="#NotoSansCJKkr-Regular-13"/>
       <use xlink:href="#NotoSansCJKkr-Regular-16" transform="translate(55.5 0)"/>
      </g>
     </g>
    </g>
    <g id="xtick_3">
     <g id="line2d_5">
      <path d="M 164.995746 242.39375 
L 164.995746 23.76 
" clip-path="url(#p022726fc05)" style="fill: none; stroke: #b0b0b0; stroke-opacity: 0.3; stroke-width: 0.8; stroke-linecap: square"/>
     </g>
     <g id="line2d_6">
      <g>
       <use xlink:href="#m41640acd68" x="164.995746" y="242.39375" style="stroke: #000000; stroke-width: 0.8"/>
      </g>
     </g>
     <g id="text_3">
      <!-- 50 -->
      <g transform="translate(159.445746 258.19375) scale(0.1 -0.1)">
       <use xlink:href="#NotoSansCJKkr-Regular-16"/>
       <use xlink:href="#NotoSansCJKkr-Regular-11" transform="translate(55.5 0)"/>
      </g>
     </g>
    </g>
    <g id="xtick_4">
     <g id="line2d_7">
      <path d="M 215.936815 242.39375 
L 215.936815 23.76 
" clip-path="url(#p022726fc05)" style="fill: none; stroke: #b0b0b0; stroke-opacity: 0.3; stroke-width: 0.8; stroke-linecap: square"/>
     </g>
     <g id="line2d_8">
      <g>
       <use xlink:href="#m41640acd68" x="215.936815" y="242.39375" style="stroke: #000000; stroke-width: 0.8"/>
      </g>
     </g>
     <g id="text_4">
      <!-- 75 -->
      <g transform="translate(210.386815 258.19375) scale(0.1 -0.1)">
       <defs>
        <path id="NotoSansCJKkr-Regular-18" d="M 1267 0 
L 1875 0 
C 1952 1837 2150 2931 3251 4339 
L 3251 4691 
L 314 4691 
L 314 4192 
L 2592 4192 
C 1670 2912 1350 1779 1267 0 
z
" transform="scale(0.015625)"/>
       </defs>
       <use xlink:href="#NotoSansCJKkr-Regular-18"/>
       <use xlink:href="#NotoSansCJKkr-Regular-16" transform="translate(55.5 0)"/>
      </g>
     </g>
    </g>
    <g id="xtick_5">
     <g id="line2d_9">
      <path d="M 266.877884 242.39375 
L 266.877884 23.76 
" clip-path="url(#p022726fc05)" style="fill: none; stroke: #b0b0b0; stroke-opacity: 0.3; stroke-width: 0.8; stroke-linecap: square"/>
     </g>
     <g id="line2d_10">
      <g>
       <use xlink:href="#m41640acd68" x="266.877884" y="242.39375" style="stroke: #000000; stroke-width: 0.8"/>
      </g>
     </g>
     <g id="text_5">
      <!-- 100 -->
      <g transform="translate(258.552884 258.19375) scale(0.1 -0.1)">
       <defs>
        <path id="NotoSansCJKkr-Regular-12" d="M 563 0 
L 3136 0 
L 3136 486 
L 2195 486 
L 2195 4691 
L 1747 4691 
C 1491 4544 1190 4435 774 4358 
L 774 3987 
L 1613 3987 
L 1613 486 
L 563 486 
L 563 0 
z
" transform="scale(0.015625)"/>
       </defs>
       <use xlink:href="#NotoSansCJKkr-Regular-12"/>
       <use xlink:href="#NotoSansCJKkr-Regular-11" transform="translate(55.5 0)"/>
       <use xlink:href="#NotoSansCJKkr-Regular-11" transform="translate(111 0)"/>
      </g>
     </g>
    </g>
    <g id="xtick_6">
     <g id="line2d_11">
      <path d="M 317.818953 242.39375 
L 317.818953 23.76 
" clip-path="url(#p022726fc05)" style="fill: none; stroke: #b0b0b0; stroke-opacity: 0.3; stroke-width: 0.8; stroke-linecap: square"/>
     </g>
     <g id="line2d_12">
      <g>
       <use xlink:href="#m41640acd68" x="317.818953" y="242.39375" style="stroke: #000000; stroke-width: 0.8"/>
      </g>
     </g>
     <g id="text_6">
      <!-- 125 -->
      <g transform="translate(309.493953 258.19375) scale(0.1 -0.1)">
       <use xlink:href="#NotoSansCJKkr-Regular-12"/>
       <use xlink:href="#NotoSansCJKkr-Regular-13" transform="translate(55.5 0)"/>
       <use xlink:href="#NotoSansCJKkr-Regular-16" transform="translate(111 0)"/>
      </g>
     </g>
    </g>
    <g id="xtick_7">
     <g id="line2d_13">
      <path d="M 368.760022 242.39375 
L 368.760022 23.76 
" clip-path="url(#p022726fc05)" style="fill: none; stroke: #b0b0b0; stroke-opacity: 0.3; stroke-width: 0.8; stroke-linecap: square"/>
     </g>
     <g id="line2d_14">
      <g>
       <use xlink:href="#m41640acd68" x="368.760022" y="242.39375" style="stroke: #000000; stroke-width: 0.8"/>
      </g>
     </g>
     <g id="text_7">
      <!-- 150 -->
      <g transform="translate(360.435022 258.19375) scale(0.1 -0.1)">
       <use xlink:href="#NotoSansCJKkr-Regular-12"/>
       <use xlink:href="#NotoSansCJKkr-Regular-16" transform="translate(55.5 0)"/>
       <use xlink:href="#NotoSansCJKkr-Regular-11" transform="translate(111 0)"/>
      </g>
     </g>
    </g>
    <g id="xtick_8">
     <g id="line2d_15">
      <path d="M 419.701091 242.39375 
L 419.701091 23.76 
" clip-path="url(#p022726fc05)" style="fill: none; stroke: #b0b0b0; stroke-opacity: 0.3; stroke-width: 0.8; stroke-linecap: square"/>
     </g>
     <g id="line2d_16">
      <g>
       <use xlink:href="#m41640acd68" x="419.701091" y="242.39375" style="stroke: #000000; stroke-width: 0.8"/>
      </g>
     </g>
     <g id="text_8">
      <!-- 175 -->
      <g transform="translate(411.376091 258.19375) scale(0.1 -0.1)">
       <use xlink:href="#NotoSansCJKkr-Regular-12"/>
       <use xlink:href="#NotoSansCJKkr-Regular-18" transform="translate(55.5 0)"/>
       <use xlink:href="#NotoSansCJKkr-Regular-16" transform="translate(111 0)"/>
      </g>
     </g>
    </g>
    <g id="xtick_9">
     <g id="line2d_17">
      <path d="M 470.64216 242.39375 
L 470.64216 23.76 
" clip-path="url(#p022726fc05)" style="fill: none; stroke: #b0b0b0; stroke-opacity: 0.3; stroke-width: 0.8; stroke-linecap: square"/>
     </g>
     <g id="line2d_18">
      <g>
       <use xlink:href="#m41640acd68" x="470.64216" y="242.39375" style="stroke: #000000; stroke-width: 0.8"/>
      </g>
     </g>
     <g id="text_9">
      <!-- 200 -->
      <g transform="translate(462.31716 258.19375) scale(0.1 -0.1)">
       <use xlink:href="#NotoSansCJKkr-Regular-13"/>
       <use xlink:href="#NotoSansCJKkr-Regular-11" transform="translate(55.5 0)"/>
       <use xlink:href="#NotoSansCJKkr-Regular-11" transform="translate(111 0)"/>
      </g>
     </g>
    </g>
    <g id="text_10">
     <!-- 스텝 -->
     <g transform="translate(256.659063 272.19375) scale(0.1 -0.1)">
      <defs>
       <path id="NotoSansCJKkr-Regular-d09f" d="M 320 723 
L 320 282 
L 5568 282 
L 5568 723 
L 320 723 
z
M 2637 4890 
L 2637 4448 
C 2637 3462 1549 2586 538 2387 
L 774 1946 
C 1651 2150 2547 2771 2918 3610 
C 3296 2765 4186 2144 5062 1946 
L 5306 2387 
C 4288 2579 3194 3462 3194 4448 
L 3194 4890 
L 2637 4890 
z
" transform="scale(0.015625)"/>
       <path id="NotoSansCJKkr-Regular-df58" d="M 4691 5293 
L 4691 2022 
L 5197 2022 
L 5197 5293 
L 4691 5293 
z
M 1402 1773 
L 1402 -422 
L 5197 -422 
L 5197 1773 
L 4678 1773 
L 4678 1133 
L 1926 1133 
L 1926 1773 
L 1402 1773 
z
M 1926 710 
L 4678 710 
L 4678 13 
L 1926 13 
L 1926 710 
z
M 3584 5178 
L 3584 3904 
L 2810 3904 
L 2810 3469 
L 3584 3469 
L 3584 2080 
L 4090 2080 
L 4090 5178 
L 3584 5178 
z
M 582 4941 
L 582 2259 
L 947 2259 
C 1875 2259 2419 2278 3085 2413 
L 3027 2842 
C 2426 2720 1907 2688 1094 2688 
L 1094 3424 
L 2541 3424 
L 2541 3846 
L 1094 3846 
L 1094 4512 
L 2771 4512 
L 2771 4941 
L 582 4941 
z
" transform="scale(0.015625)"/>
      </defs>
      <use xlink:href="#NotoSansCJKkr-Regular-d09f"/>
      <use xlink:href="#NotoSansCJKkr-Regular-df58" transform="translate(92 0)"/>
     </g>
    </g>
   </g>
   <g id="matplotlib.axis_2">
    <g id="ytick_1">
     <g id="line2d_19">
      <path d="M 42.839063 228.271313 
L 488.879062 228.271313 
" clip-path="url(#p022726fc05)" style="fill: none; stroke: #b0b0b0; stroke-opacity: 0.3; stroke-width: 0.8; stroke-linecap: square"/>
     </g>
     <g id="line2d_20">
      <defs>
       <path id="m217a7acadd" d="M 0 0 
L -3.5 0 
" style="stroke: #000000; stroke-width: 0.8"/>
      </defs>
      <g>
       <use xlink:href="#m217a7acadd" x="42.839063" y="228.271313" style="stroke: #000000; stroke-width: 0.8"/>
      </g>
     </g>
     <g id="text_11">
      <!-- 0.0 -->
      <g transform="translate(21.959375 232.671313) scale(0.1 -0.1)">
       <defs>
        <path id="NotoSansCJKkr-Regular-f" d="M 890 -83 
C 1120 -83 1312 96 1312 358 
C 1312 627 1120 806 890 806 
C 653 806 467 627 467 358 
C 467 96 653 -83 890 -83 
z
" transform="scale(0.015625)"/>
       </defs>
       <use xlink:href="#NotoSansCJKkr-Regular-11"/>
       <use xlink:href="#NotoSansCJKkr-Regular-f" transform="translate(55.5 0)"/>
       <use xlink:href="#NotoSansCJKkr-Regular-11" transform="translate(83.296875 0)"/>
      </g>
     </g>
    </g>
    <g id="ytick_2">
     <g id="line2d_21">
      <path d="M 42.839063 195.842925 
L 488.879062 195.842925 
" clip-path="url(#p022726fc05)" style="fill: none; stroke: #b0b0b0; stroke-opacity: 0.3; stroke-width: 0.8; stroke-linecap: square"/>
     </g>
     <g id="line2d_22">
      <g>
       <use xlink:href="#m217a7acadd" x="42.839063" y="195.842925" style="stroke: #000000; stroke-width: 0.8"/>
      </g>
     </g>
     <g id="text_12">
      <!-- 0.5 -->
      <g transform="translate(21.959375 200.242925) scale(0.1 -0.1)">
       <use xlink:href="#NotoSansCJKkr-Regular-11"/>
       <use xlink:href="#NotoSansCJKkr-Regular-f" transform="translate(55.5 0)"/>
       <use xlink:href="#NotoSansCJKkr-Regular-16" transform="translate(83.296875 0)"/>
      </g>
     </g>
    </g>
    <g id="ytick_3">
     <g id="line2d_23">
      <path d="M 42.839063 163.414538 
L 488.879062 163.414538 
" clip-path="url(#p022726fc05)" style="fill: none; stroke: #b0b0b0; stroke-opacity: 0.3; stroke-width: 0.8; stroke-linecap: square"/>
     </g>
     <g id="line2d_24">
      <g>
       <use xlink:href="#m217a7acadd" x="42.839063" y="163.414538" style="stroke: #000000; stroke-width: 0.8"/>
      </g>
     </g>
     <g id="text_13">
      <!-- 1.0 -->
      <g transform="translate(21.959375 167.814538) scale(0.1 -0.1)">
       <use xlink:href="#NotoSansCJKkr-Regular-12"/>
       <use xlink:href="#NotoSansCJKkr-Regular-f" transform="translate(55.5 0)"/>
       <use xlink:href="#NotoSansCJKkr-Regular-11" transform="translate(83.296875 0)"/>
      </g>
     </g>
    </g>
    <g id="ytick_4">
     <g id="line2d_25">
      <path d="M 42.839063 130.98615 
L 488.879062 130.98615 
" clip-path="url(#p022726fc05)" style="fill: none; stroke: #b0b0b0; stroke-opacity: 0.3; stroke-width: 0.8; stroke-linecap: square"/>
     </g>
     <g id="line2d_26">
      <g>
       <use xlink:href="#m217a7acadd" x="42.839063" y="130.98615" style="stroke: #000000; stroke-width: 0.8"/>
      </g>
     </g>
     <g id="text_14">
      <!-- 1.5 -->
      <g transform="translate(21.959375 135.38615) scale(0.1 -0.1)">
       <use xlink:href="#NotoSansCJKkr-Regular-12"/>
       <use xlink:href="#NotoSansCJKkr-Regular-f" transform="translate(55.5 0)"/>
       <use xlink:href="#NotoSansCJKkr-Regular-16" transform="translate(83.296875 0)"/>
      </g>
     </g>
    </g>
    <g id="ytick_5">
     <g id="line2d_27">
      <path d="M 42.839063 98.557763 
L 488.879062 98.557763 
" clip-path="url(#p022726fc05)" style="fill: none; stroke: #b0b0b0; stroke-opacity: 0.3; stroke-width: 0.8; stroke-linecap: square"/>
     </g>
     <g id="line2d_28">
      <g>
       <use xlink:href="#m217a7acadd" x="42.839063" y="98.557763" style="stroke: #000000; stroke-width: 0.8"/>
      </g>
     </g>
     <g id="text_15">
      <!-- 2.0 -->
      <g transform="translate(21.959375 102.957763) scale(0.1 -0.1)">
       <use xlink:href="#NotoSansCJKkr-Regular-13"/>
       <use xlink:href="#NotoSansCJKkr-Regular-f" transform="translate(55.5 0)"/>
       <use xlink:href="#NotoSansCJKkr-Regular-11" transform="translate(83.296875 0)"/>
      </g>
     </g>
    </g>
    <g id="ytick_6">
     <g id="line2d_29">
      <path d="M 42.839063 66.129375 
L 488.879062 66.129375 
" clip-path="url(#p022726fc05)" style="fill: none; stroke: #b0b0b0; stroke-opacity: 0.3; stroke-width: 0.8; stroke-linecap: square"/>
     </g>
     <g id="line2d_30">
      <g>
       <use xlink:href="#m217a7acadd" x="42.839063" y="66.129375" style="stroke: #000000; stroke-width: 0.8"/>
      </g>
     </g>
     <g id="text_16">
      <!-- 2.5 -->
      <g transform="translate(21.959375 70.529375) scale(0.1 -0.1)">
       <use xlink:href="#NotoSansCJKkr-Regular-13"/>
       <use xlink:href="#NotoSansCJKkr-Regular-f" transform="translate(55.5 0)"/>
       <use xlink:href="#NotoSansCJKkr-Regular-16" transform="translate(83.296875 0)"/>
      </g>
     </g>
    </g>
    <g id="ytick_7">
     <g id="line2d_31">
      <path d="M 42.839063 33.700988 
L 488.879062 33.700988 
" clip-path="url(#p022726fc05)" style="fill: none; stroke: #b0b0b0; stroke-opacity: 0.3; stroke-width: 0.8; stroke-linecap: square"/>
     </g>
     <g id="line2d_32">
      <g>
       <use xlink:href="#m217a7acadd" x="42.839063" y="33.700988" style="stroke: #000000; stroke-width: 0.8"/>
      </g>
     </g>
     <g id="text_17">
      <!-- 3.0 -->
      <g transform="translate(21.959375 38.100988) scale(0.1 -0.1)">
       <defs>
        <path id="NotoSansCJKkr-Regular-14" d="M 1683 -83 
C 2522 -83 3194 416 3194 1254 
C 3194 1901 2752 2310 2202 2445 
L 2202 2477 
C 2701 2650 3034 3034 3034 3603 
C 3034 4346 2458 4774 1664 4774 
C 1126 4774 710 4538 358 4218 
L 672 3846 
C 941 4115 1267 4301 1645 4301 
C 2138 4301 2438 4006 2438 3558 
C 2438 3053 2112 2662 1139 2662 
L 1139 2214 
C 2227 2214 2598 1843 2598 1274 
C 2598 736 2208 403 1645 403 
C 1114 403 762 659 486 941 
L 186 563 
C 493 224 954 -83 1683 -83 
z
" transform="scale(0.015625)"/>
       </defs>
       <use xlink:href="#NotoSansCJKkr-Regular-14"/>
       <use xlink:href="#NotoSansCJKkr-Regular-f" transform="translate(55.5 0)"/>
       <use xlink:href="#NotoSansCJKkr-Regular-11" transform="translate(83.296875 0)"/>
      </g>
     </g>
    </g>
    <g id="text_18">
     <!-- 각도 θ (라디안) -->
     <g transform="translate(16 164.612031) rotate(-90) scale(0.1 -0.1)">
      <defs>
       <path id="NotoSansCJKkr-Regular-b9fc" d="M 1050 1632 
L 1050 1197 
L 4282 1197 
L 4282 -499 
L 4813 -499 
L 4813 1632 
L 1050 1632 
z
M 4282 5293 
L 4282 1901 
L 4813 1901 
L 4813 3379 
L 5664 3379 
L 5664 3827 
L 4813 3827 
L 4813 5293 
L 4282 5293 
z
M 570 4922 
L 570 4493 
L 2662 4493 
C 2566 3520 1715 2752 307 2374 
L 525 1958 
C 2221 2413 3232 3456 3232 4922 
L 570 4922 
z
" transform="scale(0.015625)"/>
       <path id="NotoSansCJKkr-Regular-c1bf" d="M 986 4826 
L 986 2157 
L 2669 2157 
L 2669 672 
L 320 672 
L 320 230 
L 5568 230 
L 5568 672 
L 3194 672 
L 3194 2157 
L 4960 2157 
L 4960 2586 
L 1517 2586 
L 1517 4390 
L 4902 4390 
L 4902 4826 
L 986 4826 
z
" transform="scale(0.015625)"/>
       <path id="NotoSansCJKkr-Regular-1" transform="scale(0.015625)"/>
       <path id="NotoSansCJKkr-Regular-120" d="M 1869 -83 
C 2758 -83 3309 736 3309 2566 
C 3309 4269 2758 5178 1869 5178 
C 973 5178 429 4269 429 2566 
C 429 736 973 -83 1869 -83 
z
M 1869 403 
C 1389 403 1030 896 998 2368 
L 2733 2368 
C 2701 896 2349 403 1869 403 
z
M 998 2784 
C 1037 4141 1395 4698 1869 4698 
C 2342 4698 2694 4141 2733 2784 
L 998 2784 
z
" transform="scale(0.015625)"/>
       <path id="NotoSansCJKkr-Regular-9" d="M 1530 -1254 
L 1888 -1094 
C 1338 -186 1075 902 1075 1990 
C 1075 3072 1338 4154 1888 5069 
L 1530 5235 
C 941 4275 589 3245 589 1990 
C 589 730 941 -301 1530 -1254 
z
" transform="scale(0.015625)"/>
       <path id="NotoSansCJKkr-Regular-c577" d="M 4243 5293 
L 4243 -506 
L 4768 -506 
L 4768 2547 
L 5715 2547 
L 5715 2995 
L 4768 2995 
L 4768 5293 
L 4243 5293 
z
M 544 4755 
L 544 4320 
L 2630 4320 
L 2630 3110 
L 557 3110 
L 557 890 
L 1018 890 
C 2118 890 2886 934 3789 1101 
L 3738 1536 
C 2874 1376 2131 1338 1082 1338 
L 1082 2675 
L 3155 2675 
L 3155 4755 
L 544 4755 
z
" transform="scale(0.015625)"/>
       <path id="NotoSansCJKkr-Regular-c30f" d="M 4525 5293 
L 4525 -506 
L 5056 -506 
L 5056 5293 
L 4525 5293 
z
M 691 4742 
L 691 928 
L 1158 928 
C 2330 928 3085 966 3962 1126 
L 3910 1574 
C 3066 1414 2336 1382 1222 1382 
L 1222 4301 
L 3424 4301 
L 3424 4742 
L 691 4742 
z
" transform="scale(0.015625)"/>
       <path id="NotoSansCJKkr-Regular-d343" d="M 1933 4883 
C 1075 4883 422 4294 422 3456 
C 422 2624 1075 2029 1933 2029 
C 2797 2029 3443 2624 3443 3456 
C 3443 4294 2797 4883 1933 4883 
z
M 1933 4422 
C 2502 4422 2931 4026 2931 3456 
C 2931 2893 2502 2496 1933 2496 
C 1376 2496 941 2893 941 3456 
C 941 4026 1376 4422 1933 4422 
z
M 4282 5293 
L 4282 1030 
L 4813 1030 
L 4813 3091 
L 5664 3091 
L 5664 3533 
L 4813 3533 
L 4813 5293 
L 4282 5293 
z
M 1210 1466 
L 1210 -371 
L 5069 -371 
L 5069 64 
L 1734 64 
L 1734 1466 
L 1210 1466 
z
" transform="scale(0.015625)"/>
       <path id="NotoSansCJKkr-Regular-a" d="M 634 -1254 
C 1222 -301 1574 730 1574 1990 
C 1574 3245 1222 4275 634 5235 
L 269 5069 
C 819 4154 1094 3072 1094 1990 
C 1094 902 819 -186 269 -1094 
L 634 -1254 
z
" transform="scale(0.015625)"/>
      </defs>
      <use xlink:href="#NotoSansCJKkr-Regular-b9fc"/>
      <use xlink:href="#NotoSansCJKkr-Regular-c1bf" transform="translate(92 0)"/>
      <use xlink:href="#NotoSansCJKkr-Regular-1" transform="translate(184 0)"/>
      <use xlink:href="#NotoSansCJKkr-Regular-120" transform="translate(206.40625 0)"/>
      <use xlink:href="#NotoSansCJKkr-Regular-1" transform="translate(264.703125 0)"/>
      <use xlink:href="#NotoSansCJKkr-Regular-9" transform="translate(287.109375 0)"/>
      <use xlink:href="#NotoSansCJKkr-Regular-c577" transform="translate(320.90625 0)"/>
      <use xlink:href="#NotoSansCJKkr-Regular-c30f" transform="translate(412.90625 0)"/>
      <use xlink:href="#NotoSansCJKkr-Regular-d343" transform="translate(504.90625 0)"/>
      <use xlink:href="#NotoSansCJKkr-Regular-a" transform="translate(596.90625 0)"/>
     </g>
    </g>
   </g>
   <g id="line2d_33">
    <path d="M 63.113608 33.697898 
L 103.866463 33.885824 
L 118.129962 34.092112 
L 173.146317 34.269604 
L 187.409816 34.59009 
L 226.125029 36.046902 
L 244.463814 36.370763 
L 258.727313 36.392862 
L 272.990812 36.177506 
L 299.480168 35.821701 
L 321.894238 35.769047 
L 389.136449 36.480527 
L 407.475234 36.858122 
L 423.776376 37.070842 
L 460.453946 37.081577 
L 468.604517 37.131263 
L 468.604517 37.131263 
" clip-path="url(#p022726fc05)" style="fill: none; stroke: #808080; stroke-linecap: square"/>
   </g>
   <g id="line2d_34">
    <path d="M 63.113608 33.717127 
L 71.264179 33.942387 
L 79.41475 34.423353 
L 87.565321 35.158518 
L 95.715892 36.146846 
L 103.866463 37.387761 
L 112.017034 38.881137 
L 120.167605 40.62729 
L 128.318176 42.626966 
L 136.468747 44.881327 
L 144.619318 47.391931 
L 152.769889 50.160719 
L 160.92046 53.189984 
L 169.071031 56.480843 
L 177.221602 60.022405 
L 185.372174 63.798702 
L 193.522745 67.794288 
L 203.710958 73.074338 
L 213.899172 78.645133 
L 224.087386 84.478858 
L 234.2756 90.548153 
L 246.501456 98.104075 
L 258.727313 105.913359 
L 272.990812 115.281554 
L 291.329597 127.616767 
L 352.45888 169.053828 
L 366.722379 178.340259 
L 378.948236 186.062598 
L 391.174092 193.520537 
L 401.362306 199.50507 
L 411.55052 205.258035 
L 421.738734 210.760949 
L 431.926947 215.997606 
L 442.115161 220.954183 
L 452.303375 225.619299 
L 462.491589 229.984019 
L 468.604517 232.455852 
L 468.604517 232.455852 
" clip-path="url(#p022726fc05)" style="fill: none; stroke: #1f77b4; stroke-width: 1.4; stroke-linecap: square"/>
   </g>
   <g id="line2d_35">
    <path d="M 42.839063 228.271313 
L 488.879062 228.271313 
" clip-path="url(#p022726fc05)" style="fill: none; stroke-dasharray: 3.7,1.6; stroke-dashoffset: 0; stroke: #d62728"/>
   </g>
   <g id="patch_3">
    <path d="M 42.839063 242.39375 
L 42.839063 23.76 
" style="fill: none; stroke: #000000; stroke-width: 0.8; stroke-linejoin: miter; stroke-linecap: square"/>
   </g>
   <g id="patch_4">
    <path d="M 488.879062 242.39375 
L 488.879062 23.76 
" style="fill: none; stroke: #000000; stroke-width: 0.8; stroke-linejoin: miter; stroke-linecap: square"/>
   </g>
   <g id="patch_5">
    <path d="M 42.839062 242.39375 
L 488.879062 242.39375 
" style="fill: none; stroke: #000000; stroke-width: 0.8; stroke-linejoin: miter; stroke-linecap: square"/>
   </g>
   <g id="patch_6">
    <path d="M 42.839062 23.76 
L 488.879062 23.76 
" style="fill: none; stroke: #000000; stroke-width: 0.8; stroke-linejoin: miter; stroke-linecap: square"/>
   </g>
   <g id="text_19">
    <!-- MuJoCo 진자: PD 제어 vs 무작위 제어 (200스텝) -->
    <g transform="translate(142.996875 17.76) scale(0.12 -0.12)">
     <defs>
      <path id="NotoSansCJKkr-Regular-2e" d="M 646 0 
L 1178 0 
L 1178 2598 
C 1178 3002 1139 3571 1101 3981 
L 1126 3981 
L 1504 2912 
L 2394 474 
L 2790 474 
L 3674 2912 
L 4051 3981 
L 4077 3981 
C 4045 3571 4000 3002 4000 2598 
L 4000 0 
L 4550 0 
L 4550 4691 
L 3840 4691 
L 2944 2182 
C 2835 1862 2739 1530 2618 1203 
L 2592 1203 
C 2477 1530 2374 1862 2253 2182 
L 1357 4691 
L 646 4691 
L 646 0 
z
" transform="scale(0.015625)"/>
      <path id="NotoSansCJKkr-Regular-56" d="M 1606 -83 
C 2080 -83 2426 166 2752 544 
L 2771 544 
L 2816 0 
L 3302 0 
L 3302 3475 
L 2720 3475 
L 2720 1011 
C 2387 602 2138 422 1779 422 
C 1318 422 1126 698 1126 1344 
L 1126 3475 
L 538 3475 
L 538 1274 
C 538 384 870 -83 1606 -83 
z
" transform="scale(0.015625)"/>
      <path id="NotoSansCJKkr-Regular-2b" d="M 1517 -83 
C 2432 -83 2810 563 2810 1376 
L 2810 4691 
L 2214 4691 
L 2214 1434 
C 2214 723 1965 435 1459 435 
C 1120 435 858 589 646 966 
L 224 659 
C 499 173 922 -83 1517 -83 
z
" transform="scale(0.015625)"/>
      <path id="NotoSansCJKkr-Regular-50" d="M 1939 -83 
C 2790 -83 3546 582 3546 1734 
C 3546 2893 2790 3565 1939 3565 
C 1088 3565 333 2893 333 1734 
C 333 582 1088 -83 1939 -83 
z
M 1939 403 
C 1338 403 934 934 934 1734 
C 934 2534 1338 3072 1939 3072 
C 2541 3072 2950 2534 2950 1734 
C 2950 934 2541 403 1939 403 
z
" transform="scale(0.015625)"/>
      <path id="NotoSansCJKkr-Regular-24" d="M 2413 -83 
C 3021 -83 3482 160 3853 589 
L 3526 966 
C 3226 634 2886 435 2438 435 
C 1542 435 979 1178 979 2362 
C 979 3533 1574 4256 2458 4256 
C 2861 4256 3168 4077 3418 3814 
L 3738 4198 
C 3469 4499 3021 4774 2451 4774 
C 1261 4774 371 3859 371 2342 
C 371 819 1242 -83 2413 -83 
z
" transform="scale(0.015625)"/>
      <path id="NotoSansCJKkr-Regular-d7bf" d="M 4531 5286 
L 4531 1050 
L 5062 1050 
L 5062 5286 
L 4531 5286 
z
M 538 4813 
L 538 4378 
L 1862 4378 
L 1862 4064 
C 1862 3245 1267 2490 397 2182 
L 672 1766 
C 1363 2016 1894 2534 2144 3187 
C 2400 2586 2925 2106 3590 1882 
L 3859 2298 
C 3002 2579 2400 3283 2400 4064 
L 2400 4378 
L 3706 4378 
L 3706 4813 
L 538 4813 
z
M 1344 1446 
L 1344 -371 
L 5242 -371 
L 5242 64 
L 1875 64 
L 1875 1446 
L 1344 1446 
z
" transform="scale(0.015625)"/>
      <path id="NotoSansCJKkr-Regular-d58b" d="M 429 4698 
L 429 4256 
L 1747 4256 
L 1747 3526 
C 1747 2541 1056 1446 224 1037 
L 538 614 
C 1184 947 1754 1690 2016 2528 
C 2278 1754 2816 1075 3456 755 
L 3757 1178 
C 2925 1581 2272 2605 2272 3526 
L 2272 4256 
L 3552 4256 
L 3552 4698 
L 429 4698 
z
M 4237 5293 
L 4237 -499 
L 4768 -499 
L 4768 2509 
L 5715 2509 
L 5715 2957 
L 4768 2957 
L 4768 5293 
L 4237 5293 
z
" transform="scale(0.015625)"/>
      <path id="NotoSansCJKkr-Regular-1b" d="M 890 2496 
C 1120 2496 1312 2675 1312 2944 
C 1312 3206 1120 3392 890 3392 
C 653 3392 467 3206 467 2944 
C 467 2675 653 2496 890 2496 
z
M 890 -83 
C 1120 -83 1312 96 1312 358 
C 1312 627 1120 806 890 806 
C 653 806 467 627 467 358 
C 467 96 653 -83 890 -83 
z
" transform="scale(0.015625)"/>
      <path id="NotoSansCJKkr-Regular-31" d="M 646 0 
L 1235 0 
L 1235 1869 
L 2010 1869 
C 3040 1869 3738 2323 3738 3315 
C 3738 4339 3034 4691 1984 4691 
L 646 4691 
L 646 0 
z
M 1235 2349 
L 1235 4211 
L 1907 4211 
C 2733 4211 3149 4000 3149 3315 
C 3149 2643 2758 2349 1933 2349 
L 1235 2349 
z
" transform="scale(0.015625)"/>
      <path id="NotoSansCJKkr-Regular-25" d="M 646 0 
L 1843 0 
C 3258 0 4026 877 4026 2362 
C 4026 3859 3258 4691 1818 4691 
L 646 4691 
L 646 0 
z
M 1235 486 
L 1235 4211 
L 1766 4211 
C 2874 4211 3418 3552 3418 2362 
C 3418 1178 2874 486 1766 486 
L 1235 486 
z
" transform="scale(0.015625)"/>
      <path id="NotoSansCJKkr-Regular-d617" d="M 4723 5293 
L 4723 -499 
L 5229 -499 
L 5229 5293 
L 4723 5293 
z
M 3565 5158 
L 3565 3213 
L 2611 3213 
L 2611 2778 
L 3565 2778 
L 3565 -198 
L 4064 -198 
L 4064 5158 
L 3565 5158 
z
M 410 4614 
L 410 4179 
L 1504 4179 
L 1504 3654 
C 1504 2598 1050 1542 250 1056 
L 576 659 
C 1152 1018 1562 1696 1766 2483 
C 1971 1754 2362 1133 2925 794 
L 3245 1190 
C 2451 1651 2016 2650 2016 3654 
L 2016 4179 
L 3053 4179 
L 3053 4614 
L 410 4614 
z
" transform="scale(0.015625)"/>
      <path id="NotoSansCJKkr-Regular-d3af" d="M 1862 4371 
C 2419 4371 2803 3763 2803 2829 
C 2803 1888 2419 1280 1862 1280 
C 1312 1280 928 1888 928 2829 
C 928 3763 1312 4371 1862 4371 
z
M 4557 5293 
L 4557 3085 
L 3296 3085 
C 3219 4166 2650 4845 1862 4845 
C 1018 4845 422 4058 422 2829 
C 422 1594 1018 806 1862 806 
C 2669 806 3245 1523 3296 2656 
L 4557 2656 
L 4557 -506 
L 5082 -506 
L 5082 5293 
L 4557 5293 
z
" transform="scale(0.015625)"/>
      <path id="NotoSansCJKkr-Regular-57" d="M 1338 0 
L 2022 0 
L 3251 3475 
L 2675 3475 
L 2016 1498 
C 1914 1158 1798 806 1696 474 
L 1664 474 
C 1562 806 1453 1158 1344 1498 
L 691 3475 
L 83 3475 
L 1338 0 
z
" transform="scale(0.015625)"/>
      <path id="NotoSansCJKkr-Regular-54" d="M 1498 -83 
C 2317 -83 2758 384 2758 947 
C 2758 1606 2208 1811 1702 2003 
C 1312 2150 954 2278 954 2605 
C 954 2880 1158 3110 1600 3110 
C 1907 3110 2150 2976 2387 2803 
L 2669 3168 
C 2406 3386 2022 3565 1594 3565 
C 832 3565 397 3130 397 2579 
C 397 1984 922 1754 1408 1574 
C 1792 1434 2202 1267 2202 915 
C 2202 614 1978 371 1517 371 
C 1101 371 794 538 486 787 
L 205 397 
C 531 122 1005 -83 1498 -83 
z
" transform="scale(0.015625)"/>
      <path id="NotoSansCJKkr-Regular-c92f" d="M 986 4973 
L 986 2714 
L 4890 2714 
L 4890 4973 
L 986 4973 
z
M 4365 4544 
L 4365 3136 
L 1504 3136 
L 1504 4544 
L 4365 4544 
z
M 314 1933 
L 314 1498 
L 2662 1498 
L 2662 -493 
L 3187 -493 
L 3187 1498 
L 5562 1498 
L 5562 1933 
L 314 1933 
z
" transform="scale(0.015625)"/>
      <path id="NotoSansCJKkr-Regular-d58c" d="M 1050 1498 
L 1050 1062 
L 4282 1062 
L 4282 -499 
L 4813 -499 
L 4813 1498 
L 1050 1498 
z
M 454 4890 
L 454 4454 
L 1747 4454 
L 1747 4230 
C 1747 3405 1165 2656 294 2349 
L 576 1939 
C 1254 2182 1773 2688 2022 3341 
C 2266 2752 2758 2278 3411 2048 
L 3680 2464 
C 2829 2758 2278 3462 2278 4230 
L 2278 4454 
L 3552 4454 
L 3552 4890 
L 454 4890 
z
M 4282 5293 
L 4282 1805 
L 4813 1805 
L 4813 3322 
L 5664 3322 
L 5664 3770 
L 4813 3770 
L 4813 5293 
L 4282 5293 
z
" transform="scale(0.015625)"/>
      <path id="NotoSansCJKkr-Regular-d4ff" d="M 2208 5018 
C 1350 5018 736 4538 736 3827 
C 736 3123 1350 2637 2208 2637 
C 3072 2637 3686 3123 3686 3827 
C 3686 4538 3072 5018 2208 5018 
z
M 2208 4582 
C 2778 4582 3181 4275 3181 3827 
C 3181 3379 2778 3078 2208 3078 
C 1651 3078 1248 3379 1248 3827 
C 1248 4275 1651 4582 2208 4582 
z
M 4538 5286 
L 4538 -499 
L 5062 -499 
L 5062 5286 
L 4538 5286 
z
M 378 1702 
C 851 1702 1402 1709 1978 1734 
L 1978 -320 
L 2509 -320 
L 2509 1766 
C 3059 1805 3616 1862 4160 1965 
L 4122 2362 
C 2854 2170 1382 2150 307 2150 
L 378 1702 
z
" transform="scale(0.015625)"/>
      <path id="NotoSansCJKkr-Regular-f684" transform="scale(0.015625)"/>
     </defs>
     <use xlink:href="#NotoSansCJKkr-Regular-2e"/>
     <use xlink:href="#NotoSansCJKkr-Regular-56" transform="translate(81.203125 0)"/>
     <use xlink:href="#NotoSansCJKkr-Regular-2b" transform="translate(141.90625 0)"/>
     <use xlink:href="#NotoSansCJKkr-Regular-50" transform="translate(195.40625 0)"/>
     <use xlink:href="#NotoSansCJKkr-Regular-24" transform="translate(256 0)"/>
     <use xlink:href="#NotoSansCJKkr-Regular-50" transform="translate(319.796875 0)"/>
     <use xlink:href="#NotoSansCJKkr-Regular-1" transform="translate(380.390625 0)"/>
     <use xlink:href="#NotoSansCJKkr-Regular-d7bf" transform="translate(402.796875 0)"/>
     <use xlink:href="#NotoSansCJKkr-Regular-d58b" transform="translate(494.796875 0)"/>
     <use xlink:href="#NotoSansCJKkr-Regular-1b" transform="translate(586.796875 0)"/>
     <use xlink:href="#NotoSansCJKkr-Regular-1" transform="translate(614.59375 0)"/>
     <use xlink:href="#NotoSansCJKkr-Regular-31" transform="translate(637 0)"/>
     <use xlink:href="#NotoSansCJKkr-Regular-25" transform="translate(700.296875 0)"/>
     <use xlink:href="#NotoSansCJKkr-Regular-1" transform="translate(769.09375 0)"/>
     <use xlink:href="#NotoSansCJKkr-Regular-d617" transform="translate(791.5 0)"/>
     <use xlink:href="#NotoSansCJKkr-Regular-d3af" transform="translate(883.5 0)"/>
     <use xlink:href="#NotoSansCJKkr-Regular-1" transform="translate(975.5 0)"/>
     <use xlink:href="#NotoSansCJKkr-Regular-57" transform="translate(997.90625 0)"/>
     <use xlink:href="#NotoSansCJKkr-Regular-54" transform="translate(1050 0)"/>
     <use xlink:href="#NotoSansCJKkr-Regular-1" transform="translate(1096.796875 0)"/>
     <use xlink:href="#NotoSansCJKkr-Regular-c92f" transform="translate(1119.203125 0)"/>
     <use xlink:href="#NotoSansCJKkr-Regular-d58c" transform="translate(1211.203125 0)"/>
     <use xlink:href="#NotoSansCJKkr-Regular-d4ff" transform="translate(1303.203125 0)"/>
     <use xlink:href="#NotoSansCJKkr-Regular-f684" transform="translate(1395.203125 0)"/>
     <use xlink:href="#NotoSansCJKkr-Regular-d617" transform="translate(1423.203125 0)"/>
     <use xlink:href="#NotoSansCJKkr-Regular-d3af" transform="translate(1515.203125 0)"/>
     <use xlink:href="#NotoSansCJKkr-Regular-1" transform="translate(1607.203125 0)"/>
     <use xlink:href="#NotoSansCJKkr-Regular-9" transform="translate(1629.609375 0)"/>
     <use xlink:href="#NotoSansCJKkr-Regular-13" transform="translate(1663.40625 0)"/>
     <use xlink:href="#NotoSansCJKkr-Regular-11" transform="translate(1718.90625 0)"/>
     <use xlink:href="#NotoSansCJKkr-Regular-11" transform="translate(1774.40625 0)"/>
     <use xlink:href="#NotoSansCJKkr-Regular-d09f" transform="translate(1829.90625 0)"/>
     <use xlink:href="#NotoSansCJKkr-Regular-df58" transform="translate(1921.90625 0)"/>
     <use xlink:href="#NotoSansCJKkr-Regular-a" transform="translate(2013.90625 0)"/>
    </g>
   </g>
   <g id="legend_1">
    <g id="patch_7">
     <path d="M 374.937656 155.360312 
L 482.579063 155.360312 
Q 484.379063 155.360312 484.379063 153.560312 
L 484.379063 112.593437 
Q 484.379063 110.793437 482.579063 110.793437 
L 374.937656 110.793437 
Q 373.137656 110.793437 373.137656 112.593437 
L 373.137656 153.560312 
Q 373.137656 155.360312 374.937656 155.360312 
z
" style="fill: #ffffff; opacity: 0.8; stroke: #cccccc; stroke-linejoin: miter"/>
    </g>
    <g id="line2d_36">
     <path d="M 376.737656 119.163437 
L 385.737656 119.163437 
L 394.737656 119.163437 
" style="fill: none; stroke: #808080; stroke-linecap: square"/>
    </g>
    <g id="text_20">
     <!-- 무작위 제어 -->
     <g transform="translate(401.937656 122.313437) scale(0.09 -0.09)">
      <use xlink:href="#NotoSansCJKkr-Regular-c92f"/>
      <use xlink:href="#NotoSansCJKkr-Regular-d58c" transform="translate(92 0)"/>
      <use xlink:href="#NotoSansCJKkr-Regular-d4ff" transform="translate(184 0)"/>
      <use xlink:href="#NotoSansCJKkr-Regular-f684" transform="translate(276 0)"/>
      <use xlink:href="#NotoSansCJKkr-Regular-d617" transform="translate(304 0)"/>
      <use xlink:href="#NotoSansCJKkr-Regular-d3af" transform="translate(396 0)"/>
     </g>
    </g>
    <g id="line2d_37">
     <path d="M 376.737656 132.663437 
L 385.737656 132.663437 
L 394.737656 132.663437 
" style="fill: none; stroke: #1f77b4; stroke-width: 1.4; stroke-linecap: square"/>
    </g>
    <g id="text_21">
     <!-- PD 제어  (-3θ - 0.5θ̇) -->
     <g transform="translate(401.937656 135.813437) scale(0.09 -0.09)">
      <defs>
       <path id="NotoSansCJKkr-Regular-e" d="M 294 1568 
L 1933 1568 
L 1933 2016 
L 294 2016 
L 294 1568 
z
" transform="scale(0.015625)"/>
       <path id="NotoSansCJKkr-Regular-f6b1" d="M 1779 -83 
C 2688 -83 3238 768 3238 2298 
C 3238 3821 2688 4646 1779 4646 
C 864 4646 320 3827 320 2298 
C 320 768 864 -83 1779 -83 
z
M 1779 390 
C 1248 390 883 960 883 2298 
C 883 3635 1248 4179 1779 4179 
C 2310 4179 2675 3635 2675 2298 
C 2675 960 2310 390 1779 390 
z
" transform="scale(0.015625)"/>
       <path id="NotoSansCJKkr-Regular-f6b6" d="M 1677 -83 
C 2464 -83 3213 474 3213 1459 
C 3213 2445 2573 2886 1798 2886 
C 1517 2886 1306 2822 1094 2701 
L 1216 4058 
L 2982 4058 
L 2982 4563 
L 704 4563 
L 550 2368 
L 864 2170 
C 1133 2349 1331 2451 1645 2451 
C 2234 2451 2618 2074 2618 1440 
C 2618 806 2176 403 1619 403 
C 1075 403 730 653 467 922 
L 173 538 
C 493 224 941 -83 1677 -83 
z
" transform="scale(0.015625)"/>
       <path id="NotoSansCJKkr-Regular-ff" d="M 1926 4211 
C 1568 4211 1331 4486 1325 4794 
C 1325 5107 1555 5414 1920 5414 
C 2291 5408 2515 5114 2515 4794 
C 2515 4480 2291 4211 1926 4211 
z
" transform="scale(0.015625)"/>
      </defs>
      <use xlink:href="#NotoSansCJKkr-Regular-31"/>
      <use xlink:href="#NotoSansCJKkr-Regular-25" transform="translate(63.296875 0)"/>
      <use xlink:href="#NotoSansCJKkr-Regular-1" transform="translate(132.09375 0)"/>
      <use xlink:href="#NotoSansCJKkr-Regular-d617" transform="translate(154.5 0)"/>
      <use xlink:href="#NotoSansCJKkr-Regular-d3af" transform="translate(246.5 0)"/>
      <use xlink:href="#NotoSansCJKkr-Regular-1" transform="translate(338.5 0)"/>
      <use xlink:href="#NotoSansCJKkr-Regular-1" transform="translate(360.90625 0)"/>
      <use xlink:href="#NotoSansCJKkr-Regular-9" transform="translate(383.3125 0)"/>
      <use xlink:href="#NotoSansCJKkr-Regular-e" transform="translate(417.109375 0)"/>
      <use xlink:href="#NotoSansCJKkr-Regular-14" transform="translate(451.8125 0)"/>
      <use xlink:href="#NotoSansCJKkr-Regular-120" transform="translate(507.3125 0)"/>
      <use xlink:href="#NotoSansCJKkr-Regular-1" transform="translate(565.609375 0)"/>
      <use xlink:href="#NotoSansCJKkr-Regular-e" transform="translate(588.015625 0)"/>
      <use xlink:href="#NotoSansCJKkr-Regular-1" transform="translate(622.71875 0)"/>
      <use xlink:href="#NotoSansCJKkr-Regular-f6b1" transform="translate(645.125 0)"/>
      <use xlink:href="#NotoSansCJKkr-Regular-f" transform="translate(700.625 0)"/>
      <use xlink:href="#NotoSansCJKkr-Regular-f6b6" transform="translate(728.421875 0)"/>
      <use xlink:href="#NotoSansCJKkr-Regular-120" transform="translate(783.921875 0)"/>
      <use xlink:href="#NotoSansCJKkr-Regular-ff" transform="translate(842.21875 0)"/>
      <use xlink:href="#NotoSansCJKkr-Regular-a" transform="translate(842.21875 0)"/>
     </g>
    </g>
    <g id="line2d_38">
     <path d="M 376.737656 146.846875 
L 385.737656 146.846875 
L 394.737656 146.846875 
" style="fill: none; stroke-dasharray: 3.7,1.6; stroke-dashoffset: 0; stroke: #d62728"/>
    </g>
    <g id="text_22">
     <!-- 목표 (θ=0) -->
     <g transform="translate(401.937656 149.996875) scale(0.09 -0.09)">
      <defs>
       <path id="NotoSansCJKkr-Regular-c8a4" d="M 4358 4627 
L 4358 3514 
L 1510 3514 
L 1510 4627 
L 4358 4627 
z
M 902 1331 
L 902 902 
L 4371 902 
L 4371 -499 
L 4902 -499 
L 4902 1331 
L 902 1331 
z
M 320 2362 
L 320 1926 
L 5549 1926 
L 5549 2362 
L 3200 2362 
L 3200 3085 
L 4877 3085 
L 4877 5050 
L 992 5050 
L 992 3085 
L 2669 3085 
L 2669 2362 
L 320 2362 
z
" transform="scale(0.015625)"/>
       <path id="NotoSansCJKkr-Regular-e257" d="M 794 2445 
L 794 2010 
L 1773 2010 
L 1773 640 
L 320 640 
L 320 205 
L 5568 205 
L 5568 640 
L 4083 640 
L 4083 2010 
L 5062 2010 
L 5062 2445 
L 4173 2445 
L 4173 4320 
L 5075 4320 
L 5075 4755 
L 781 4755 
L 781 4320 
L 1677 4320 
L 1677 2445 
L 794 2445 
z
M 2304 640 
L 2304 2010 
L 3552 2010 
L 3552 640 
L 2304 640 
z
M 2208 4320 
L 3648 4320 
L 3648 2445 
L 2208 2445 
L 2208 4320 
z
" transform="scale(0.015625)"/>
       <path id="NotoSansCJKkr-Regular-1e" d="M 243 2912 
L 3315 2912 
L 3315 3347 
L 243 3347 
L 243 2912 
z
M 243 1376 
L 3315 1376 
L 3315 1811 
L 243 1811 
L 243 1376 
z
" transform="scale(0.015625)"/>
      </defs>
      <use xlink:href="#NotoSansCJKkr-Regular-c8a4"/>
      <use xlink:href="#NotoSansCJKkr-Regular-e257" transform="translate(92 0)"/>
      <use xlink:href="#NotoSansCJKkr-Regular-1" transform="translate(184 0)"/>
      <use xlink:href="#NotoSansCJKkr-Regular-9" transform="translate(206.40625 0)"/>
      <use xlink:href="#NotoSansCJKkr-Regular-120" transform="translate(240.203125 0)"/>
      <use xlink:href="#NotoSansCJKkr-Regular-1e" transform="translate(298.5 0)"/>
      <use xlink:href="#NotoSansCJKkr-Regular-f6b1" transform="translate(354 0)"/>
      <use xlink:href="#NotoSansCJKkr-Regular-a" transform="translate(409.5 0)"/>
     </g>
    </g>
   </g>
  </g>
 </g>
 <defs>
  <clipPath id="p022726fc05">
   <rect x="42.839063" y="23.76" width="446.04" height="218.63375"/>
  </clipPath>
 </defs>
</svg>
